<svg width="276" height="348" viewBox="0 0 276 348" fill="none" xmlns="http://www.w3.org/2000/svg">
<mask id="path-1-inside-1_3299_7531" fill="white">
<path fill-rule="evenodd" clip-rule="evenodd" d="M122.433 0.438653C124.152 0.0278996 125.926 -0.0956472 127.685 0.073375C129.669 0.264103 131.616 0.960735 135.509 2.35388L242.598 40.6797C248.29 42.7168 251.136 43.7355 253.298 45.5212C255.208 47.0997 256.726 49.1006 257.731 51.3657C258.869 53.9283 259.083 56.9439 259.51 62.9746L274.563 275.192C275.992 295.324 276.705 305.39 273.331 313.355C270.363 320.36 265.252 326.246 258.732 330.166C251.319 334.623 241.251 335.327 221.118 336.735L76.7079 346.833C56.5925 348.24 46.5347 348.943 38.5779 345.566C31.5789 342.595 25.7001 337.485 21.784 330.967C17.332 323.558 16.6286 313.5 15.222 293.385L0.379588 81.1281C-0.0429367 75.0857 -0.254163 72.0643 0.515466 69.3637C1.19573 66.9767 2.42163 64.7804 4.09681 62.9489C5.99212 60.8768 8.67563 59.4715 14.0413 56.661L115.002 3.77907C118.664 1.861 120.495 0.902103 122.433 0.438653ZM125.919 12.5402C122.062 12.8099 119.154 16.1554 119.424 20.0125C119.693 23.8696 123.039 26.7777 126.896 26.508C130.753 26.2383 133.661 22.8928 133.391 19.0357C133.122 15.1787 129.776 12.2705 125.919 12.5402Z"/>
</mask>
<path fill-rule="evenodd" clip-rule="evenodd" d="M122.433 0.438653C124.152 0.0278996 125.926 -0.0956472 127.685 0.073375C129.669 0.264103 131.616 0.960735 135.509 2.35388L242.598 40.6797C248.29 42.7168 251.136 43.7355 253.298 45.5212C255.208 47.0997 256.726 49.1006 257.731 51.3657C258.869 53.9283 259.083 56.9439 259.51 62.9746L274.563 275.192C275.992 295.324 276.705 305.39 273.331 313.355C270.363 320.36 265.252 326.246 258.732 330.166C251.319 334.623 241.251 335.327 221.118 336.735L76.7079 346.833C56.5925 348.24 46.5347 348.943 38.5779 345.566C31.5789 342.595 25.7001 337.485 21.784 330.967C17.332 323.558 16.6286 313.5 15.222 293.385L0.379588 81.1281C-0.0429367 75.0857 -0.254163 72.0643 0.515466 69.3637C1.19573 66.9767 2.42163 64.7804 4.09681 62.9489C5.99212 60.8768 8.67563 59.4715 14.0413 56.661L115.002 3.77907C118.664 1.861 120.495 0.902103 122.433 0.438653ZM125.919 12.5402C122.062 12.8099 119.154 16.1554 119.424 20.0125C119.693 23.8696 123.039 26.7777 126.896 26.508C130.753 26.2383 133.661 22.8928 133.391 19.0357C133.122 15.1787 129.776 12.2705 125.919 12.5402Z" fill="white" fill-opacity="0.4"/>
<path d="M122.433 0.438653L122.201 -0.534081L122.201 -0.534073L122.433 0.438653ZM127.685 0.073375L127.781 -0.922176L127.781 -0.922177L127.685 0.073375ZM135.509 2.35388L135.172 3.29553L135.172 3.29553L135.509 2.35388ZM242.598 40.6797L242.935 39.7381V39.7381L242.598 40.6797ZM253.298 45.5212L253.935 44.7502L253.935 44.7502L253.298 45.5212ZM257.731 51.3657L258.645 50.9599L258.645 50.9599L257.731 51.3657ZM259.51 62.9746L258.513 63.0454V63.0454L259.51 62.9746ZM274.563 275.192L273.566 275.263V275.263L274.563 275.192ZM273.331 313.355L274.252 313.745V313.745L273.331 313.355ZM258.732 330.166L259.247 331.023L259.247 331.023L258.732 330.166ZM76.7079 346.833L76.7776 347.831L76.7079 346.833ZM38.5779 345.566L38.1871 346.486L38.1871 346.486L38.5779 345.566ZM21.784 330.967L20.9267 331.482L20.9267 331.482L21.784 330.967ZM15.222 293.385L14.2243 293.454L15.222 293.385ZM0.515466 69.3637L-0.446378 69.0896L-0.446379 69.0896L0.515466 69.3637ZM4.09681 62.9489L3.35883 62.2739L3.35882 62.2739L4.09681 62.9489ZM14.0413 56.661L14.5053 57.547L14.5053 57.547L14.0413 56.661ZM115.002 3.77907L114.538 2.8931L114.538 2.8931L115.002 3.77907ZM119.424 20.0125L118.426 20.0822L118.426 20.0822L119.424 20.0125ZM133.391 19.0357L134.389 18.966L134.389 18.966L133.391 19.0357ZM122.433 0.438653L122.666 1.41139C124.277 1.02629 125.941 0.910475 127.589 1.06893L127.685 0.073375L127.781 -0.922177C125.912 -1.10177 124.026 -0.970492 122.201 -0.534081L122.433 0.438653ZM127.685 0.073375L127.589 1.06893C129.421 1.24495 131.232 1.88538 135.172 3.29553L135.509 2.35388L135.846 1.41223C132.001 0.0360853 129.918 -0.716748 127.781 -0.922176L127.685 0.073375ZM135.509 2.35388L135.172 3.29553L242.261 41.6214L242.598 40.6797L242.935 39.7381L135.846 1.41223L135.509 2.35388ZM242.598 40.6797L242.261 41.6214C248.025 43.6843 250.667 44.6448 252.66 46.2922L253.298 45.5212L253.935 44.7502C251.606 42.8261 248.555 41.7493 242.935 39.7381L242.598 40.6797ZM253.298 45.5212L252.66 46.2922C254.451 47.772 255.875 49.6479 256.817 51.7714L257.731 51.3657L258.645 50.9599C257.577 48.5533 255.964 46.4273 253.935 44.7502L253.298 45.5212ZM257.731 51.3657L256.817 51.7714C257.866 54.1354 258.08 56.9381 258.513 63.0454L259.51 62.9746L260.508 62.9038C260.086 56.9497 259.871 53.7211 258.645 50.9599L257.731 51.3657ZM259.51 62.9746L258.513 63.0454L273.566 275.263L274.563 275.192L275.561 275.121L260.508 62.9038L259.51 62.9746ZM274.563 275.192L273.566 275.263C274.281 285.345 274.812 292.847 274.748 298.825C274.684 304.792 274.025 309.152 272.41 312.965L273.331 313.355L274.252 313.745C276.011 309.592 276.683 304.938 276.748 298.847C276.814 292.768 276.274 285.171 275.561 275.121L274.563 275.192ZM273.331 313.355L272.41 312.965C269.525 319.776 264.556 325.497 258.217 329.309L258.732 330.166L259.247 331.023C265.949 326.994 271.202 320.945 274.252 313.745L273.331 313.355ZM258.732 330.166L258.217 329.309C254.668 331.443 250.443 332.706 244.544 333.606C238.634 334.507 231.131 335.033 221.048 335.738L221.118 336.735L221.187 337.733C231.238 337.03 238.836 336.5 244.846 335.583C250.868 334.664 255.383 333.347 259.247 331.023L258.732 330.166ZM221.118 336.735L221.048 335.738L76.6381 345.836L76.7079 346.833L76.7776 347.831L221.187 337.733L221.118 336.735ZM76.7079 346.833L76.6381 345.836C66.564 346.54 59.0683 347.064 53.0952 346.994C47.1337 346.924 42.7772 346.262 38.9687 344.645L38.5779 345.566L38.1871 346.486C42.3355 348.247 46.9862 348.922 53.0717 348.994C59.1455 349.065 66.7364 348.533 76.7776 347.831L76.7079 346.833ZM38.5779 345.566L38.9687 344.645C32.1641 341.757 26.4486 336.788 22.6413 330.452L21.784 330.967L20.9267 331.482C24.9516 338.181 30.9937 343.433 38.1871 346.486L38.5779 345.566ZM21.784 330.967L22.6413 330.452C20.5104 326.906 19.2485 322.684 18.3497 316.79C17.4491 310.885 16.9242 303.389 16.2197 293.315L15.222 293.385L14.2243 293.454C14.9265 303.496 15.4565 311.087 16.3723 317.091C17.2898 323.108 18.6056 327.619 20.9267 331.482L21.784 330.967ZM15.222 293.385L16.2197 293.315L1.37729 81.0583L0.379588 81.1281L-0.618115 81.1978L14.2243 293.454L15.222 293.385ZM0.379588 81.1281L1.37729 81.0583C0.9494 74.9392 0.767323 72.1291 1.47731 69.6378L0.515466 69.3637L-0.446379 69.0896C-1.27565 71.9995 -1.03527 75.2322 -0.618115 81.1978L0.379588 81.1281ZM0.515466 69.3637L1.47731 69.6378C2.11508 67.3999 3.26439 65.3409 4.8348 63.624L4.09681 62.9489L3.35882 62.2739C1.57887 64.2199 0.276371 66.5535 -0.446378 69.0896L0.515466 69.3637ZM4.09681 62.9489L4.8348 63.624C6.58322 61.7124 9.07144 60.3932 14.5053 57.547L14.0413 56.661L13.5772 55.7751C8.27981 58.5498 5.40102 60.0412 3.35883 62.2739L4.09681 62.9489ZM14.0413 56.661L14.5053 57.547L115.466 4.66503L115.002 3.77907L114.538 2.8931L13.5772 55.7751L14.0413 56.661ZM115.002 3.77907L115.466 4.66503C119.172 2.72358 120.877 1.83911 122.666 1.41138L122.433 0.438653L122.201 -0.534073C120.113 -0.0349091 118.155 0.99841 114.538 2.8931L115.002 3.77907ZM125.919 12.5402L125.849 11.5425C121.441 11.8507 118.118 15.6742 118.426 20.0822L119.424 20.0125L120.421 19.9427C120.19 16.6366 122.683 13.7691 125.989 13.5379L125.919 12.5402ZM119.424 20.0125L118.426 20.0822C118.734 24.4904 122.557 27.814 126.966 27.5057L126.896 26.508L126.826 25.5103C123.52 25.7415 120.652 23.2488 120.421 19.9427L119.424 20.0125ZM126.896 26.508L126.966 27.5057C131.374 27.1975 134.697 23.3741 134.389 18.966L133.391 19.0357L132.394 19.1055C132.625 22.4116 130.132 25.2791 126.826 25.5103L126.896 26.508ZM133.391 19.0357L134.389 18.966C134.081 14.5579 130.257 11.2342 125.849 11.5425L125.919 12.5402L125.989 13.5379C129.295 13.3067 132.162 15.7994 132.394 19.1055L133.391 19.0357Z" fill="white" mask="url(#path-1-inside-1_3299_7531)"/>
</svg>
