<svg width="260" height="343" viewBox="0 0 260 343" fill="none" xmlns="http://www.w3.org/2000/svg">
<path d="M127.476 0.710111C129.165 0.42926 130.889 0.429871 132.577 0.712064C134.467 1.02813 136.295 1.82644 140.104 3.49781L244.266 49.2037C249.838 51.6484 252.506 52.8271 254.459 54.6844C256.199 56.3391 257.531 58.3759 258.349 60.6329C259.268 63.1666 259.278 66.0842 259.284 72.1686L259.497 284.934C259.507 295.034 259.514 302.579 259.031 308.564C258.549 314.543 257.579 318.92 255.66 322.693C252.365 329.172 247.163 334.478 240.764 337.902L240.141 338.228C236.37 340.15 231.993 341.124 226.014 341.613C220.03 342.102 212.485 342.102 202.385 342.102H57.6118C47.5207 342.102 39.9824 342.103 34.0033 341.614C28.0299 341.126 23.656 340.153 19.887 338.233C13.2061 334.828 7.77421 329.396 4.37006 322.716C2.44969 318.947 1.47753 314.573 0.989467 308.599C0.500954 302.62 0.500106 295.082 0.500106 284.991V72.2008C0.500106 66.1048 0.50693 63.1819 1.42608 60.6437C2.24487 58.3828 3.57878 56.3431 5.32144 54.6863C7.27789 52.8265 9.95253 51.6476 15.5365 49.2028L119.947 3.48902C123.757 1.82084 125.586 1.02463 127.476 0.710111ZM130.027 12.0328C125.885 12.0328 122.526 15.3915 122.526 19.5344C122.526 23.6774 125.884 27.036 130.027 27.036C134.17 27.036 137.529 23.6774 137.529 19.5344L137.519 19.1486C137.318 15.185 134.041 12.0328 130.027 12.0328Z" stroke="white"/>
</svg>
