<svg width="70" height="37" viewBox="0 0 70 37" fill="none" xmlns="http://www.w3.org/2000/svg">
<path d="M34.7763 0.0186422C36.428 -0.164743 37.9155 1.02554 38.099 2.67724C38.2267 3.82675 38.4962 5.80715 39.3568 8.38431C43.5674 9.52589 47.6569 10.8149 51.3597 12.2498C56.4383 14.2179 61.0245 16.5463 64.1737 19.3018C68.4836 23.073 70.8196 27.5615 69.7367 31.5682C69.1743 33.6489 67.7395 35.2364 65.8135 36.0939C64.4999 36.6787 63.0301 36.8975 61.5053 36.8119C60.3748 35.566 59.6842 33.9141 59.6842 32.0991C59.6842 31.5902 59.7388 31.0941 59.8419 30.616C60.1591 30.5795 60.4872 30.5905 60.8166 30.6611C62.1192 30.9402 62.9457 30.7838 63.3665 30.5965C63.7284 30.4353 63.8613 30.2356 63.9258 29.9969C64.0966 29.3639 63.9243 27.0812 60.2103 23.8314C57.8521 21.7681 54.0414 19.7438 49.185 17.8618C47.1894 17.0885 45.056 16.3538 42.8314 15.6597C43.7147 17.079 44.7646 18.5704 46.016 20.1158L40.2923 22.5687C37.7868 19.2664 36.0588 16.1733 34.8595 13.4302C34.2523 13.2773 33.643 13.1258 33.0316 12.9786C21.5169 10.2067 9.63889 8.50585 2.7947 8.01697C1.13701 7.89849 -0.110623 6.45869 0.00777618 4.80099C0.126259 3.14329 1.56604 1.89565 3.22376 2.01406C10.0624 2.50255 21.4184 4.11306 32.6633 6.7102C32.3643 5.32802 32.2118 4.18832 32.1177 3.3414C31.9343 1.68969 33.1245 0.202168 34.7763 0.0186422Z" fill="url(#paint0_linear_3299_7568)"/>
<defs>
<linearGradient id="paint0_linear_3299_7568" x1="25.579" y1="2.00632" x2="66.706" y2="34.1054" gradientUnits="userSpaceOnUse">
<stop stop-color="#FD62BD"/>
<stop offset="1" stop-color="#FF6A3A"/>
</linearGradient>
</defs>
</svg>
