<svg width="74" height="17" viewBox="0 0 74 17" fill="none" xmlns="http://www.w3.org/2000/svg">
<path d="M35.1529 1.56219C35.725 1.52269 36.3504 1.502 36.9585 1.53859C37.4504 1.56821 38.4702 1.65811 39.4502 2.14553C39.9983 2.41825 40.6906 2.89452 41.1557 3.67966L41.2425 3.8359C41.5665 4.45295 41.6547 5.08122 41.6049 5.64717C44.3169 5.10983 48.1757 4.54686 52.2165 4.08619C57.543 3.47894 63.5912 3.00198 68.4123 3.00072C69.4286 3.00046 70.4081 3.30839 71.1626 3.88836C71.9211 4.47148 72.5096 5.39106 72.4791 6.51946C72.4488 7.63679 71.8231 8.52519 71.0641 9.08582C70.3026 9.64831 69.324 9.95715 68.3071 9.95744C64.0178 9.95856 58.3851 10.3924 53.2344 10.9796C48.0108 11.5751 43.6836 12.2828 41.9039 12.7526C40.5981 13.0974 39.2055 13.3502 37.8853 13.4203C36.7423 13.481 34.9037 13.4522 33.3247 12.6178C32.4288 12.1444 31.5744 11.3812 31.1556 10.2788C31.0178 9.91608 30.9437 9.55952 30.9163 9.21643C30.0854 9.37317 29.187 9.55282 28.2303 9.75289C21.5405 11.1519 12.8522 13.3671 6.87452 14.9891L6.87456 14.9901C5.89388 15.256 4.86814 15.2031 3.9814 14.8876C3.10669 14.5764 2.23945 13.9562 1.79511 12.9779L1.79412 12.9779C1.32853 11.9521 1.48612 10.8704 2.03401 10.0253C2.5649 9.20651 3.42928 8.63909 4.40752 8.37366C10.4595 6.73158 19.3542 4.46021 26.3138 3.00475C29.7223 2.29195 32.9407 1.715 35.1529 1.56219Z" fill="url(#paint0_linear_3299_7596)" stroke="white" stroke-width="3" stroke-linecap="round"/>
<defs>
<linearGradient id="paint0_linear_3299_7596" x1="2.93987" y1="8.98664" x2="70.9654" y2="6.53126" gradientUnits="userSpaceOnUse">
<stop stop-color="#E4FF6B"/>
<stop offset="1" stop-color="#CAFE54"/>
</linearGradient>
</defs>
</svg>
