<svg width="170" height="36" viewBox="0 0 170 36" fill="none" xmlns="http://www.w3.org/2000/svg">
<path fill-rule="evenodd" clip-rule="evenodd" d="M161.008 0.198934C165.524 -0.0985452 167.782 -0.247127 169.082 1.13753C170.381 2.52252 170.089 4.76701 169.503 9.2554L168.604 16.1483C168.198 19.2639 167.994 20.8218 166.952 21.8044C165.91 22.787 164.343 22.8987 161.209 23.1226L90.5304 28.1706L84.5712 34.7928C83.5703 35.9049 81.7485 35.5713 81.2062 34.1769L79.1858 28.9817L9.20565 33.9807C4.51801 34.3155 2.17363 34.4825 0.861231 33.0411C-0.451096 31.5995 -0.0653634 29.2814 0.707249 24.6457L2.00187 16.8819C2.50386 13.87 2.75437 12.3633 3.7908 11.4249C4.82747 10.4864 6.35172 10.3859 9.39887 10.1852L161.008 0.198934Z" fill="url(#paint0_linear_3299_7573)"/>
<defs>
<linearGradient id="paint0_linear_3299_7573" x1="0" y1="17.7291" x2="170" y2="17.7291" gradientUnits="userSpaceOnUse">
<stop stop-color="#FFA437"/>
<stop offset="0.5" stop-color="#FF6546"/>
<stop offset="1" stop-color="#FF51A5"/>
</linearGradient>
</defs>
</svg>
