<svg width="375" height="74" viewBox="0 0 375 74" fill="none" xmlns="http://www.w3.org/2000/svg">
<rect width="375" height="2" fill="white" fill-opacity="0.24"/>
<path d="M0 0H99C99.5523 0 100 0.447715 100 1C100 1.55228 99.5523 2 99 2H0V0Z" fill="white"/>
<path d="M143.579 24.3394C144.415 24.0449 145.316 24.2774 145.909 24.8745C146.11 25.0682 146.279 25.3024 146.399 25.5718L147.761 28.6157C147.776 28.648 147.794 28.6781 147.815 28.7056C147.877 28.7694 147.956 28.8165 148.046 28.8345C148.101 28.8455 148.149 28.8686 148.193 28.896C148.453 28.9605 148.571 29.2659 148.415 29.4878L148.18 29.8218C147.805 30.3565 147.16 30.6349 146.513 30.5425C146.13 30.4875 145.783 30.3058 145.519 30.0366C145.358 29.8816 145.226 29.6949 145.134 29.4839L143.23 25.1411C143.091 24.8234 143.252 24.4546 143.579 24.3394ZM147.596 25.6021C148.23 24.4752 149.612 24.0089 150.799 24.521L149.305 27.7681C149.214 27.9657 149.016 28.0923 148.799 28.0923C148.579 28.0922 148.38 27.9629 148.29 27.7622L147.444 25.8735L147.596 25.6021Z" fill="url(#paint0_linear_1286_33297)"/>
<path d="M142.06 21.0002H150.447C151.496 21.0003 152.481 21.5061 153.092 22.3586L155.872 26.2385C155.992 26.4052 155.973 26.6341 155.827 26.7786L147.241 35.2922C147.077 35.4546 146.813 35.4539 146.65 35.2903L138.193 26.7766C138.051 26.6328 138.032 26.4071 138.148 26.2415L141.718 21.177C141.796 21.066 141.924 21.0003 142.06 21.0002Z" stroke="url(#paint1_linear_1286_33297)" stroke-width="2" stroke-linecap="round"/>
<path d="M162.248 32.06C161.735 32.06 161.275 31.9467 160.868 31.72C160.468 31.4933 160.152 31.1767 159.918 30.77C159.685 30.3633 159.568 29.89 159.568 29.35C159.568 28.81 159.685 28.34 159.918 27.94C160.152 27.5333 160.468 27.2167 160.868 26.99C161.275 26.7633 161.735 26.65 162.248 26.65C162.695 26.65 163.098 26.75 163.458 26.95C163.818 27.15 164.105 27.45 164.318 27.85C164.538 28.25 164.648 28.75 164.648 29.35C164.648 29.95 164.542 30.45 164.328 30.85C164.122 31.25 163.838 31.5533 163.478 31.76C163.118 31.96 162.708 32.06 162.248 32.06ZM162.328 31.22C162.662 31.22 162.962 31.1433 163.228 30.99C163.502 30.8367 163.715 30.62 163.868 30.34C164.028 30.0533 164.108 29.7233 164.108 29.35C164.108 28.97 164.028 28.6433 163.868 28.37C163.715 28.09 163.502 27.8733 163.228 27.72C162.962 27.5667 162.662 27.49 162.328 27.49C161.988 27.49 161.685 27.5667 161.418 27.72C161.152 27.8733 160.938 28.09 160.778 28.37C160.618 28.6433 160.538 28.97 160.538 29.35C160.538 29.7233 160.618 30.0533 160.778 30.34C160.938 30.62 161.152 30.8367 161.418 30.99C161.685 31.1433 161.988 31.22 162.328 31.22ZM164.138 32V30.57L164.198 29.34L164.098 28.11V24.58H165.058V32H164.138ZM169.145 32.06C168.612 32.06 168.138 31.9433 167.725 31.71C167.312 31.4767 166.985 31.1567 166.745 30.75C166.505 30.3367 166.385 29.87 166.385 29.35C166.385 28.8233 166.505 28.3567 166.745 27.95C166.985 27.5433 167.312 27.2267 167.725 27C168.138 26.7667 168.612 26.65 169.145 26.65C169.672 26.65 170.142 26.7667 170.555 27C170.975 27.2267 171.302 27.5433 171.535 27.95C171.775 28.35 171.895 28.8167 171.895 29.35C171.895 29.8767 171.775 30.3433 171.535 30.75C171.302 31.1567 170.975 31.4767 170.555 31.71C170.142 31.9433 169.672 32.06 169.145 32.06ZM169.145 31.22C169.485 31.22 169.788 31.1433 170.055 30.99C170.328 30.8367 170.542 30.62 170.695 30.34C170.848 30.0533 170.925 29.7233 170.925 29.35C170.925 28.97 170.848 28.6433 170.695 28.37C170.542 28.09 170.328 27.8733 170.055 27.72C169.788 27.5667 169.485 27.49 169.145 27.49C168.805 27.49 168.502 27.5667 168.235 27.72C167.968 27.8733 167.755 28.09 167.595 28.37C167.435 28.6433 167.355 28.97 167.355 29.35C167.355 29.7233 167.435 30.0533 167.595 30.34C167.755 30.62 167.968 30.8367 168.235 30.99C168.502 31.1433 168.805 31.22 169.145 31.22ZM174.196 32L172.226 26.7H173.136L174.886 31.5H174.456L176.276 26.7H177.086L178.866 31.5H178.446L180.236 26.7H181.096L179.116 32H178.196L176.526 27.62H176.806L175.116 32H174.196ZM184.9 26.65C185.333 26.65 185.713 26.7333 186.04 26.9C186.373 27.0667 186.633 27.32 186.82 27.66C187.007 28 187.1 28.43 187.1 28.95V32H186.14V29.06C186.14 28.5467 186.013 28.16 185.76 27.9C185.513 27.64 185.163 27.51 184.71 27.51C184.37 27.51 184.073 27.5767 183.82 27.71C183.567 27.8433 183.37 28.04 183.23 28.3C183.097 28.56 183.03 28.8833 183.03 29.27V32H182.07V26.7H182.99V28.13L182.84 27.75C183.013 27.4033 183.28 27.1333 183.64 26.94C184 26.7467 184.42 26.65 184.9 26.65ZM188.877 32V24.58H189.837V32H188.877ZM193.94 32.06C193.406 32.06 192.933 31.9433 192.52 31.71C192.106 31.4767 191.78 31.1567 191.54 30.75C191.3 30.3367 191.18 29.87 191.18 29.35C191.18 28.8233 191.3 28.3567 191.54 27.95C191.78 27.5433 192.106 27.2267 192.52 27C192.933 26.7667 193.406 26.65 193.94 26.65C194.466 26.65 194.936 26.7667 195.35 27C195.77 27.2267 196.096 27.5433 196.33 27.95C196.57 28.35 196.69 28.8167 196.69 29.35C196.69 29.8767 196.57 30.3433 196.33 30.75C196.096 31.1567 195.77 31.4767 195.35 31.71C194.936 31.9433 194.466 32.06 193.94 32.06ZM193.94 31.22C194.28 31.22 194.583 31.1433 194.85 30.99C195.123 30.8367 195.336 30.62 195.49 30.34C195.643 30.0533 195.72 29.7233 195.72 29.35C195.72 28.97 195.643 28.6433 195.49 28.37C195.336 28.09 195.123 27.8733 194.85 27.72C194.583 27.5667 194.28 27.49 193.94 27.49C193.6 27.49 193.296 27.5667 193.03 27.72C192.763 27.8733 192.55 28.09 192.39 28.37C192.23 28.6433 192.15 28.97 192.15 29.35C192.15 29.7233 192.23 30.0533 192.39 30.34C192.55 30.62 192.763 30.8367 193.03 30.99C193.296 31.1433 193.6 31.22 193.94 31.22ZM201.259 32V30.88L201.209 30.67V28.76C201.209 28.3533 201.089 28.04 200.849 27.82C200.615 27.5933 200.262 27.48 199.789 27.48C199.475 27.48 199.169 27.5333 198.869 27.64C198.569 27.74 198.315 27.8767 198.109 28.05L197.709 27.33C197.982 27.11 198.309 26.9433 198.689 26.83C199.075 26.71 199.479 26.65 199.899 26.65C200.625 26.65 201.185 26.8267 201.579 27.18C201.972 27.5333 202.169 28.0733 202.169 28.8V32H201.259ZM199.519 32.06C199.125 32.06 198.779 31.9933 198.479 31.86C198.185 31.7267 197.959 31.5433 197.799 31.31C197.639 31.07 197.559 30.8 197.559 30.5C197.559 30.2133 197.625 29.9533 197.759 29.72C197.899 29.4867 198.122 29.3 198.429 29.16C198.742 29.02 199.162 28.95 199.689 28.95H201.369V29.64H199.729C199.249 29.64 198.925 29.72 198.759 29.88C198.592 30.04 198.509 30.2333 198.509 30.46C198.509 30.72 198.612 30.93 198.819 31.09C199.025 31.2433 199.312 31.32 199.679 31.32C200.039 31.32 200.352 31.24 200.619 31.08C200.892 30.92 201.089 30.6867 201.209 30.38L201.399 31.04C201.272 31.3533 201.049 31.6033 200.729 31.79C200.409 31.97 200.005 32.06 199.519 32.06ZM206.135 32.06C205.622 32.06 205.162 31.9467 204.755 31.72C204.355 31.4933 204.038 31.1767 203.805 30.77C203.572 30.3633 203.455 29.89 203.455 29.35C203.455 28.81 203.572 28.34 203.805 27.94C204.038 27.5333 204.355 27.2167 204.755 26.99C205.162 26.7633 205.622 26.65 206.135 26.65C206.582 26.65 206.985 26.75 207.345 26.95C207.705 27.15 207.992 27.45 208.205 27.85C208.425 28.25 208.535 28.75 208.535 29.35C208.535 29.95 208.428 30.45 208.215 30.85C208.008 31.25 207.725 31.5533 207.365 31.76C207.005 31.96 206.595 32.06 206.135 32.06ZM206.215 31.22C206.548 31.22 206.848 31.1433 207.115 30.99C207.388 30.8367 207.602 30.62 207.755 30.34C207.915 30.0533 207.995 29.7233 207.995 29.35C207.995 28.97 207.915 28.6433 207.755 28.37C207.602 28.09 207.388 27.8733 207.115 27.72C206.848 27.5667 206.548 27.49 206.215 27.49C205.875 27.49 205.572 27.5667 205.305 27.72C205.038 27.8733 204.825 28.09 204.665 28.37C204.505 28.6433 204.425 28.97 204.425 29.35C204.425 29.7233 204.505 30.0533 204.665 30.34C204.825 30.62 205.038 30.8367 205.305 30.99C205.572 31.1433 205.875 31.22 206.215 31.22ZM208.025 32V30.57L208.085 29.34L207.985 28.11V24.58H208.945V32H208.025Z" fill="#FEDAA4"/>
<circle cx="246" cy="29" r="2" stroke="white" stroke-width="2"/>
<path d="M247 28.5L254.5 21" stroke="white" stroke-width="2"/>
<path d="M239.282 22.2825C242.992 18.5725 249.008 18.5726 252.718 22.2825C252.9 22.4651 253.071 22.6556 253.236 22.8489L251.818 24.2668C251.658 24.0704 251.487 23.8796 251.303 23.6965C248.375 20.7679 243.626 20.768 240.697 23.6965C237.768 26.6255 237.768 31.375 240.697 34.304L239.282 35.718C235.572 32.0081 235.572 25.9924 239.282 22.2825ZM254.384 24.5295C256.301 28.1228 255.747 32.6887 252.718 35.718L251.303 34.304C253.541 32.0662 254.067 28.7667 252.885 26.0276L254.384 24.5295Z" fill="white"/>
<path d="M260.666 32V25.4L261.096 25.87H259.086V25H261.656V32H260.666ZM263.847 32.06C263.66 32.06 263.5 31.9967 263.367 31.87C263.234 31.7367 263.167 31.57 263.167 31.37C263.167 31.17 263.234 31.0067 263.367 30.88C263.5 30.7533 263.66 30.69 263.847 30.69C264.027 30.69 264.18 30.7533 264.307 30.88C264.44 31.0067 264.507 31.17 264.507 31.37C264.507 31.57 264.44 31.7367 264.307 31.87C264.18 31.9967 264.027 32.06 263.847 32.06ZM265.44 32V31.32L268.29 28.57C268.544 28.33 268.73 28.12 268.85 27.94C268.977 27.7533 269.06 27.5833 269.1 27.43C269.147 27.27 269.17 27.1167 269.17 26.97C269.17 26.61 269.044 26.3267 268.79 26.12C268.537 25.9133 268.167 25.81 267.68 25.81C267.307 25.81 266.97 25.8733 266.67 26C266.37 26.12 266.11 26.31 265.89 26.57L265.21 25.98C265.477 25.64 265.834 25.38 266.28 25.2C266.734 25.0133 267.23 24.92 267.77 24.92C268.257 24.92 268.68 25 269.04 25.16C269.4 25.3133 269.677 25.5367 269.87 25.83C270.07 26.1233 270.17 26.47 270.17 26.87C270.17 27.0967 270.14 27.32 270.08 27.54C270.02 27.76 269.907 27.9933 269.74 28.24C269.574 28.4867 269.334 28.7633 269.02 29.07L266.48 31.52L266.24 31.13H270.47V32H265.44ZM273.553 32.08C273.059 32.08 272.579 32.0033 272.113 31.85C271.653 31.6967 271.276 31.49 270.983 31.23L271.443 30.44C271.676 30.66 271.979 30.84 272.353 30.98C272.726 31.12 273.123 31.19 273.543 31.19C274.076 31.19 274.486 31.0767 274.773 30.85C275.059 30.6233 275.203 30.32 275.203 29.94C275.203 29.68 275.139 29.4533 275.013 29.26C274.886 29.0667 274.666 28.92 274.353 28.82C274.046 28.7133 273.623 28.66 273.083 28.66H271.493L271.863 25H275.812V25.87H272.233L272.753 25.38L272.463 28.27L271.943 27.79H273.293C273.993 27.79 274.556 27.88 274.983 28.06C275.409 28.24 275.719 28.49 275.913 28.81C276.106 29.1233 276.203 29.4867 276.203 29.9C276.203 30.3 276.106 30.6667 275.913 31C275.719 31.3267 275.426 31.59 275.033 31.79C274.646 31.9833 274.153 32.08 273.553 32.08ZM276.617 32L278.897 29.04L278.887 29.53L276.717 26.7H277.787L279.447 28.88H279.037L280.697 26.7H281.747L279.547 29.55L279.557 29.04L281.857 32H280.767L279.017 29.68L279.407 29.74L277.687 32H276.617Z" fill="white"/>
<rect x="307.75" y="18.25" width="46.5" height="19.5" rx="3.75" fill="#23252A"/>
<rect x="307.75" y="18.25" width="46.5" height="19.5" rx="3.75" stroke="#828386" stroke-width="0.5"/>
<path d="M313.313 32V25.4L313.743 25.87H311.733V25H314.303V32H313.313ZM318.694 32.08C318.148 32.08 317.658 31.94 317.224 31.66C316.798 31.38 316.458 30.9733 316.204 30.44C315.958 29.9067 315.834 29.26 315.834 28.5C315.834 27.74 315.958 27.0933 316.204 26.56C316.458 26.0267 316.798 25.62 317.224 25.34C317.658 25.06 318.148 24.92 318.694 24.92C319.234 24.92 319.721 25.06 320.154 25.34C320.588 25.62 320.928 26.0267 321.174 26.56C321.421 27.0933 321.544 27.74 321.544 28.5C321.544 29.26 321.421 29.9067 321.174 30.44C320.928 30.9733 320.588 31.38 320.154 31.66C319.721 31.94 319.234 32.08 318.694 32.08ZM318.694 31.19C319.061 31.19 319.381 31.09 319.654 30.89C319.934 30.69 320.151 30.39 320.304 29.99C320.464 29.59 320.544 29.0933 320.544 28.5C320.544 27.9067 320.464 27.41 320.304 27.01C320.151 26.61 319.934 26.31 319.654 26.11C319.381 25.91 319.061 25.81 318.694 25.81C318.328 25.81 318.004 25.91 317.724 26.11C317.444 26.31 317.224 26.61 317.064 27.01C316.911 27.41 316.834 27.9067 316.834 28.5C316.834 29.0933 316.911 29.59 317.064 29.99C317.224 30.39 317.444 30.69 317.724 30.89C318.004 31.09 318.328 31.19 318.694 31.19ZM325.234 32.08C324.668 32.08 324.178 31.9967 323.764 31.83C323.351 31.6633 323.031 31.4267 322.804 31.12C322.578 30.8067 322.464 30.44 322.464 30.02C322.464 29.6067 322.571 29.2567 322.784 28.97C323.004 28.6767 323.321 28.4567 323.734 28.31C324.148 28.1567 324.648 28.08 325.234 28.08C325.821 28.08 326.321 28.1567 326.734 28.31C327.154 28.4567 327.474 28.6767 327.694 28.97C327.914 29.2633 328.024 29.6133 328.024 30.02C328.024 30.44 327.911 30.8067 327.684 31.12C327.458 31.4267 327.134 31.6633 326.714 31.83C326.294 31.9967 325.801 32.08 325.234 32.08ZM325.234 31.27C325.794 31.27 326.231 31.1567 326.544 30.93C326.864 30.6967 327.024 30.3833 327.024 29.99C327.024 29.6033 326.864 29.3 326.544 29.08C326.231 28.8533 325.794 28.74 325.234 28.74C324.681 28.74 324.248 28.8533 323.934 29.08C323.621 29.3 323.464 29.6033 323.464 29.99C323.464 30.3833 323.621 30.6967 323.934 30.93C324.248 31.1567 324.681 31.27 325.234 31.27ZM325.234 28.62C324.701 28.62 324.248 28.55 323.874 28.41C323.501 28.2633 323.214 28.0567 323.014 27.79C322.814 27.5167 322.714 27.1933 322.714 26.82C322.714 26.4267 322.818 26.09 323.024 25.81C323.238 25.5233 323.534 25.3033 323.914 25.15C324.294 24.9967 324.734 24.92 325.234 24.92C325.741 24.92 326.184 24.9967 326.564 25.15C326.944 25.3033 327.241 25.5233 327.454 25.81C327.668 26.09 327.774 26.4267 327.774 26.82C327.774 27.1933 327.674 27.5167 327.474 27.79C327.274 28.0567 326.984 28.2633 326.604 28.41C326.224 28.55 325.768 28.62 325.234 28.62ZM325.234 27.98C325.721 27.98 326.101 27.88 326.374 27.68C326.654 27.48 326.794 27.2067 326.794 26.86C326.794 26.5067 326.651 26.23 326.364 26.03C326.078 25.83 325.701 25.73 325.234 25.73C324.768 25.73 324.394 25.83 324.114 26.03C323.841 26.23 323.704 26.5067 323.704 26.86C323.704 27.2067 323.838 27.48 324.104 27.68C324.378 27.88 324.754 27.98 325.234 27.98ZM331.8 32.08C331.253 32.08 330.763 31.94 330.33 31.66C329.903 31.38 329.563 30.9733 329.31 30.44C329.063 29.9067 328.94 29.26 328.94 28.5C328.94 27.74 329.063 27.0933 329.31 26.56C329.563 26.0267 329.903 25.62 330.33 25.34C330.763 25.06 331.253 24.92 331.8 24.92C332.34 24.92 332.827 25.06 333.26 25.34C333.693 25.62 334.033 26.0267 334.28 26.56C334.527 27.0933 334.65 27.74 334.65 28.5C334.65 29.26 334.527 29.9067 334.28 30.44C334.033 30.9733 333.693 31.38 333.26 31.66C332.827 31.94 332.34 32.08 331.8 32.08ZM331.8 31.19C332.167 31.19 332.487 31.09 332.76 30.89C333.04 30.69 333.257 30.39 333.41 29.99C333.57 29.59 333.65 29.0933 333.65 28.5C333.65 27.9067 333.57 27.41 333.41 27.01C333.257 26.61 333.04 26.31 332.76 26.11C332.487 25.91 332.167 25.81 331.8 25.81C331.433 25.81 331.11 25.91 330.83 26.11C330.55 26.31 330.33 26.61 330.17 27.01C330.017 27.41 329.94 27.9067 329.94 28.5C329.94 29.0933 330.017 29.59 330.17 29.99C330.33 30.39 330.55 30.69 330.83 30.89C331.11 31.09 331.433 31.19 331.8 31.19ZM336.18 32V25H338.91C339.523 25 340.047 25.0967 340.48 25.29C340.913 25.4833 341.247 25.7633 341.48 26.13C341.713 26.4967 341.83 26.9333 341.83 27.44C341.83 27.9467 341.713 28.3833 341.48 28.75C341.247 29.11 340.913 29.39 340.48 29.59C340.047 29.7833 339.523 29.88 338.91 29.88H336.73L337.18 29.41V32H336.18ZM337.18 29.51L336.73 29.01H338.88C339.52 29.01 340.003 28.8733 340.33 28.6C340.663 28.3267 340.83 27.94 340.83 27.44C340.83 26.94 340.663 26.5533 340.33 26.28C340.003 26.0067 339.52 25.87 338.88 25.87H336.73L337.18 25.37V29.51Z" fill="white"/>
<path d="M347.916 30.376C347.718 30.6728 347.282 30.6728 347.084 30.376L345.018 27.2774C344.797 26.9451 345.035 26.5 345.434 26.5L349.566 26.5C349.965 26.5 350.203 26.9451 349.982 27.2773L347.916 30.376Z" fill="white"/>
<rect x="121" y="61" width="134" height="5" rx="2.5" fill="white"/>
<defs>
<linearGradient id="paint0_linear_1286_33297" x1="143.797" y1="24.2114" x2="146.877" y2="28.3783" gradientUnits="userSpaceOnUse">
<stop stop-color="#FEE4C2"/>
<stop offset="1" stop-color="#EBC793"/>
</linearGradient>
<linearGradient id="paint1_linear_1286_33297" x1="147.001" y1="36.09" x2="138.494" y2="19.0755" gradientUnits="userSpaceOnUse">
<stop stop-color="#E2BA7E"/>
<stop offset="1" stop-color="#EECC9A"/>
</linearGradient>
</defs>
</svg>
