<svg width="62" height="38" viewBox="0 0 62 38" fill="none" xmlns="http://www.w3.org/2000/svg">
<path d="M0 4C0 1.79086 1.79086 0 4 0H58C60.2091 0 62 1.79086 62 4V34C62 36.2091 60.2091 38 58 38H4C1.79086 38 0 36.2091 0 34V4Z" fill="#23252A"/>
<g filter="url(#filter0_d_1601_35090)">
<path d="M27.1789 24V15.55L27.9199 16.317H25.2549V14.9H28.8689V24H27.1789ZM34.4701 24.13C33.7507 24.13 33.1007 23.948 32.5201 23.584C31.9481 23.22 31.4974 22.6913 31.1681 21.998C30.8387 21.296 30.6741 20.4467 30.6741 19.45C30.6741 18.4533 30.8387 17.6083 31.1681 16.915C31.4974 16.213 31.9481 15.68 32.5201 15.316C33.1007 14.952 33.7507 14.77 34.4701 14.77C35.1981 14.77 35.8481 14.952 36.4201 15.316C36.9921 15.68 37.4427 16.213 37.7721 16.915C38.1101 17.6083 38.2791 18.4533 38.2791 19.45C38.2791 20.4467 38.1101 21.296 37.7721 21.998C37.4427 22.6913 36.9921 23.22 36.4201 23.584C35.8481 23.948 35.1981 24.13 34.4701 24.13ZM34.4701 22.661C34.8947 22.661 35.2631 22.5483 35.5751 22.323C35.8871 22.089 36.1297 21.7337 36.3031 21.257C36.4851 20.7803 36.5761 20.178 36.5761 19.45C36.5761 18.7133 36.4851 18.111 36.3031 17.643C36.1297 17.1663 35.8871 16.8153 35.5751 16.59C35.2631 16.356 34.8947 16.239 34.4701 16.239C34.0627 16.239 33.6987 16.356 33.3781 16.59C33.0661 16.8153 32.8191 17.1663 32.6371 17.643C32.4637 18.111 32.3771 18.7133 32.3771 19.45C32.3771 20.178 32.4637 20.7803 32.6371 21.257C32.8191 21.7337 33.0661 22.089 33.3781 22.323C33.6987 22.5483 34.0627 22.661 34.4701 22.661Z" fill="white"/>
</g>
<path d="M48 0H58C60.2091 0 62 1.79086 62 4V14H52C49.7909 14 48 12.2091 48 10V0Z" fill="#FC6F03"/>
<path d="M56.8431 5.9366V5.04202C56.8431 3.99494 55.994 3.14577 54.9469 3.14577C53.8998 3.14119 53.0473 3.98619 53.0427 5.03369V5.04202V5.9366" stroke="white" stroke-width="0.75" stroke-linecap="round" stroke-linejoin="round"/>
<path fill-rule="evenodd" clip-rule="evenodd" d="M56.5347 10.8541H53.351C52.4785 10.8541 51.771 10.147 51.771 9.27407V7.48698C51.771 6.61407 52.4785 5.90698 53.351 5.90698H56.5347C57.4072 5.90698 58.1147 6.61407 58.1147 7.48698V9.27407C58.1147 10.147 57.4072 10.8541 56.5347 10.8541Z" stroke="white" stroke-width="0.75" stroke-linecap="round" stroke-linejoin="round"/>
<path d="M54.943 7.91772V8.84314" stroke="white" stroke-width="0.75" stroke-linecap="round" stroke-linejoin="round"/>
<defs>
<filter id="filter0_d_1601_35090" x="23.2549" y="14.77" width="17.0242" height="13.3599" filterUnits="userSpaceOnUse" color-interpolation-filters="sRGB">
<feFlood flood-opacity="0" result="BackgroundImageFix"/>
<feColorMatrix in="SourceAlpha" type="matrix" values="0 0 0 0 0 0 0 0 0 0 0 0 0 0 0 0 0 0 127 0" result="hardAlpha"/>
<feOffset dy="2"/>
<feGaussianBlur stdDeviation="1"/>
<feColorMatrix type="matrix" values="0 0 0 0 0 0 0 0 0 0 0 0 0 0 0 0 0 0 0.12 0"/>
<feBlend mode="normal" in2="BackgroundImageFix" result="effect1_dropShadow_1601_35090"/>
<feBlend mode="normal" in="SourceGraphic" in2="effect1_dropShadow_1601_35090" result="shape"/>
</filter>
</defs>
</svg>
