<svg width="62" height="38" viewBox="0 0 62 38" fill="none" xmlns="http://www.w3.org/2000/svg">
<path d="M0 4C0 1.79086 1.79086 0 4 0H58C60.2091 0 62 1.79086 62 4V34C62 36.2091 60.2091 38 58 38H4C1.79086 38 0 36.2091 0 34V4Z" fill="#FC6F03"/>
<path d="M37 27C36.7348 27 36.4804 26.8946 36.2929 26.7071C36.1054 26.5196 36 26.2652 36 26V18C36 17.7348 36.1054 17.4804 36.2929 17.2929C36.4804 17.1054 36.7348 17 37 17C37.2652 17 37.5196 17.1054 37.7071 17.2929C37.8946 17.4804 38 17.7348 38 18V26C38 26.2652 37.8946 26.5196 37.7071 26.7071C37.5196 26.8946 37.2652 27 37 27ZM33 27C32.7348 27 32.4804 26.8946 32.2929 26.7071C32.1054 26.5196 32 26.2652 32 26V12C32 11.7348 32.1054 11.4804 32.2929 11.2929C32.4804 11.1054 32.7348 11 33 11C33.2652 11 33.5196 11.1054 33.7071 11.2929C33.8946 11.4804 34 11.7348 34 12V26C34 26.2652 33.8946 26.5196 33.7071 26.7071C33.5196 26.8946 33.2652 27 33 27ZM29 27C28.7348 27 28.4804 26.8946 28.2929 26.7071C28.1054 26.5196 28 26.2652 28 26V22C28 21.7348 28.1054 21.4804 28.2929 21.2929C28.4804 21.1054 28.7348 21 29 21C29.2652 21 29.5196 21.1054 29.7071 21.2929C29.8946 21.4804 30 21.7348 30 22V26C30 26.2652 29.8946 26.5196 29.7071 26.7071C29.5196 26.8946 29.2652 27 29 27ZM25 27C24.7348 27 24.4804 26.8946 24.2929 26.7071C24.1054 26.5196 24 26.2652 24 26V16C24 15.7348 24.1054 15.4804 24.2929 15.2929C24.4804 15.1054 24.7348 15 25 15C25.2652 15 25.5196 15.1054 25.7071 15.2929C25.8946 15.4804 26 15.7348 26 16V26C26 26.2652 25.8946 26.5196 25.7071 26.7071C25.5196 26.8946 25.2652 27 25 27Z" fill="white"/>
</svg>
