<svg width="18" height="17" viewBox="0 0 18 17" fill="none" xmlns="http://www.w3.org/2000/svg">
<g filter="url(#filter0_d_1286_33425)">
<mask id="path-1-inside-1_1286_33425" fill="white">
<path d="M2.45692 2.27882C4.14552 1.68434 5.97039 2.18137 7.13181 3.42643C7.4823 3.78667 7.77697 4.21198 7.99326 4.69526L10.4882 10.2684C10.5097 10.3164 10.5397 10.3588 10.5736 10.3975C10.6374 10.4481 10.7133 10.4835 10.7952 10.4999C10.9175 10.5243 11.0285 10.569 11.1291 10.6261C11.7711 10.8202 12.0531 11.5945 11.6567 12.1592L11.2264 12.7702C10.4743 13.8412 9.1845 14.4 7.88894 14.2149C7.1187 14.1048 6.42156 13.7411 5.89379 13.2005C5.57543 12.8915 5.31425 12.5203 5.1307 12.1016L1.64515 4.14878C1.32049 3.40799 1.69421 2.54772 2.45692 2.27882ZM9.65556 4.72606C10.8903 2.52942 13.5848 1.61984 15.8983 2.61863L16.1785 2.73985L16.0514 3.01806L13.316 8.96277C13.1005 9.43073 12.6319 9.73175 12.1167 9.73182C11.5965 9.73171 11.1241 9.42557 10.9115 8.95085L9.36443 5.49113L9.30283 5.35401L9.37636 5.22286L9.65556 4.72606Z"/>
</mask>
<path d="M2.45692 2.27882C4.14552 1.68434 5.97039 2.18137 7.13181 3.42643C7.4823 3.78667 7.77697 4.21198 7.99326 4.69526L10.4882 10.2684C10.5097 10.3164 10.5397 10.3588 10.5736 10.3975C10.6374 10.4481 10.7133 10.4835 10.7952 10.4999C10.9175 10.5243 11.0285 10.569 11.1291 10.6261C11.7711 10.8202 12.0531 11.5945 11.6567 12.1592L11.2264 12.7702C10.4743 13.8412 9.1845 14.4 7.88894 14.2149C7.1187 14.1048 6.42156 13.7411 5.89379 13.2005C5.57543 12.8915 5.31425 12.5203 5.1307 12.1016L1.64515 4.14878C1.32049 3.40799 1.69421 2.54772 2.45692 2.27882ZM9.65556 4.72606C10.8903 2.52942 13.5848 1.61984 15.8983 2.61863L16.1785 2.73985L16.0514 3.01806L13.316 8.96277C13.1005 9.43073 12.6319 9.73175 12.1167 9.73182C11.5965 9.73171 11.1241 9.42557 10.9115 8.95085L9.36443 5.49113L9.30283 5.35401L9.37636 5.22286L9.65556 4.72606Z" fill="url(#paint0_linear_1286_33425)"/>
<path d="M2.45692 2.27882L2.37237 2.03864L2.37226 2.03868L2.45692 2.27882ZM7.13181 3.42643L6.94558 3.60015L6.94931 3.60399L7.13181 3.42643ZM7.99326 4.69526L7.76085 4.79927L7.76086 4.7993L7.99326 4.69526ZM10.4882 10.2684L10.7206 10.1643L10.7206 10.1643L10.4882 10.2684ZM10.5736 10.3975L10.3822 10.5654L10.3974 10.5827L10.4154 10.597L10.5736 10.3975ZM10.7952 10.4999L10.7452 10.7495L10.7452 10.7495L10.7952 10.4999ZM11.1291 10.6261L11.0034 10.8475L11.0281 10.8615L11.0554 10.8698L11.1291 10.6261ZM11.6567 12.1592L11.8649 12.3058L11.8651 12.3055L11.6567 12.1592ZM11.2264 12.7702L11.0182 12.6237L11.0181 12.6239L11.2264 12.7702ZM7.88894 14.2149L7.85288 14.467L7.85293 14.467L7.88894 14.2149ZM5.89379 13.2005L6.07605 13.0225L6.07112 13.0178L5.89379 13.2005ZM5.1307 12.1016L4.89749 12.2038L4.89749 12.2038L5.1307 12.1016ZM1.64515 4.14878L1.41194 4.25099L1.41194 4.25099L1.64515 4.14878ZM9.65556 4.72606L9.43359 4.60129L9.43358 4.60131L9.65556 4.72606ZM15.8983 2.61863L15.9994 2.38494L15.9993 2.38486L15.8983 2.61863ZM16.1785 2.73985L16.4101 2.84572L16.5182 2.60935L16.2796 2.50616L16.1785 2.73985ZM16.0514 3.01806L16.2827 3.1245L16.2829 3.12392L16.0514 3.01806ZM13.316 8.96277L13.5473 9.06928L13.5473 9.06921L13.316 8.96277ZM12.1167 9.73182L12.1167 9.98644H12.1167L12.1167 9.73182ZM10.9115 8.95085L10.679 9.05479L10.6791 9.05493L10.9115 8.95085ZM9.36443 5.49113L9.59688 5.38719L9.5967 5.38678L9.36443 5.49113ZM9.30283 5.35401L9.08072 5.2295L9.018 5.34137L9.07057 5.45836L9.30283 5.35401ZM9.37636 5.22286L9.15438 5.09811L9.15425 5.09834L9.37636 5.22286ZM2.45692 2.27882L2.54148 2.519C4.13197 1.95906 5.85127 2.42696 6.94562 3.60012L7.13181 3.42643L7.31801 3.25274C6.08952 1.93578 4.15908 1.40962 2.37237 2.03864L2.45692 2.27882ZM7.13181 3.42643L6.94931 3.60399C7.2796 3.94348 7.55711 4.34405 7.76085 4.79927L7.99326 4.69526L8.22568 4.59124C7.99682 4.0799 7.685 3.62987 7.31432 3.24887L7.13181 3.42643ZM7.99326 4.69526L7.76086 4.7993L10.2558 10.3724L10.4882 10.2684L10.7206 10.1643L8.22567 4.59122L7.99326 4.69526ZM10.4882 10.2684L10.2558 10.3724C10.2905 10.45 10.3368 10.5137 10.3822 10.5654L10.5736 10.3975L10.7651 10.2297C10.7426 10.204 10.7289 10.1828 10.7206 10.1643L10.4882 10.2684ZM10.5736 10.3975L10.4154 10.597C10.5109 10.6728 10.6239 10.7252 10.7452 10.7495L10.7952 10.4999L10.8452 10.2502C10.8026 10.2417 10.7639 10.2234 10.7319 10.198L10.5736 10.3975ZM10.7952 10.4999L10.7452 10.7495C10.8377 10.7681 10.9234 10.8021 11.0034 10.8475L11.1291 10.6261L11.2548 10.4046C11.1336 10.3359 10.9972 10.2806 10.8452 10.2502L10.7952 10.4999ZM11.1291 10.6261L11.0554 10.8698C11.5341 11.0146 11.7434 11.5925 11.4483 12.0129L11.6567 12.1592L11.8651 12.3055C12.3628 11.5965 12.008 10.6259 11.2028 10.3823L11.1291 10.6261ZM11.6567 12.1592L11.4485 12.0126L11.0182 12.6237L11.2264 12.7702L11.4346 12.9168L11.8649 12.3058L11.6567 12.1592ZM11.2264 12.7702L11.0181 12.6239C10.3209 13.6165 9.12553 14.1344 7.92495 13.9629L7.88894 14.2149L7.85293 14.467C9.24347 14.6657 10.6277 14.0659 11.4348 12.9166L11.2264 12.7702ZM7.88894 14.2149L7.92499 13.9629C7.2115 13.8608 6.5654 13.5239 6.07599 13.0226L5.89379 13.2005L5.71159 13.3783C6.27772 13.9582 7.0259 14.3487 7.85288 14.467L7.88894 14.2149ZM5.89379 13.2005L6.07112 13.0178C5.77598 12.7313 5.53397 12.3873 5.36391 11.9993L5.1307 12.1016L4.89749 12.2038C5.09452 12.6533 5.37489 13.0517 5.71645 13.3832L5.89379 13.2005ZM5.1307 12.1016L5.36391 11.9993L1.87837 4.04656L1.64515 4.14878L1.41194 4.25099L4.89749 12.2038L5.1307 12.1016ZM1.64515 4.14878L1.87837 4.04657C1.61318 3.4415 1.91839 2.73868 2.54159 2.51896L2.45692 2.27882L2.37226 2.03868C1.47004 2.35677 1.02779 3.37449 1.41194 4.25099L1.64515 4.14878ZM9.65556 4.72606L9.87752 4.85083C11.0484 2.76781 13.6035 1.90527 15.7974 2.85241L15.8983 2.61863L15.9993 2.38486C13.5661 1.33441 10.7322 2.29102 9.43359 4.60129L9.65556 4.72606ZM15.8983 2.61863L15.7972 2.85233L16.0774 2.97355L16.1785 2.73985L16.2796 2.50616L15.9994 2.38494L15.8983 2.61863ZM16.1785 2.73985L15.947 2.63399L15.8198 2.9122L16.0514 3.01806L16.2829 3.12392L16.4101 2.84572L16.1785 2.73985ZM16.0514 3.01806L15.82 2.91162L13.0847 8.85633L13.316 8.96277L13.5473 9.06921L16.2827 3.1245L16.0514 3.01806ZM13.316 8.96277L13.0847 8.85626C12.9106 9.23423 12.5322 9.47714 12.1167 9.47719L12.1167 9.73182L12.1167 9.98644C12.7316 9.98637 13.2903 9.62724 13.5473 9.06928L13.316 8.96277ZM12.1167 9.73182L12.1168 9.47719C11.6969 9.4771 11.3155 9.22992 11.1439 8.84677L10.9115 8.95085L10.6791 9.05493C10.9327 9.62123 11.4961 9.98632 12.1167 9.98644L12.1167 9.73182ZM10.9115 8.95085L11.1439 8.84691L9.59688 5.38719L9.36443 5.49113L9.13198 5.59507L10.679 9.05479L10.9115 8.95085ZM9.36443 5.49113L9.5967 5.38678L9.53509 5.24966L9.30283 5.35401L9.07057 5.45836L9.13217 5.59548L9.36443 5.49113ZM9.30283 5.35401L9.52494 5.47853L9.59846 5.34737L9.37636 5.22286L9.15425 5.09834L9.08072 5.2295L9.30283 5.35401ZM9.37636 5.22286L9.59833 5.34761L9.87753 4.85081L9.65556 4.72606L9.43358 4.60131L9.15438 5.09811L9.37636 5.22286Z" fill="url(#paint1_linear_1286_33425)" mask="url(#path-1-inside-1_1286_33425)"/>
</g>
<mask id="mask0_1286_33425" style="mask-type:alpha" maskUnits="userSpaceOnUse" x="1" y="2" width="11" height="13">
<mask id="path-3-inside-2_1286_33425" fill="white">
<path d="M2.45692 2.27882C4.10623 1.69813 5.88521 2.15909 7.04934 3.34098C7.43723 3.71843 7.76081 4.17365 7.99426 4.69526L10.4892 10.2684C10.511 10.317 10.5421 10.3594 10.5766 10.3985C10.6399 10.4481 10.7143 10.4837 10.7952 10.4999C10.917 10.5242 11.0278 10.5683 11.1281 10.6251C11.7713 10.8184 12.0544 11.594 11.6577 12.1592L11.2274 12.7702C10.4754 13.8413 9.18549 14.3999 7.88993 14.2149C7.12441 14.1055 6.43129 13.7455 5.90472 13.2104C5.58155 12.8994 5.31628 12.525 5.1307 12.1016L1.64515 4.14878C1.32049 3.40799 1.69421 2.54772 2.45692 2.27882Z"/>
</mask>
<path d="M2.45692 2.27882C4.10623 1.69813 5.88521 2.15909 7.04934 3.34098C7.43723 3.71843 7.76081 4.17365 7.99426 4.69526L10.4892 10.2684C10.511 10.317 10.5421 10.3594 10.5766 10.3985C10.6399 10.4481 10.7143 10.4837 10.7952 10.4999C10.917 10.5242 11.0278 10.5683 11.1281 10.6251C11.7713 10.8184 12.0544 11.594 11.6577 12.1592L11.2274 12.7702C10.4754 13.8413 9.18549 14.3999 7.88993 14.2149C7.12441 14.1055 6.43129 13.7455 5.90472 13.2104C5.58155 12.8994 5.31628 12.525 5.1307 12.1016L1.64515 4.14878C1.32049 3.40799 1.69421 2.54772 2.45692 2.27882Z" fill="url(#paint2_linear_1286_33425)"/>
<path d="M2.45692 2.27882L2.37236 2.03865L2.37226 2.03868L2.45692 2.27882ZM7.04934 3.34098L6.8679 3.5197L6.87177 3.52347L7.04934 3.34098ZM7.99426 4.69526L7.76184 4.79927L7.76186 4.7993L7.99426 4.69526ZM10.4892 10.2684L10.2568 10.3724L10.2568 10.3725L10.4892 10.2684ZM10.5766 10.3985L10.3858 10.5671L10.4012 10.5845L10.4195 10.5989L10.5766 10.3985ZM10.7952 10.4999L10.7452 10.7495L10.7453 10.7495L10.7952 10.4999ZM11.1281 10.6251L11.0027 10.8467L11.0275 10.8607L11.0548 10.8689L11.1281 10.6251ZM11.6577 12.1592L11.8659 12.3058L11.8661 12.3055L11.6577 12.1592ZM11.2274 12.7702L11.0192 12.6237L11.019 12.6239L11.2274 12.7702ZM7.88993 14.2149L7.8539 14.467L7.85395 14.467L7.88993 14.2149ZM5.90472 13.2104L6.08627 13.0317L6.08128 13.0269L5.90472 13.2104ZM5.1307 12.1016L4.89749 12.2038L4.89749 12.2038L5.1307 12.1016ZM1.64515 4.14878L1.41194 4.25099L1.41194 4.25099L1.64515 4.14878ZM2.45692 2.27882L2.54149 2.519C4.09491 1.97206 5.77094 2.40593 6.86794 3.51966L7.04934 3.34098L7.23075 3.1623C5.99948 1.91224 4.11756 1.42419 2.37236 2.03865L2.45692 2.27882ZM7.04934 3.34098L6.87177 3.52347C7.23695 3.87882 7.54176 4.30752 7.76184 4.79927L7.99426 4.69526L8.22667 4.59124C7.97986 4.03978 7.63751 3.55804 7.22692 3.15849L7.04934 3.34098ZM7.99426 4.69526L7.76186 4.7993L10.2568 10.3724L10.4892 10.2684L10.7216 10.1643L8.22666 4.59122L7.99426 4.69526ZM10.4892 10.2684L10.2568 10.3725C10.2929 10.4529 10.3416 10.517 10.3858 10.5671L10.5766 10.3985L10.7675 10.2299C10.7426 10.2019 10.7291 10.1811 10.7215 10.1642L10.4892 10.2684ZM10.5766 10.3985L10.4195 10.5989C10.5125 10.6718 10.6232 10.7251 10.7452 10.7495L10.7952 10.4999L10.8452 10.2502C10.8053 10.2422 10.7673 10.2244 10.7337 10.1981L10.5766 10.3985ZM10.7952 10.4999L10.7453 10.7495C10.8378 10.7681 10.9234 10.8018 11.0027 10.8467L11.1281 10.6251L11.2535 10.4034C11.1323 10.3349 10.9962 10.2804 10.8452 10.2502L10.7952 10.4999ZM11.1281 10.6251L11.0548 10.8689C11.5344 11.0131 11.7446 11.5922 11.4493 12.0129L11.6577 12.1592L11.8661 12.3055C12.3642 11.5959 12.0081 10.6237 11.2014 10.3812L11.1281 10.6251ZM11.6577 12.1592L11.4495 12.0126L11.0192 12.6237L11.2274 12.7702L11.4356 12.9168L11.8659 12.3058L11.6577 12.1592ZM11.2274 12.7702L11.019 12.6239C10.3221 13.6166 9.12656 14.1342 7.92591 13.9629L7.88993 14.2149L7.85395 14.467C9.24442 14.6655 10.6288 14.066 11.4358 12.9166L11.2274 12.7702ZM7.88993 14.2149L7.92596 13.9629C7.2169 13.8615 6.57454 13.5281 6.08621 13.0318L5.90472 13.2104L5.72323 13.389C6.28805 13.963 7.03192 14.3495 7.8539 14.467L7.88993 14.2149ZM5.90472 13.2104L6.08128 13.0269C5.78154 12.7385 5.53579 12.3915 5.36391 11.9993L5.1307 12.1016L4.89749 12.2038C5.09678 12.6585 5.38155 13.0603 5.72816 13.3939L5.90472 13.2104ZM5.1307 12.1016L5.36391 11.9993L1.87837 4.04656L1.64515 4.14878L1.41194 4.25099L4.89749 12.2038L5.1307 12.1016ZM1.64515 4.14878L1.87837 4.04657C1.61318 3.4415 1.91839 2.73868 2.54159 2.51896L2.45692 2.27882L2.37226 2.03868C1.47004 2.35677 1.02779 3.37449 1.41194 4.25099L1.64515 4.14878Z" fill="url(#paint3_linear_1286_33425)" mask="url(#path-3-inside-2_1286_33425)"/>
</mask>
<g mask="url(#mask0_1286_33425)">
<path d="M10.1723 7.89748C12.0849 10.1824 11.9529 13.326 10.0282 14.9374C8.10313 16.5488 4.98474 16.1258 3.07206 13.8408C1.15966 11.5558 1.29262 8.41225 3.21757 6.80096C5.14255 5.18997 8.25968 5.61286 10.1723 7.89748Z" fill="url(#paint4_linear_1286_33425)" stroke="url(#paint5_linear_1286_33425)" stroke-width="0.8"/>
<g filter="url(#filter1_d_1286_33425)">
<mask id="path-6-inside-3_1286_33425" fill="white">
<path d="M2.45643 2.27907C4.10041 1.7002 5.8726 2.15689 7.03692 3.3303C7.42994 3.70996 7.75798 4.16869 7.99376 4.69551L10.4887 10.2686C10.5105 10.3172 10.5416 10.3597 10.5761 10.3988C10.6394 10.4484 10.7138 10.4839 10.7947 10.5001C10.9165 10.5245 11.0273 10.5686 11.1276 10.6253C11.771 10.8184 12.054 11.5942 11.6572 12.1594L11.2269 12.7705C10.4748 13.8415 9.185 14.4003 7.88943 14.2152C7.12392 14.1058 6.4308 13.7458 5.90422 13.2107C5.58102 12.8997 5.31578 12.5252 5.13021 12.1018L1.64466 4.14903C1.32005 3.40837 1.69398 2.54813 2.45643 2.27907ZM9.65605 4.72631C10.8909 2.52976 13.5853 1.62005 15.8988 2.61888L16.179 2.7401L16.0519 3.01831L13.3165 8.96302C13.1011 9.43119 12.6325 9.73195 12.1172 9.73206C11.5968 9.73206 11.1246 9.42604 10.912 8.95109L9.36493 5.49138L9.30333 5.35426L9.37685 5.22311L9.65605 4.72631Z"/>
</mask>
<path d="M2.45643 2.27907L2.37186 2.0389L2.37169 2.03895L2.45643 2.27907ZM7.03692 3.3303L6.85614 3.50969L6.86001 3.51343L7.03692 3.3303ZM7.99376 4.69551L7.76135 4.79952L7.76136 4.79955L7.99376 4.69551ZM10.4887 10.2686L10.2563 10.3726L10.2564 10.3728L10.4887 10.2686ZM10.5761 10.3988L10.3853 10.5673L10.4007 10.5848L10.4191 10.5992L10.5761 10.3988ZM10.7947 10.5001L10.7446 10.7498L10.7448 10.7498L10.7947 10.5001ZM11.1276 10.6253L11.0022 10.8469L11.027 10.861L11.0544 10.8692L11.1276 10.6253ZM11.6572 12.1594L11.8654 12.306L11.8656 12.3057L11.6572 12.1594ZM11.2269 12.7705L11.0187 12.6239L11.0186 12.6242L11.2269 12.7705ZM7.88943 14.2152L7.85341 14.4673L7.85342 14.4673L7.88943 14.2152ZM5.90422 13.2107L6.08578 13.032L6.08077 13.0272L5.90422 13.2107ZM5.13021 12.1018L4.89699 12.204L4.89699 12.204L5.13021 12.1018ZM1.64466 4.14903L1.41144 4.25124L1.41144 4.25124L1.64466 4.14903ZM9.65605 4.72631L9.43409 4.60153L9.43408 4.60156L9.65605 4.72631ZM15.8988 2.61888L15.9999 2.38519L15.9998 2.38511L15.8988 2.61888ZM16.179 2.7401L16.4106 2.84596L16.5187 2.6096L16.2801 2.5064L16.179 2.7401ZM16.0519 3.01831L16.2832 3.12475L16.2834 3.12417L16.0519 3.01831ZM13.3165 8.96302L13.0852 8.85658L13.0852 8.85659L13.3165 8.96302ZM12.1172 9.73206V9.98669H12.1173L12.1172 9.73206ZM10.912 8.95109L10.6795 9.05503L10.6796 9.05513L10.912 8.95109ZM9.36493 5.49138L9.59738 5.38744L9.59719 5.38703L9.36493 5.49138ZM9.30333 5.35426L9.08122 5.22975L9.0185 5.34162L9.07106 5.45861L9.30333 5.35426ZM9.37685 5.22311L9.15488 5.09836L9.15475 5.09859L9.37685 5.22311ZM2.45643 2.27907L2.541 2.51924C4.08932 1.97406 5.75893 2.40384 6.85618 3.50965L7.03692 3.3303L7.21767 3.15095C5.98626 1.90993 4.1115 1.42635 2.37186 2.0389L2.45643 2.27907ZM7.03692 3.3303L6.86001 3.51343C7.23014 3.87098 7.53913 4.303 7.76135 4.79952L7.99376 4.69551L8.22617 4.59149C7.97684 4.03439 7.62974 3.54894 7.21383 3.14716L7.03692 3.3303ZM7.99376 4.69551L7.76136 4.79955L10.2563 10.3726L10.4887 10.2686L10.7211 10.1646L8.22616 4.59146L7.99376 4.69551ZM10.4887 10.2686L10.2564 10.3728C10.2924 10.4531 10.341 10.5173 10.3853 10.5673L10.5761 10.3988L10.767 10.2302C10.7422 10.2021 10.7286 10.1813 10.721 10.1644L10.4887 10.2686ZM10.5761 10.3988L10.4191 10.5992C10.5121 10.6721 10.6228 10.7253 10.7446 10.7498L10.7947 10.5001L10.8449 10.2505C10.8048 10.2424 10.7667 10.2246 10.7332 10.1984L10.5761 10.3988ZM10.7947 10.5001L10.7448 10.7498C10.8373 10.7683 10.9228 10.802 11.0022 10.8469L11.1276 10.6253L11.2529 10.4037C11.1318 10.3352 10.9957 10.2806 10.8447 10.2504L10.7947 10.5001ZM11.1276 10.6253L11.0544 10.8692C11.5341 11.0132 11.7443 11.5922 11.4488 12.0131L11.6572 12.1594L11.8656 12.3057C12.3638 11.5961 12.0079 10.6237 11.2008 10.3814L11.1276 10.6253ZM11.6572 12.1594L11.449 12.0128L11.0187 12.6239L11.2269 12.7705L11.4351 12.9171L11.8654 12.306L11.6572 12.1594ZM11.2269 12.7705L11.0186 12.6242C10.3214 13.6168 9.12603 14.1346 7.92544 13.9631L7.88943 14.2152L7.85342 14.4673C9.24397 14.6659 10.6282 14.0661 11.4353 12.9168L11.2269 12.7705ZM7.88943 14.2152L7.92546 13.9631C7.21641 13.8618 6.57404 13.5283 6.08571 13.0321L5.90422 13.2107L5.72273 13.3893C6.28756 13.9632 7.03143 14.3498 7.85341 14.4673L7.88943 14.2152ZM5.90422 13.2107L6.08077 13.0272C5.78102 12.7388 5.53529 12.3917 5.36342 11.9996L5.13021 12.1018L4.89699 12.204C5.09627 12.6587 5.38101 13.0606 5.72767 13.3941L5.90422 13.2107ZM5.13021 12.1018L5.36342 11.9996L1.87787 4.04681L1.64466 4.14903L1.41144 4.25124L4.89699 12.204L5.13021 12.1018ZM1.64466 4.14903L1.87787 4.04681C1.61277 3.44195 1.91808 2.73906 2.54116 2.51919L2.45643 2.27907L2.37169 2.03895C1.46988 2.3572 1.02732 3.37479 1.41144 4.25124L1.64466 4.14903ZM9.65605 4.72631L9.87801 4.85109C11.049 2.76814 13.6041 1.90549 15.7979 2.85265L15.8988 2.61888L15.9998 2.38511C13.5666 1.33461 10.7328 2.29138 9.43409 4.60153L9.65605 4.72631ZM15.8988 2.61888L15.7977 2.85258L16.0779 2.9738L16.179 2.7401L16.2801 2.5064L15.9999 2.38519L15.8988 2.61888ZM16.179 2.7401L15.9475 2.63424L15.8203 2.91244L16.0519 3.01831L16.2834 3.12417L16.4106 2.84596L16.179 2.7401ZM16.0519 3.01831L15.8205 2.91187L13.0852 8.85658L13.3165 8.96302L13.5478 9.06945L16.2832 3.12475L16.0519 3.01831ZM13.3165 8.96302L13.0852 8.85659C12.9112 9.23461 12.5329 9.47734 12.1171 9.47744L12.1172 9.73206L12.1173 9.98669C12.7322 9.98655 13.2909 9.62777 13.5478 9.06944L13.3165 8.96302ZM12.1172 9.73206V9.47744C11.6972 9.47744 11.316 9.23039 11.1444 8.84706L10.912 8.95109L10.6796 9.05513C10.9332 9.62169 11.4964 9.98669 12.1172 9.98669V9.73206ZM10.912 8.95109L11.1444 8.84715L9.59738 5.38744L9.36493 5.49138L9.13248 5.59532L10.6795 9.05503L10.912 8.95109ZM9.36493 5.49138L9.59719 5.38703L9.53559 5.24991L9.30333 5.35426L9.07106 5.45861L9.13267 5.59573L9.36493 5.49138ZM9.30333 5.35426L9.52543 5.47878L9.59896 5.34762L9.37685 5.22311L9.15475 5.09859L9.08122 5.22975L9.30333 5.35426ZM9.37685 5.22311L9.59883 5.34786L9.87803 4.85106L9.65605 4.72631L9.43408 4.60156L9.15488 5.09836L9.37685 5.22311Z" fill="url(#paint6_linear_1286_33425)" mask="url(#path-6-inside-3_1286_33425)"/>
</g>
</g>
<defs>
<filter id="filter0_d_1286_33425" x="1.64953e-05" y="1.72313" width="17.7063" height="15.2768" filterUnits="userSpaceOnUse" color-interpolation-filters="sRGB">
<feFlood flood-opacity="0" result="BackgroundImageFix"/>
<feColorMatrix in="SourceAlpha" type="matrix" values="0 0 0 0 0 0 0 0 0 0 0 0 0 0 0 0 0 0 127 0" result="hardAlpha"/>
<feOffset dy="1.20126"/>
<feGaussianBlur stdDeviation="0.750785"/>
<feComposite in2="hardAlpha" operator="out"/>
<feColorMatrix type="matrix" values="0 0 0 0 1 0 0 0 0 0.869904 0 0 0 0 0.609713 0 0 0 0.23 0"/>
<feBlend mode="normal" in2="BackgroundImageFix" result="effect1_dropShadow_1286_33425"/>
<feBlend mode="normal" in="SourceGraphic" in2="effect1_dropShadow_1286_33425" result="shape"/>
</filter>
<filter id="filter1_d_1286_33425" x="-0.000480305" y="1.72338" width="17.7073" height="15.2768" filterUnits="userSpaceOnUse" color-interpolation-filters="sRGB">
<feFlood flood-opacity="0" result="BackgroundImageFix"/>
<feColorMatrix in="SourceAlpha" type="matrix" values="0 0 0 0 0 0 0 0 0 0 0 0 0 0 0 0 0 0 127 0" result="hardAlpha"/>
<feOffset dy="1.20126"/>
<feGaussianBlur stdDeviation="0.750785"/>
<feComposite in2="hardAlpha" operator="out"/>
<feColorMatrix type="matrix" values="0 0 0 0 1 0 0 0 0 0.869904 0 0 0 0 0.609713 0 0 0 0.23 0"/>
<feBlend mode="normal" in2="BackgroundImageFix" result="effect1_dropShadow_1286_33425"/>
<feBlend mode="normal" in="SourceGraphic" in2="effect1_dropShadow_1286_33425" result="shape"/>
</filter>
<linearGradient id="paint0_linear_1286_33425" x1="7.22514" y1="2.84876" x2="7.22514" y2="7.73258" gradientUnits="userSpaceOnUse">
<stop stop-color="#652100"/>
<stop offset="1" stop-color="#E2A366"/>
</linearGradient>
<linearGradient id="paint1_linear_1286_33425" x1="8.85331" y1="2.02843" x2="8.85331" y2="14.2498" gradientUnits="userSpaceOnUse">
<stop stop-color="#FFFCF6"/>
<stop offset="1" stop-color="#DE8320"/>
</linearGradient>
<linearGradient id="paint2_linear_1286_33425" x1="1.69836" y1="8.54646" x2="11.841" y2="8.52863" gradientUnits="userSpaceOnUse">
<stop stop-color="#BE6102"/>
<stop offset="1" stop-color="#652100"/>
</linearGradient>
<linearGradient id="paint3_linear_1286_33425" x1="6.68413" y1="2.02843" x2="6.68413" y2="14.2497" gradientUnits="userSpaceOnUse">
<stop stop-color="#FFFCF6"/>
<stop offset="1" stop-color="#DE8320"/>
</linearGradient>
<linearGradient id="paint4_linear_1286_33425" x1="6.41123" y1="13.8372" x2="8.61244" y2="7.79311" gradientUnits="userSpaceOnUse">
<stop stop-color="#D06900"/>
<stop offset="1" stop-color="#652100"/>
</linearGradient>
<linearGradient id="paint5_linear_1286_33425" x1="7.22519" y1="4.47671" x2="4.37634" y2="7.73254" gradientUnits="userSpaceOnUse">
<stop stop-color="#AD6C3A"/>
<stop offset="1" stop-color="#FFEEDA"/>
</linearGradient>
<linearGradient id="paint6_linear_1286_33425" x1="1.52718" y1="2.84895" x2="12.5162" y2="11.802" gradientUnits="userSpaceOnUse">
<stop stop-color="#FFFCF6"/>
<stop offset="0.656599" stop-color="#DE8320"/>
<stop offset="1" stop-color="white"/>
</linearGradient>
</defs>
</svg>
