<svg width="32" height="32" viewBox="0 0 32 32" fill="none" xmlns="http://www.w3.org/2000/svg">
<path d="M27.7438 13.6512L19.2028 4.25623C18.8612 3.91459 18.3488 3.91459 18.0071 4.25623C17.6655 4.59786 17.6655 4.76868 17.6655 5.11032V10.0641C10.6619 10.0641 4 15.8719 4 22.8754C4 24.7544 4.85409 27.1459 5.70818 28C6.7331 22.7046 12.0285 18.605 17.6655 18.605C17.6655 19.1174 17.6655 23.7295 17.6655 23.7295C17.6655 23.9004 17.6655 24.0712 17.8363 24.4128C18.1779 24.7544 18.8612 24.5836 19.032 24.4128L27.573 15.1886C27.9146 14.847 27.9146 14.5053 27.9146 14.3345C27.9146 14.1637 27.9146 13.8221 27.7438 13.6512Z" fill="white"/>
</svg>
