<svg width="24" height="24" viewBox="0 0 24 24" fill="none" xmlns="http://www.w3.org/2000/svg">
<circle cx="12" cy="13" r="2" stroke="white" stroke-width="2"/>
<path d="M13 12.5L20.5 5" stroke="white" stroke-width="2"/>
<path d="M5.28198 6.28247C8.99192 2.57254 15.0075 2.57263 18.7175 6.28247C18.9002 6.4651 19.0714 6.65562 19.2361 6.84888L17.8181 8.26685C17.6579 8.07041 17.4866 7.87963 17.3035 7.69653C14.3747 4.76787 9.62594 4.76804 6.69702 7.69653C3.76809 10.6255 3.76809 15.375 6.69702 18.304L5.28198 19.718C1.57217 16.0081 1.57214 9.99241 5.28198 6.28247ZM20.3835 8.52954C22.3014 12.1228 21.7469 16.6887 18.7175 19.718L17.3035 18.304C19.5412 16.0662 20.0671 12.7667 18.8855 10.0276L20.3835 8.52954Z" fill="white"/>
</svg>
