<svg width="24" height="24" viewBox="0 0 24 24" fill="none" xmlns="http://www.w3.org/2000/svg">
<path d="M23.7438 9.65125L15.2028 0.256228C14.8612 -0.0854093 14.3488 -0.0854093 14.0071 0.256228C13.6655 0.597865 13.6655 0.768683 13.6655 1.11032V6.06406C6.66192 6.06406 0 11.8719 0 18.8754C0 20.7544 0.854092 23.1459 1.70818 24C2.7331 18.7046 8.02847 14.605 13.6655 14.605C13.6655 15.1174 13.6655 19.7295 13.6655 19.7295C13.6655 19.9004 13.6655 20.0712 13.8363 20.4128C14.1779 20.7544 14.8612 20.5836 15.032 20.4128L23.573 11.1886C23.9146 10.847 23.9146 10.5053 23.9146 10.3345C23.9146 10.1637 23.9146 9.82206 23.7438 9.65125Z" fill="white"/>
</svg>
