<svg width="24" height="24" viewBox="0 0 24 24" fill="none" xmlns="http://www.w3.org/2000/svg">
<path d="M8.57886 8.33936C9.41547 8.0449 10.3165 8.27737 10.9089 8.87451C11.1102 9.06822 11.2786 9.30242 11.3992 9.57178L12.7615 12.6157C12.776 12.648 12.794 12.6781 12.8152 12.7056C12.8773 12.7694 12.9559 12.8165 13.0457 12.8345C13.1008 12.8455 13.1491 12.8686 13.1931 12.896C13.4525 12.9605 13.5706 13.2659 13.4148 13.4878L13.1804 13.8218C12.805 14.3565 12.1602 14.6349 11.5134 14.5425C11.1295 14.4875 10.7826 14.3058 10.5193 14.0366C10.3584 13.8816 10.226 13.6949 10.1335 13.4839L8.23022 9.14111C8.09097 8.82337 8.25163 8.45458 8.57886 8.33936ZM12.5964 9.60205C13.2297 8.47524 14.6119 8.00889 15.7986 8.521L14.3054 11.7681C14.2143 11.9657 14.0162 12.0923 13.7986 12.0923C13.5787 12.0922 13.3796 11.9629 13.2898 11.7622L12.4441 9.87354L12.5964 9.60205Z" fill="url(#paint0_linear_1286_33303)"/>
<path d="M7.05957 5.00024H15.4473C16.4961 5.00033 17.4808 5.5061 18.0918 6.35864L20.8721 10.2385C20.9915 10.4052 20.9726 10.6341 20.8271 10.7786L12.2412 19.2922C12.0774 19.4546 11.8129 19.4539 11.6504 19.2903L3.19336 10.7766C3.05064 10.6328 3.03167 10.4071 3.14844 10.2415L6.71777 5.177C6.79604 5.06602 6.92376 5.00027 7.05957 5.00024Z" stroke="url(#paint1_linear_1286_33303)" stroke-width="2" stroke-linecap="round"/>
<defs>
<linearGradient id="paint0_linear_1286_33303" x1="8.79694" y1="8.21143" x2="11.8766" y2="12.3783" gradientUnits="userSpaceOnUse">
<stop stop-color="#FEE4C2"/>
<stop offset="1" stop-color="#EBC793"/>
</linearGradient>
<linearGradient id="paint1_linear_1286_33303" x1="12.0008" y1="20.09" x2="3.49354" y2="3.07554" gradientUnits="userSpaceOnUse">
<stop stop-color="#E2BA7E"/>
<stop offset="1" stop-color="#EECC9A"/>
</linearGradient>
</defs>
</svg>
