<svg width="32" height="32" viewBox="0 0 32 32" fill="none" xmlns="http://www.w3.org/2000/svg">
<g clip-path="url(#clip0_3528_28993)">
<circle cx="16" cy="16" r="16" fill="#191B21"/>
<circle cx="16" cy="16" r="15.8333" stroke="white" stroke-opacity="0.1" stroke-width="0.333333"/>
<g clip-path="url(#clip1_3528_28993)">
<mask id="mask0_3528_28993" style="mask-type:alpha" maskUnits="userSpaceOnUse" x="-1" y="5" width="33" height="26">
<path d="M-0.359863 5.49365H31.678V30.0333H-0.359863V5.49365Z" fill="url(#paint0_radial_3528_28993)"/>
</mask>
<g mask="url(#mask0_3528_28993)">
<path d="M23.3999 12.3659H18.1202C18.1202 10.5996 17.2188 9.3367 15.416 8.57734C13.9351 7.95004 12.0786 7.73543 9.84658 7.93353C11.4133 6.77797 13.2698 6.2002 15.416 6.2002C17.6051 6.2002 19.4831 6.80273 21.0498 8.00781C22.6165 9.21289 23.3999 10.6656 23.3999 12.3659ZM22.1444 24.1526C20.2128 24.5653 18.3563 24.5075 16.575 23.9792C17.6051 23.1208 18.0236 22.2542 17.8305 21.3792C17.5729 20.1907 16.1886 19.1754 13.6776 18.3335C11.1021 17.4586 9.33149 16.4186 8.3657 15.2135C7.72183 14.4211 7.3999 13.4719 7.3999 12.3659C7.3999 11.1773 7.81841 10.0713 8.65544 9.04781C10.6085 8.63512 12.465 8.70115 14.2249 9.24591C13.1947 10.0878 12.7762 10.9545 12.9693 11.8459C13.2269 13.018 14.6112 14.025 17.1222 14.8669C19.7192 15.7418 21.5005 16.7818 22.4663 17.9869C23.0887 18.7627 23.3999 19.7202 23.3999 20.8592C23.3999 22.0313 22.9814 23.1291 22.1444 24.1526ZM7.3999 20.8592H12.6796C12.6796 22.6091 13.581 23.8637 15.3838 24.6231C16.8862 25.2504 18.7426 25.465 20.9532 25.2669C19.408 26.4224 17.5622 27.0002 15.416 27.0002C13.2054 27.0002 11.3167 26.3977 9.75 25.1926C8.18327 23.9875 7.3999 22.5431 7.3999 20.8592Z" fill="url(#paint1_linear_3528_28993)"/>
</g>
</g>
</g>
<defs>
<radialGradient id="paint0_radial_3528_28993" cx="0" cy="0" r="1" gradientUnits="userSpaceOnUse" gradientTransform="translate(15.9998 15.3848) rotate(90) scale(15.6923 15.3292)">
<stop offset="0.609249" stop-color="#737373"/>
<stop offset="1" stop-color="#D9D9D9" stop-opacity="0"/>
</radialGradient>
<linearGradient id="paint1_linear_3528_28993" x1="15.3999" y1="27.0002" x2="15.3999" y2="6.2002" gradientUnits="userSpaceOnUse">
<stop stop-color="#F6610F"/>
<stop offset="1" stop-color="#F6610F" stop-opacity="0.5"/>
</linearGradient>
<clipPath id="clip0_3528_28993">
<rect width="32" height="32" fill="white"/>
</clipPath>
<clipPath id="clip1_3528_28993">
<rect width="29.5385" height="29.5385" fill="white" transform="matrix(-1 0 0 1 30.7692 3.84619)"/>
</clipPath>
</defs>
</svg>
