<svg width="375" height="48" viewBox="0 0 375 48" fill="none" xmlns="http://www.w3.org/2000/svg">
<path d="M32 23H19.83L25.42 17.41L24 16L16 24L24 32L25.41 30.59L19.83 25H32V23Z" fill="white"/>
<g clip-path="url(#clip0_3528_28979)">
<circle cx="72" cy="24" r="20" fill="#191B21"/>
<circle cx="72" cy="24" r="19.7917" stroke="white" stroke-opacity="0.1" stroke-width="0.416667"/>
<g clip-path="url(#clip1_3528_28979)">
<mask id="mask0_3528_28979" style="mask-type:alpha" maskUnits="userSpaceOnUse" x="51" y="10" width="41" height="32">
<path d="M51.5503 10.8667H91.5976V41.5413H51.5503V10.8667Z" fill="url(#paint0_radial_3528_28979)"/>
</mask>
<g mask="url(#mask0_3528_28979)">
<path d="M82 18.7071H75.4004C75.4004 16.4992 74.2736 14.9206 72.0201 13.9714C70.169 13.1873 67.8484 12.919 65.0584 13.1667C67.0168 11.7222 69.3374 11 72.0201 11C74.7565 11 77.104 11.7532 79.0624 13.2595C81.0208 14.7659 82 16.5817 82 18.7071ZM80.4306 33.4405C78.0161 33.9563 75.6955 33.8841 73.4688 33.2238C74.7565 32.1508 75.2797 31.0675 75.0382 29.9738C74.7163 28.4881 72.9859 27.219 69.8471 26.1667C66.6278 25.073 64.4145 23.773 63.2072 22.2667C62.4024 21.2762 62 20.0897 62 18.7071C62 17.2214 62.5231 15.8389 63.5694 14.5595C66.0107 14.0436 68.3313 14.1262 70.5312 14.8071C69.2435 15.8595 68.7203 16.9429 68.9618 18.0571C69.2837 19.5222 71.0141 20.781 74.1529 21.8333C77.3991 22.927 79.6258 24.227 80.833 25.7333C81.611 26.7032 82 27.9 82 29.3238C82 30.7889 81.4769 32.1611 80.4306 33.4405ZM62 29.3238H68.5996C68.5996 31.5111 69.7264 33.0794 71.9799 34.0286C73.8578 34.8127 76.1784 35.0809 78.9417 34.8333C77.0101 36.2778 74.7029 37 72.0201 37C69.2569 37 66.896 36.2468 64.9376 34.7405C62.9792 33.2341 62 31.4286 62 29.3238Z" fill="url(#paint1_linear_3528_28979)"/>
</g>
</g>
</g>
<path d="M101.366 23V13.2H102.864L107.148 20.354H106.364L110.578 13.2H112.076L112.09 23H110.368L110.354 15.902H110.718L107.134 21.88H106.322L102.682 15.902H103.102V23H101.366ZM119.175 23V21.488L119.077 21.166V18.52C119.077 18.0067 118.923 17.61 118.615 17.33C118.307 17.0407 117.84 16.896 117.215 16.896C116.795 16.896 116.38 16.9613 115.969 17.092C115.568 17.2227 115.227 17.4047 114.947 17.638L114.261 16.364C114.662 16.056 115.138 15.8273 115.689 15.678C116.249 15.5193 116.828 15.44 117.425 15.44C118.508 15.44 119.343 15.7013 119.931 16.224C120.528 16.7373 120.827 17.5353 120.827 18.618V23H119.175ZM116.823 23.098C116.263 23.098 115.773 23.0047 115.353 22.818C114.933 22.622 114.606 22.356 114.373 22.02C114.149 21.6747 114.037 21.2873 114.037 20.858C114.037 20.438 114.135 20.06 114.331 19.724C114.536 19.388 114.868 19.122 115.325 18.926C115.782 18.73 116.389 18.632 117.145 18.632H119.315V19.794H117.271C116.674 19.794 116.272 19.892 116.067 20.088C115.862 20.2747 115.759 20.508 115.759 20.788C115.759 21.1053 115.885 21.3573 116.137 21.544C116.389 21.7307 116.739 21.824 117.187 21.824C117.616 21.824 117.999 21.726 118.335 21.53C118.68 21.334 118.928 21.0447 119.077 20.662L119.371 21.712C119.203 22.1507 118.9 22.4913 118.461 22.734C118.032 22.9767 117.486 23.098 116.823 23.098ZM122.051 23L125.341 18.716L125.313 19.654L122.177 15.524H124.123L126.321 18.464H125.579L127.791 15.524H129.681L126.517 19.654L126.531 18.716L129.807 23H127.833L125.523 19.878L126.251 19.976L123.983 23H122.051Z" fill="white"/>
<path d="M104.569 40.08C102.449 40.08 100.869 38.57 100.869 36.5C100.869 34.43 102.449 32.92 104.579 32.92C105.659 32.92 106.599 33.29 107.239 34.01L106.589 34.64C106.049 34.07 105.389 33.81 104.619 33.81C103.039 33.81 101.869 34.95 101.869 36.5C101.869 38.05 103.039 39.19 104.619 39.19C105.389 39.19 106.049 38.92 106.589 38.35L107.239 38.98C106.599 39.7 105.659 40.08 104.569 40.08ZM112.339 34.7H113.299V40H112.389V39.2C111.999 39.75 111.339 40.06 110.589 40.06C109.219 40.06 108.309 39.31 108.309 37.75V34.7H109.269V37.64C109.269 38.68 109.789 39.2 110.699 39.2C111.699 39.2 112.339 38.58 112.339 37.44V34.7ZM116.647 40.06C115.767 40.06 114.897 39.79 114.457 39.44L114.857 38.68C115.307 39 116.027 39.23 116.717 39.23C117.607 39.23 117.977 38.96 117.977 38.51C117.977 37.32 114.627 38.35 114.627 36.24C114.627 35.29 115.477 34.65 116.837 34.65C117.527 34.65 118.307 34.83 118.767 35.13L118.357 35.89C117.877 35.58 117.347 35.47 116.827 35.47C115.987 35.47 115.577 35.78 115.577 36.2C115.577 37.45 118.937 36.43 118.937 38.49C118.937 39.45 118.057 40.06 116.647 40.06ZM122.817 39L123.117 39.69C122.827 39.94 122.387 40.06 121.957 40.06C120.887 40.06 120.277 39.47 120.277 38.4V35.49H119.377V34.7H120.277V33.54H121.237V34.7H122.757V35.49H121.237V38.36C121.237 38.93 121.537 39.25 122.067 39.25C122.347 39.25 122.617 39.16 122.817 39ZM126.371 40.06C124.781 40.06 123.611 38.93 123.611 37.35C123.611 35.77 124.781 34.65 126.371 34.65C127.961 34.65 129.121 35.77 129.121 37.35C129.121 38.93 127.961 40.06 126.371 40.06ZM126.371 39.22C127.391 39.22 128.151 38.48 128.151 37.35C128.151 36.22 127.391 35.49 126.371 35.49C125.351 35.49 124.581 36.22 124.581 37.35C124.581 38.48 125.351 39.22 126.371 39.22ZM137.079 34.65C138.369 34.65 139.249 35.39 139.249 36.95V40H138.289V37.06C138.289 36.02 137.789 35.51 136.919 35.51C135.959 35.51 135.329 36.12 135.329 37.27V40H134.369V37.06C134.369 36.02 133.869 35.51 132.999 35.51C132.039 35.51 131.409 36.12 131.409 37.27V40H130.449V34.7H131.369V35.49C131.749 34.95 132.399 34.65 133.199 34.65C134.009 34.65 134.689 34.97 135.039 35.63C135.439 35.03 136.179 34.65 137.079 34.65ZM145.835 37.38C145.835 37.46 145.825 37.58 145.815 37.67H141.515C141.635 38.6 142.385 39.22 143.435 39.22C144.055 39.22 144.575 39.01 144.965 38.58L145.495 39.2C145.015 39.76 144.285 40.06 143.405 40.06C141.695 40.06 140.555 38.93 140.555 37.35C140.555 35.78 141.685 34.65 143.215 34.65C144.745 34.65 145.835 35.75 145.835 37.38ZM143.215 35.46C142.295 35.46 141.615 36.08 141.515 36.98H144.915C144.815 36.09 144.145 35.46 143.215 35.46ZM148.088 35.59C148.428 34.97 149.088 34.65 150.018 34.65V35.58C149.938 35.57 149.868 35.57 149.798 35.57C148.768 35.57 148.128 36.2 148.128 37.36V40H147.168V34.7H148.088V35.59ZM156.135 40.08C155.065 40.08 154.015 39.72 153.455 39.2L153.825 38.42C154.345 38.89 155.235 39.23 156.135 39.23C157.345 39.23 157.865 38.76 157.865 38.15C157.865 36.44 153.625 37.52 153.625 34.92C153.625 33.84 154.465 32.92 156.305 32.92C157.125 32.92 157.975 33.14 158.555 33.54L158.225 34.34C157.615 33.95 156.925 33.77 156.305 33.77C155.115 33.77 154.605 34.27 154.605 34.88C154.605 36.59 158.845 35.52 158.845 38.09C158.845 39.16 157.985 40.08 156.135 40.08ZM164.956 37.38C164.956 37.46 164.946 37.58 164.936 37.67H160.636C160.756 38.6 161.506 39.22 162.556 39.22C163.176 39.22 163.696 39.01 164.086 38.58L164.616 39.2C164.136 39.76 163.406 40.06 162.526 40.06C160.816 40.06 159.676 38.93 159.676 37.35C159.676 35.78 160.806 34.65 162.336 34.65C163.866 34.65 164.956 35.75 164.956 37.38ZM162.336 35.46C161.416 35.46 160.736 36.08 160.636 36.98H164.036C163.936 36.09 163.266 35.46 162.336 35.46ZM167.209 35.59C167.549 34.97 168.209 34.65 169.139 34.65V35.58C169.059 35.57 168.989 35.57 168.919 35.57C167.889 35.57 167.249 36.2 167.249 37.36V40H166.289V34.7H167.209V35.59ZM174.287 34.7H175.227L172.907 40H171.927L169.607 34.7H170.607L172.427 38.95L174.287 34.7ZM176.603 33.68C176.233 33.68 175.953 33.41 175.953 33.06C175.953 32.71 176.233 32.43 176.603 32.43C176.973 32.43 177.253 32.7 177.253 33.04C177.253 33.4 176.983 33.68 176.603 33.68ZM176.123 40V34.7H177.083V40H176.123ZM181.226 40.06C179.596 40.06 178.426 38.93 178.426 37.35C178.426 35.77 179.596 34.65 181.226 34.65C182.176 34.65 182.966 35.04 183.386 35.78L182.656 36.25C182.316 35.73 181.796 35.49 181.216 35.49C180.176 35.49 179.396 36.22 179.396 37.35C179.396 38.5 180.176 39.22 181.216 39.22C181.796 39.22 182.316 38.98 182.656 38.46L183.386 38.92C182.966 39.66 182.176 40.06 181.226 40.06ZM189.341 37.38C189.341 37.46 189.331 37.58 189.321 37.67H185.021C185.141 38.6 185.891 39.22 186.941 39.22C187.561 39.22 188.081 39.01 188.471 38.58L189.001 39.2C188.521 39.76 187.791 40.06 186.911 40.06C185.201 40.06 184.061 38.93 184.061 37.35C184.061 35.78 185.191 34.65 186.721 34.65C188.251 34.65 189.341 35.75 189.341 37.38ZM186.721 35.46C185.801 35.46 185.121 36.08 185.021 36.98H188.421C188.321 36.09 187.651 35.46 186.721 35.46ZM198.729 40L197.959 38.25H194.239L193.469 40H192.439L195.609 33H196.599L199.779 40H198.729ZM194.589 37.45H197.609L196.099 34.02L194.589 37.45ZM202.155 40.06C201.275 40.06 200.405 39.79 199.965 39.44L200.365 38.68C200.815 39 201.535 39.23 202.225 39.23C203.115 39.23 203.485 38.96 203.485 38.51C203.485 37.32 200.135 38.35 200.135 36.24C200.135 35.29 200.985 34.65 202.345 34.65C203.035 34.65 203.815 34.83 204.275 35.13L203.865 35.89C203.385 35.58 202.855 35.47 202.335 35.47C201.495 35.47 201.085 35.78 201.085 36.2C201.085 37.45 204.445 36.43 204.445 38.49C204.445 39.45 203.565 40.06 202.155 40.06ZM207.164 40.06C206.284 40.06 205.414 39.79 204.974 39.44L205.374 38.68C205.824 39 206.544 39.23 207.234 39.23C208.124 39.23 208.494 38.96 208.494 38.51C208.494 37.32 205.144 38.35 205.144 36.24C205.144 35.29 205.994 34.65 207.354 34.65C208.044 34.65 208.824 34.83 209.284 35.13L208.874 35.89C208.394 35.58 207.864 35.47 207.344 35.47C206.504 35.47 206.094 35.78 206.094 36.2C206.094 37.45 209.454 36.43 209.454 38.49C209.454 39.45 208.574 40.06 207.164 40.06ZM211.134 33.68C210.764 33.68 210.484 33.41 210.484 33.06C210.484 32.71 210.764 32.43 211.134 32.43C211.504 32.43 211.784 32.7 211.784 33.04C211.784 33.4 211.514 33.68 211.134 33.68ZM210.654 40V34.7H211.614V40H210.654ZM214.967 40.06C214.087 40.06 213.217 39.79 212.777 39.44L213.177 38.68C213.627 39 214.347 39.23 215.037 39.23C215.927 39.23 216.297 38.96 216.297 38.51C216.297 37.32 212.947 38.35 212.947 36.24C212.947 35.29 213.797 34.65 215.157 34.65C215.847 34.65 216.627 34.83 217.087 35.13L216.677 35.89C216.197 35.58 215.667 35.47 215.147 35.47C214.307 35.47 213.897 35.78 213.897 36.2C213.897 37.45 217.257 36.43 217.257 38.49C217.257 39.45 216.377 40.06 214.967 40.06ZM221.137 39L221.437 39.69C221.147 39.94 220.707 40.06 220.277 40.06C219.207 40.06 218.597 39.47 218.597 38.4V35.49H217.697V34.7H218.597V33.54H219.557V34.7H221.077V35.49H219.557V38.36C219.557 38.93 219.857 39.25 220.387 39.25C220.667 39.25 220.937 39.16 221.137 39ZM224.528 34.65C225.978 34.65 226.798 35.35 226.798 36.8V40H225.888V39.3C225.568 39.78 224.978 40.06 224.148 40.06C222.948 40.06 222.188 39.42 222.188 38.5C222.188 37.65 222.738 36.95 224.318 36.95H225.838V36.76C225.838 35.95 225.368 35.48 224.418 35.48C223.788 35.48 223.148 35.7 222.738 36.05L222.338 35.33C222.888 34.89 223.678 34.65 224.528 34.65ZM224.308 39.32C225.028 39.32 225.598 38.99 225.838 38.38V37.64H224.358C223.408 37.64 223.138 38.01 223.138 38.46C223.138 38.99 223.578 39.32 224.308 39.32ZM231.404 34.65C232.694 34.65 233.604 35.39 233.604 36.95V40H232.644V37.06C232.644 36.02 232.124 35.51 231.214 35.51C230.194 35.51 229.534 36.12 229.534 37.27V40H228.574V34.7H229.494V35.5C229.884 34.96 230.564 34.65 231.404 34.65ZM238.061 39L238.361 39.69C238.071 39.94 237.631 40.06 237.201 40.06C236.131 40.06 235.521 39.47 235.521 38.4V35.49H234.621V34.7H235.521V33.54H236.481V34.7H238.001V35.49H236.481V38.36C236.481 38.93 236.781 39.25 237.311 39.25C237.591 39.25 237.861 39.16 238.061 39Z" fill="#828386"/>
<rect x="256" y="10" width="107" height="28" rx="14" fill="#23252A"/>
<path d="M273.016 28.096C272.376 28.096 271.784 27.992 271.24 27.784C270.704 27.568 270.236 27.268 269.836 26.884C269.444 26.492 269.136 26.036 268.912 25.516C268.688 24.996 268.576 24.424 268.576 23.8C268.576 23.176 268.688 22.604 268.912 22.084C269.136 21.564 269.448 21.112 269.848 20.728C270.248 20.336 270.716 20.036 271.252 19.828C271.796 19.612 272.388 19.504 273.028 19.504C273.676 19.504 274.272 19.616 274.816 19.84C275.368 20.056 275.836 20.38 276.22 20.812L275.44 21.568C275.12 21.232 274.76 20.984 274.36 20.824C273.96 20.656 273.532 20.572 273.076 20.572C272.604 20.572 272.164 20.652 271.756 20.812C271.356 20.972 271.008 21.196 270.712 21.484C270.416 21.772 270.184 22.116 270.016 22.516C269.856 22.908 269.776 23.336 269.776 23.8C269.776 24.264 269.856 24.696 270.016 25.096C270.184 25.488 270.416 25.828 270.712 26.116C271.008 26.404 271.356 26.628 271.756 26.788C272.164 26.948 272.604 27.028 273.076 27.028C273.532 27.028 273.96 26.948 274.36 26.788C274.76 26.62 275.12 26.364 275.44 26.02L276.22 26.776C275.836 27.208 275.368 27.536 274.816 27.76C274.272 27.984 273.672 28.096 273.016 28.096ZM279.978 28.072C279.338 28.072 278.77 27.932 278.274 27.652C277.778 27.372 277.386 26.988 277.098 26.5C276.81 26.004 276.666 25.444 276.666 24.82C276.666 24.188 276.81 23.628 277.098 23.14C277.386 22.652 277.778 22.272 278.274 22C278.77 21.72 279.338 21.58 279.978 21.58C280.61 21.58 281.174 21.72 281.67 22C282.174 22.272 282.566 22.652 282.846 23.14C283.134 23.62 283.278 24.18 283.278 24.82C283.278 25.452 283.134 26.012 282.846 26.5C282.566 26.988 282.174 27.372 281.67 27.652C281.174 27.932 280.61 28.072 279.978 28.072ZM279.978 27.064C280.386 27.064 280.75 26.972 281.07 26.788C281.398 26.604 281.654 26.344 281.838 26.008C282.022 25.664 282.114 25.268 282.114 24.82C282.114 24.364 282.022 23.972 281.838 23.644C281.654 23.308 281.398 23.048 281.07 22.864C280.75 22.68 280.386 22.588 279.978 22.588C279.57 22.588 279.206 22.68 278.886 22.864C278.566 23.048 278.31 23.308 278.118 23.644C277.926 23.972 277.83 24.364 277.83 24.82C277.83 25.268 277.926 25.664 278.118 26.008C278.31 26.344 278.566 26.604 278.886 26.788C279.206 26.972 279.57 27.064 279.978 27.064ZM288.028 21.58C288.548 21.58 289.004 21.68 289.396 21.88C289.796 22.08 290.108 22.384 290.332 22.792C290.556 23.2 290.668 23.716 290.668 24.34V28H289.516V24.472C289.516 23.856 289.364 23.392 289.06 23.08C288.764 22.768 288.344 22.612 287.8 22.612C287.392 22.612 287.036 22.692 286.732 22.852C286.428 23.012 286.192 23.248 286.024 23.56C285.864 23.872 285.784 24.26 285.784 24.724V28H284.632V21.64H285.736V23.356L285.556 22.9C285.764 22.484 286.084 22.16 286.516 21.928C286.948 21.696 287.452 21.58 288.028 21.58ZM294.744 28.072C294.104 28.072 293.608 27.9 293.256 27.556C292.904 27.212 292.728 26.72 292.728 26.08V20.248H293.88V26.032C293.88 26.376 293.964 26.64 294.132 26.824C294.308 27.008 294.556 27.1 294.876 27.1C295.236 27.1 295.536 27 295.776 26.8L296.136 27.628C295.96 27.78 295.748 27.892 295.5 27.964C295.26 28.036 295.008 28.072 294.744 28.072ZM291.648 22.588V21.64H295.704V22.588H291.648ZM301.236 28V26.656L301.176 26.404V24.112C301.176 23.624 301.032 23.248 300.744 22.984C300.464 22.712 300.04 22.576 299.472 22.576C299.096 22.576 298.728 22.64 298.368 22.768C298.008 22.888 297.704 23.052 297.456 23.26L296.976 22.396C297.304 22.132 297.696 21.932 298.152 21.796C298.616 21.652 299.1 21.58 299.604 21.58C300.476 21.58 301.148 21.792 301.62 22.216C302.092 22.64 302.328 23.288 302.328 24.16V28H301.236ZM299.148 28.072C298.676 28.072 298.26 27.992 297.9 27.832C297.548 27.672 297.276 27.452 297.084 27.172C296.892 26.884 296.796 26.56 296.796 26.2C296.796 25.856 296.876 25.544 297.036 25.264C297.204 24.984 297.472 24.76 297.84 24.592C298.216 24.424 298.72 24.34 299.352 24.34H301.368V25.168H299.4C298.824 25.168 298.436 25.264 298.236 25.456C298.036 25.648 297.936 25.88 297.936 26.152C297.936 26.464 298.06 26.716 298.308 26.908C298.556 27.092 298.9 27.184 299.34 27.184C299.772 27.184 300.148 27.088 300.468 26.896C300.796 26.704 301.032 26.424 301.176 26.056L301.404 26.848C301.252 27.224 300.984 27.524 300.6 27.748C300.216 27.964 299.732 28.072 299.148 28.072ZM306.992 28.072C306.344 28.072 305.764 27.932 305.252 27.652C304.748 27.372 304.352 26.988 304.064 26.5C303.776 26.012 303.632 25.452 303.632 24.82C303.632 24.188 303.776 23.628 304.064 23.14C304.352 22.652 304.748 22.272 305.252 22C305.764 21.72 306.344 21.58 306.992 21.58C307.568 21.58 308.08 21.696 308.528 21.928C308.984 22.152 309.336 22.488 309.584 22.936L308.708 23.5C308.5 23.188 308.244 22.96 307.94 22.816C307.644 22.664 307.324 22.588 306.98 22.588C306.564 22.588 306.192 22.68 305.864 22.864C305.536 23.048 305.276 23.308 305.084 23.644C304.892 23.972 304.796 24.364 304.796 24.82C304.796 25.276 304.892 25.672 305.084 26.008C305.276 26.344 305.536 26.604 305.864 26.788C306.192 26.972 306.564 27.064 306.98 27.064C307.324 27.064 307.644 26.992 307.94 26.848C308.244 26.696 308.5 26.464 308.708 26.152L309.584 26.704C309.336 27.144 308.984 27.484 308.528 27.724C308.08 27.956 307.568 28.072 306.992 28.072ZM313.102 28.072C312.462 28.072 311.966 27.9 311.614 27.556C311.262 27.212 311.086 26.72 311.086 26.08V20.248H312.238V26.032C312.238 26.376 312.322 26.64 312.49 26.824C312.666 27.008 312.914 27.1 313.234 27.1C313.594 27.1 313.894 27 314.134 26.8L314.494 27.628C314.318 27.78 314.106 27.892 313.858 27.964C313.618 28.036 313.366 28.072 313.102 28.072ZM310.006 22.588V21.64H314.062V22.588H310.006ZM322.277 28.096C321.173 28.096 320.305 27.78 319.673 27.148C319.041 26.516 318.725 25.592 318.725 24.376V19.6H319.925V24.328C319.925 25.264 320.129 25.948 320.537 26.38C320.953 26.812 321.537 27.028 322.289 27.028C323.049 27.028 323.633 26.812 324.041 26.38C324.457 25.948 324.665 25.264 324.665 24.328V19.6H325.829V24.376C325.829 25.592 325.513 26.516 324.881 27.148C324.257 27.78 323.389 28.096 322.277 28.096ZM329.705 28.072C329.177 28.072 328.673 28 328.193 27.856C327.721 27.712 327.349 27.536 327.077 27.328L327.557 26.416C327.829 26.6 328.165 26.756 328.565 26.884C328.965 27.012 329.373 27.076 329.789 27.076C330.325 27.076 330.709 27 330.941 26.848C331.181 26.696 331.301 26.484 331.301 26.212C331.301 26.012 331.229 25.856 331.085 25.744C330.941 25.632 330.749 25.548 330.509 25.492C330.277 25.436 330.017 25.388 329.729 25.348C329.441 25.3 329.153 25.244 328.865 25.18C328.577 25.108 328.313 25.012 328.073 24.892C327.833 24.764 327.641 24.592 327.497 24.376C327.353 24.152 327.281 23.856 327.281 23.488C327.281 23.104 327.389 22.768 327.605 22.48C327.821 22.192 328.125 21.972 328.517 21.82C328.917 21.66 329.389 21.58 329.933 21.58C330.349 21.58 330.769 21.632 331.193 21.736C331.625 21.832 331.977 21.972 332.249 22.156L331.757 23.068C331.469 22.876 331.169 22.744 330.857 22.672C330.545 22.6 330.233 22.564 329.921 22.564C329.417 22.564 329.041 22.648 328.793 22.816C328.545 22.976 328.421 23.184 328.421 23.44C328.421 23.656 328.493 23.824 328.637 23.944C328.789 24.056 328.981 24.144 329.213 24.208C329.453 24.272 329.717 24.328 330.005 24.376C330.293 24.416 330.581 24.472 330.869 24.544C331.157 24.608 331.417 24.7 331.649 24.82C331.889 24.94 332.081 25.108 332.225 25.324C332.377 25.54 332.453 25.828 332.453 26.188C332.453 26.572 332.341 26.904 332.117 27.184C331.893 27.464 331.577 27.684 331.169 27.844C330.761 27.996 330.273 28.072 329.705 28.072Z" fill="#CCCDD4"/>
<path d="M337 22C337 20.3431 338.343 19 340 19H346C347.657 19 349 20.3431 349 22V27.3333H337V22Z" stroke="#CCCDD4" stroke-width="1.33333" stroke-linecap="square"/>
<path d="M337 22C337 20.3431 338.343 19 340 19C341.657 19 343 20.3431 343 22V27.3333H337.667C337.298 27.3333 337 27.0349 337 26.6667V22Z" stroke="#CCCDD4" stroke-width="1.33333" stroke-linecap="square"/>
<path d="M346.333 27.3335V29.6668" stroke="#CCCDD4" stroke-width="1.33333" stroke-linecap="square"/>
<path d="M339 22H341V23.3333H339V22Z" fill="#CCCDD4"/>
<defs>
<radialGradient id="paint0_radial_3528_28979" cx="0" cy="0" r="1" gradientUnits="userSpaceOnUse" gradientTransform="translate(71.9999 23.2306) rotate(90) scale(19.6154 19.1615)">
<stop offset="0.609249" stop-color="#737373"/>
<stop offset="1" stop-color="#D9D9D9" stop-opacity="0"/>
</radialGradient>
<linearGradient id="paint1_linear_3528_28979" x1="72" y1="37" x2="72" y2="11" gradientUnits="userSpaceOnUse">
<stop stop-color="#F6610F"/>
<stop offset="1" stop-color="#F6610F" stop-opacity="0.5"/>
</linearGradient>
<clipPath id="clip0_3528_28979">
<rect width="40" height="40" fill="white" transform="translate(52 4)"/>
</clipPath>
<clipPath id="clip1_3528_28979">
<rect width="36.9231" height="36.9231" fill="white" transform="matrix(-1 0 0 1 90.4615 8.80762)"/>
</clipPath>
</defs>
</svg>
