<svg width="16" height="16" viewBox="0 0 16 16" fill="none" xmlns="http://www.w3.org/2000/svg">
<path fill-rule="evenodd" clip-rule="evenodd" d="M7.37866 0.892614C8.03938 1.66711 8.40308 2.6517 8.40308 3.66996V4.36136C8.40308 4.75172 8.0864 5.06838 7.69604 5.0684H7.68335C7.23475 5.06998 6.86133 5.31197 6.67456 5.64457C6.62615 5.73077 6.57375 5.82535 6.51831 5.92679C6.21965 6.47321 5.81719 7.21051 5.28979 7.80668C4.81906 8.33886 4.54177 9.0216 4.54175 9.76566C4.54175 11.4012 5.91427 12.792 7.68823 12.792C9.46198 12.7918 10.8347 11.4011 10.8347 9.76566C10.8347 9.5678 10.8148 9.37406 10.7771 9.18656C10.7679 9.14046 10.797 9.09553 10.8425 9.08402C11.1953 8.99589 11.6296 8.85436 12.114 8.62894C12.2121 8.99183 12.2644 9.3728 12.2644 9.76566C12.2644 12.2267 10.2157 14.2215 7.68823 14.2217C5.16057 14.2217 3.11108 12.2268 3.11108 9.76566C3.1111 8.65497 3.52819 7.63876 4.21851 6.85843C4.62853 6.39491 4.93958 5.83064 5.24194 5.28031C5.30395 5.16746 5.36535 5.05502 5.42749 4.94437C5.75319 4.36437 6.30747 3.92327 6.97241 3.73636V3.66996C6.97241 2.98983 6.72945 2.33188 6.28687 1.81547L7.36499 0.890661C7.36915 0.887216 7.37514 0.888489 7.37866 0.892614ZM7.25854 10.7881C7.65349 10.7881 7.97339 11.109 7.97339 11.5039C7.97325 11.8988 7.65341 12.2188 7.25854 12.2188C6.86377 12.2187 6.54384 11.8987 6.5437 11.5039C6.5437 11.1091 6.86369 10.7882 7.25854 10.7881ZM8.68921 9.64457C9.08409 9.64464 9.40405 9.96548 9.40405 10.3604C9.40391 10.7552 9.08401 11.0752 8.68921 11.0752C8.29435 11.0752 7.9745 10.7552 7.97437 10.3604C7.97437 9.96544 8.29426 9.64457 8.68921 9.64457ZM5.82886 8.78617C6.22358 8.7863 6.54352 9.1063 6.5437 9.50101C6.5437 9.89588 6.22369 10.2167 5.82886 10.2168C5.43391 10.2168 5.11304 9.89596 5.11304 9.50101C5.11322 9.10622 5.43402 8.78617 5.82886 8.78617ZM10.5652 3.46586C10.9725 3.56755 11.5328 3.76 12.1667 4.12601C12.7991 4.49113 13.2459 4.87844 13.5378 5.17972C13.8369 5.48836 13.8369 5.95117 13.5378 6.2598C13.2457 6.56134 12.7986 6.94869 12.1667 7.31351C11.5339 7.67887 10.9738 7.87182 10.5662 7.97367C10.15 8.07764 9.75045 7.84701 9.63257 7.43461C9.51729 7.03121 9.40503 6.45032 9.40503 5.71976C9.40505 4.98855 9.51718 4.40734 9.63257 4.00394C9.75041 3.59212 10.1496 3.36211 10.5652 3.46586Z" fill="#832604"/>
</svg>
