<svg width="156" height="46" viewBox="0 0 156 46" fill="none" xmlns="http://www.w3.org/2000/svg">
<g clip-path="url(#clip0_2887_5592)">
<g filter="url(#filter0_dddddd_2887_5592)">
<path d="M34.5 26.5C27.7211 33.0026 26.3373 43.9748 52.2951 33.9798C84.7423 21.4861 97.9955 28.5001 86.5704 33.9798C75.1453 39.4596 105.835 40.5874 128 28.9704" stroke="url(#paint0_linear_2887_5592)" stroke-width="2" stroke-linecap="round" stroke-linejoin="round"/>
</g>
<path d="M21.5244 20.07H16.3944C16.2144 20.07 16.0644 20.01 15.9444 19.89C15.8244 19.75 15.7644 19.6 15.7644 19.44V13.71C15.7644 13.61 15.8044 13.48 15.8844 13.32C16.0044 13.04 16.2444 12.8 16.6044 12.6C17.0644 12.34 17.7144 12.21 18.5544 12.21V12.87C18.3144 12.87 18.0444 12.93 17.7444 13.05C17.4644 13.17 17.3244 13.39 17.3244 13.71H21.5244C21.6844 13.71 21.8244 13.77 21.9444 13.89C22.0644 14.01 22.1244 14.16 22.1244 14.34V19.44C22.1244 19.6 22.0644 19.75 21.9444 19.89C21.8244 20.01 21.6844 20.07 21.5244 20.07ZM28.6644 20.07H23.5344C23.3544 20.07 23.2044 20.01 23.0844 19.89C22.9644 19.75 22.9044 19.6 22.9044 19.44V13.71C22.9044 13.61 22.9444 13.48 23.0244 13.32C23.1444 13.04 23.3844 12.8 23.7444 12.6C24.2044 12.34 24.8544 12.21 25.6944 12.21V12.87C25.4544 12.87 25.1844 12.93 24.8844 13.05C24.6044 13.17 24.4644 13.39 24.4644 13.71H28.6644C28.8244 13.71 28.9644 13.77 29.0844 13.89C29.2044 14.01 29.2644 14.16 29.2644 14.34V19.44C29.2644 19.6 29.2044 19.75 29.0844 19.89C28.9644 20.01 28.8244 20.07 28.6644 20.07ZM58.4999 37.248H39.1079V30.944C38.9586 31.0293 38.7986 31.072 38.6279 31.072C38.3506 31.072 38.0306 30.88 37.6679 30.496L34.6919 27.52L34.7239 27.488C34.8306 27.552 35.0012 27.584 35.2359 27.584C35.4492 27.584 35.6732 27.52 35.9079 27.392C35.9292 27.3707 35.9399 27.3493 35.9399 27.328C35.9612 27.3067 35.9826 27.296 36.0039 27.296C37.3692 26.0587 38.5319 24.8213 39.4919 23.584H36.4199C36.1212 23.584 35.8546 23.4773 35.6199 23.264C35.4066 23.0293 35.2999 22.7733 35.2999 22.496V19.744C35.3639 19.744 35.4172 19.776 35.4599 19.84C35.6732 20.16 36.0252 20.352 36.5159 20.416H41.6679C41.7319 20.3093 41.8066 20.192 41.8919 20.064C41.9772 19.9147 42.0626 19.7547 42.1479 19.584H37.9879C37.6892 19.584 37.4332 19.4773 37.2199 19.264C37.0066 19.0293 36.8999 18.7627 36.8999 18.464V15.712H36.9639C37.2199 16.16 37.5932 16.3947 38.0839 16.416H43.6519L44.0359 15.584C42.3079 15.584 40.6652 15.5413 39.1079 15.456C38.6599 15.4347 38.2012 15.4133 37.7319 15.392C37.2626 15.3707 36.9426 15.2747 36.7719 15.104V15.04C36.6012 14.8907 36.5159 14.6987 36.5159 14.464L36.5479 11.2C36.6119 11.2 36.6652 11.232 36.7079 11.296C36.9212 11.6373 37.2839 11.8507 37.7959 11.936C39.8226 12.064 42.0412 12.128 44.4519 12.128C49.3799 12.128 53.9346 11.9147 58.1159 11.488C58.5426 11.36 58.8306 11.1253 58.9799 10.784C59.0439 10.656 59.0972 10.592 59.1399 10.592C59.2679 11.3813 59.3852 11.968 59.4919 12.352C59.6839 13.2053 59.8012 13.664 59.8439 13.728V14.016C59.8439 14.4213 59.6519 14.6987 59.2679 14.848C59.2039 14.8907 59.0972 14.912 58.9479 14.912C56.0252 15.1893 52.8679 15.3813 49.4759 15.488L49.2199 16.416H58.3079C58.7559 16.3947 59.1079 16.192 59.3639 15.808C59.3852 15.744 59.4279 15.712 59.4919 15.712V18.464C59.4919 18.7627 59.3852 19.0293 59.1719 19.264C58.9586 19.4773 58.6919 19.584 58.3719 19.584H47.9719L47.5879 20.416H59.8759C60.1106 20.3947 60.3132 20.3307 60.4839 20.224C60.6546 20.1173 60.7826 20.0213 60.8679 19.936C60.9532 19.8293 60.9959 19.7653 60.9959 19.744H61.0599V22.496C61.0599 22.7733 60.9532 23.0293 60.7399 23.264C60.5266 23.4773 60.2706 23.584 59.9719 23.584H45.8279C45.6999 23.8613 45.5292 24.1387 45.3159 24.416H59.5879V36.128C59.5879 36.448 59.4812 36.7147 59.2679 36.928C59.0546 37.1413 58.7986 37.248 58.4999 37.248ZM53.9559 31.232V30.4H44.7079V31.232H53.9559ZM53.9559 28.128V27.264H44.7079V28.128H53.9559ZM53.9559 34.336V33.536H44.7079V34.336H53.9559ZM76.2724 37.568C75.9951 37.568 75.7391 37.408 75.5044 37.088C73.8191 34.912 72.8164 33.6427 72.4964 33.28L72.5284 33.248C72.6777 33.3333 72.8804 33.376 73.1364 33.376C73.3711 33.376 73.6484 33.2907 73.9684 33.12C75.4617 32.2453 76.6031 31.488 77.3924 30.848C78.1817 30.1867 78.7791 29.3333 79.1844 28.288H76.2084C75.8031 28.288 75.4831 28.096 75.2484 27.712L74.3844 29.76L74.3524 29.728C74.3524 29.3227 74.2031 28.9813 73.9044 28.704L72.4324 27.648V36C72.4324 36.2987 72.3151 36.5547 72.0804 36.768C71.8671 36.9813 71.6111 37.088 71.3124 37.088H67.3124V36.992C67.3551 36.992 67.4297 36.928 67.5364 36.8C67.6431 36.6933 67.7497 36.5333 67.8564 36.32C67.9631 36.1067 68.0271 35.84 68.0484 35.52V29.184C67.7071 29.3973 67.3231 29.568 66.8964 29.696C66.7471 29.76 66.6084 29.792 66.4804 29.792C66.0751 29.792 65.8297 29.4507 65.7444 28.768L64.6564 24.032C64.7631 24.224 64.9337 24.32 65.1684 24.32L65.3284 24.288C66.9924 23.4773 68.2937 21.9093 69.2324 19.584H66.1284C65.8724 19.584 65.6484 19.4773 65.4564 19.264C65.2857 19.0507 65.2004 18.784 65.2004 18.464V14.592H65.2964V14.624C65.4244 14.944 65.6697 15.1253 66.0324 15.168H67.8244C68.1444 13.5467 68.3044 12.6933 68.3044 12.608C68.3044 12.1813 68.2084 11.8827 68.0164 11.712V11.68H68.5284L68.4644 11.936L68.5284 11.68H71.7604C71.9097 11.68 72.0377 11.744 72.1444 11.872C72.2511 11.9787 72.3044 12.1173 72.3044 12.288L71.7604 15.168H73.2964C73.5311 15.104 73.7017 15.0293 73.8084 14.944C73.9364 14.8373 74.0217 14.752 74.0644 14.688C74.1071 14.624 74.1497 14.592 74.1924 14.592C74.1924 16.6187 74.1284 18.1333 74.0004 19.136C73.8297 20.5013 73.4991 21.8133 73.0084 23.072L75.1204 24.448V11.808H75.1844C75.1844 11.8507 75.2271 11.936 75.3124 12.064C75.3977 12.1707 75.5257 12.2773 75.6964 12.384C75.8671 12.4693 76.0804 12.5227 76.3364 12.544H88.4004C88.6991 12.5227 88.9231 12.4587 89.0724 12.352C89.2431 12.224 89.3604 12.1067 89.4244 12C89.4884 11.872 89.5524 11.808 89.6164 11.808V27.232C89.6164 27.488 89.5204 27.712 89.3284 27.904C89.1577 28.0747 88.9444 28.16 88.6884 28.16H86.4164V32.928H87.6964L88.1124 29.952L90.5444 30.56C91.0351 30.752 91.2804 31.104 91.2804 31.616C91.2804 31.7227 91.0777 33.2587 90.6724 36.224C90.6724 36.5227 90.5657 36.7787 90.3524 36.992C90.1391 37.2053 89.8831 37.312 89.5844 37.312H83.5684C83.2911 37.312 83.0351 37.2053 82.8004 36.992C82.5871 36.7787 82.4804 36.5227 82.4804 36.224V32.512C81.8404 33.5573 81.0617 34.4427 80.1444 35.168C79.2271 35.8933 78.1711 36.608 76.9764 37.312C76.7417 37.4827 76.5071 37.568 76.2724 37.568ZM79.3444 27.936C79.8564 26.592 80.1124 24.2347 80.1124 20.864C80.1124 19.7973 80.0911 18.6133 80.0484 17.312L84.5604 17.248C84.6031 18.4213 84.6244 19.52 84.6244 20.544C84.6244 22.7627 84.5177 24.6613 84.3044 26.24H85.3924V16.576H79.3444V27.936ZM119.325 38.272H119.293L119.325 38.016C119.325 37.7813 119.229 37.5787 119.037 37.408C117.885 36.128 116.53 34.9333 114.973 33.824C113.885 35.3173 112.264 36.6293 110.109 37.76C109.917 37.8667 109.736 37.92 109.565 37.92C109.33 37.92 109.128 37.792 108.957 37.536C108.466 36.704 108.104 36.1067 107.869 35.744C107.634 35.3813 107.304 34.8267 106.877 34.08L106.941 34.048C106.984 34.112 107.112 34.144 107.325 34.144C107.538 34.144 107.837 34.0587 108.221 33.888C109.906 32.9707 111.122 31.9467 111.869 30.816C112.637 29.6853 113.021 28.0213 113.021 25.824V21.824C115.325 21.8667 116.498 21.9093 116.541 21.952C116.84 22.016 116.989 22.24 116.989 22.624V26.624C116.989 27.8613 116.861 29.0133 116.605 30.08C117.65 30.7413 118.546 31.3707 119.293 31.968C121.149 33.4613 122.077 34.4107 122.077 34.816C122.077 34.9867 122.013 35.1573 121.885 35.328L119.677 37.92V37.952L119.325 38.272ZM119.869 30.368H117.661V21.152H112.349V29.248C112.349 29.568 112.242 29.8347 112.029 30.048C111.816 30.2613 111.549 30.368 111.229 30.368H109.021V16.8C109.064 16.8 109.106 16.8427 109.149 16.928C109.192 16.992 109.277 17.0773 109.405 17.184C109.533 17.2693 109.714 17.3227 109.949 17.344H112.765L113.085 16.128H109.949C109.65 16.128 109.394 16.0213 109.181 15.808C108.968 15.5947 108.861 15.328 108.861 15.008V11.36C108.904 11.3813 108.946 11.4347 108.989 11.52C109.16 11.8827 109.522 12.0747 110.077 12.096H119.901C120.434 12.0747 120.786 11.8827 120.957 11.52C121 11.4347 121.053 11.3813 121.117 11.36V15.008C121.117 15.328 121 15.5947 120.765 15.808C120.552 16.0213 120.296 16.128 119.997 16.128H117.469L117.181 17.344H120.189C120.552 17.3013 120.786 17.152 120.893 16.896C120.914 16.832 120.936 16.8 120.957 16.8V29.248C120.957 29.568 120.85 29.8347 120.637 30.048C120.424 30.2613 120.168 30.368 119.869 30.368ZM97.4369 37.952C97.0316 37.952 96.7009 37.7387 96.4449 37.312L94.6849 33.792L95.8049 33.568C97.9596 33.1413 99.9862 32.0107 101.885 30.176H100.285V26.304L98.8769 30.176C98.6636 30.688 98.3222 30.944 97.8529 30.944C97.7249 30.944 96.4449 30.528 94.0129 29.696L94.1089 29.504C94.1942 29.504 94.3116 29.4827 94.4609 29.44C94.7809 29.3333 95.0796 28.928 95.3569 28.224L96.9249 24.064L100.285 25.216V23.52H96.2529C95.9542 23.52 95.6982 23.4133 95.4849 23.2C95.2716 22.9867 95.1649 22.72 95.1649 22.4V18.784H95.2289C95.2289 18.8267 95.2716 18.912 95.3569 19.04C95.4636 19.1467 95.6022 19.2533 95.7729 19.36C95.9436 19.4667 96.1569 19.52 96.4129 19.52V12.544H98.5249C98.8236 12.544 99.0796 12.6507 99.2929 12.864C99.5062 13.0773 99.6129 13.344 99.6129 13.664V19.52H100.285V13.312C100.242 12.6293 99.9542 12.16 99.4209 11.904V11.808H102.845C103.144 11.808 103.4 11.9147 103.613 12.128C103.848 12.3413 103.965 12.608 103.965 12.928V13.728H106.397C106.824 13.6853 107.154 13.5253 107.389 13.248C107.474 13.1413 107.517 13.0667 107.517 13.024H107.613V16.672C107.613 16.9493 107.506 17.2053 107.293 17.44C107.08 17.6747 106.813 17.792 106.493 17.792H103.965V19.52H107.165C107.57 19.456 107.901 19.2747 108.157 18.976C108.242 18.8907 108.285 18.8267 108.285 18.784H108.381V22.4C108.381 22.72 108.274 22.9867 108.061 23.2C107.848 23.4133 107.581 23.52 107.261 23.52H104.573V26.368C104.829 25.8133 105.064 25.2267 105.277 24.608L107.741 26.88C107.997 27.1147 108.125 27.4027 108.125 27.744L108.093 27.936C107.453 30.432 106.461 32.384 105.117 33.792C103.773 35.1787 102.397 36.1813 100.989 36.8C99.5809 37.4187 98.4609 37.792 97.6289 37.92L97.4369 37.952ZM137.433 20.85V20.19C137.673 20.19 137.943 20.14 138.243 20.04C138.543 19.92 138.693 19.7 138.693 19.38H134.463C134.323 19.38 134.193 19.32 134.073 19.2C133.953 19.06 133.893 18.91 133.893 18.75V13.59C133.893 13.45 133.953 13.32 134.073 13.2C134.193 13.08 134.323 13.02 134.463 13.02H139.623C139.783 13.02 139.923 13.08 140.043 13.2C140.163 13.32 140.223 13.45 140.223 13.59V19.38C140.223 19.48 140.193 19.6 140.133 19.74C140.013 20.02 139.773 20.26 139.413 20.46C138.933 20.72 138.273 20.85 137.433 20.85ZM130.293 20.85V20.19C130.533 20.19 130.803 20.14 131.103 20.04C131.403 19.92 131.553 19.7 131.553 19.38H127.323C127.183 19.38 127.053 19.32 126.933 19.2C126.813 19.06 126.753 18.91 126.753 18.75V13.59C126.753 13.45 126.813 13.32 126.933 13.2C127.053 13.08 127.183 13.02 127.323 13.02H132.483C132.643 13.02 132.783 13.08 132.903 13.2C133.023 13.32 133.083 13.45 133.083 13.59V19.38C133.083 19.48 133.053 19.6 132.993 19.74C132.873 20.02 132.633 20.26 132.273 20.46C131.793 20.72 131.133 20.85 130.293 20.85Z" fill="#333333"/>
</g>
<defs>
<filter id="filter0_dddddd_2887_5592" x="-50.6992" y="-3.5" width="259.699" height="173.506" filterUnits="userSpaceOnUse" color-interpolation-filters="sRGB">
<feFlood flood-opacity="0" result="BackgroundImageFix"/>
<feColorMatrix in="SourceAlpha" type="matrix" values="0 0 0 0 0 0 0 0 0 0 0 0 0 0 0 0 0 0 127 0" result="hardAlpha"/>
<feOffset dy="1.4113"/>
<feGaussianBlur stdDeviation="1.1069"/>
<feColorMatrix type="matrix" values="0 0 0 0 0.866667 0 0 0 0 0.988235 0 0 0 0 0.0196078 0 0 0 0.137761 0"/>
<feBlend mode="normal" in2="BackgroundImageFix" result="effect1_dropShadow_2887_5592"/>
<feColorMatrix in="SourceAlpha" type="matrix" values="0 0 0 0 0 0 0 0 0 0 0 0 0 0 0 0 0 0 127 0" result="hardAlpha"/>
<feOffset dy="3.39155"/>
<feGaussianBlur stdDeviation="2.66004"/>
<feColorMatrix type="matrix" values="0 0 0 0 0.866667 0 0 0 0 0.988235 0 0 0 0 0.0196078 0 0 0 0.197907 0"/>
<feBlend mode="normal" in2="effect1_dropShadow_2887_5592" result="effect2_dropShadow_2887_5592"/>
<feColorMatrix in="SourceAlpha" type="matrix" values="0 0 0 0 0 0 0 0 0 0 0 0 0 0 0 0 0 0 127 0" result="hardAlpha"/>
<feOffset dy="6.38599"/>
<feGaussianBlur stdDeviation="5.00862"/>
<feColorMatrix type="matrix" values="0 0 0 0 0.866667 0 0 0 0 0.988235 0 0 0 0 0.0196078 0 0 0 0.245 0"/>
<feBlend mode="normal" in2="effect2_dropShadow_2887_5592" result="effect3_dropShadow_2887_5592"/>
<feColorMatrix in="SourceAlpha" type="matrix" values="0 0 0 0 0 0 0 0 0 0 0 0 0 0 0 0 0 0 127 0" result="hardAlpha"/>
<feOffset dy="11.3915"/>
<feGaussianBlur stdDeviation="8.93452"/>
<feColorMatrix type="matrix" values="0 0 0 0 0.866667 0 0 0 0 0.988235 0 0 0 0 0.0196078 0 0 0 0.292093 0"/>
<feBlend mode="normal" in2="effect3_dropShadow_2887_5592" result="effect4_dropShadow_2887_5592"/>
<feColorMatrix in="SourceAlpha" type="matrix" values="0 0 0 0 0 0 0 0 0 0 0 0 0 0 0 0 0 0 127 0" result="hardAlpha"/>
<feOffset dy="21.3066"/>
<feGaussianBlur stdDeviation="16.711"/>
<feColorMatrix type="matrix" values="0 0 0 0 0.866667 0 0 0 0 0.988235 0 0 0 0 0.0196078 0 0 0 0.352239 0"/>
<feBlend mode="normal" in2="effect4_dropShadow_2887_5592" result="effect5_dropShadow_2887_5592"/>
<feColorMatrix in="SourceAlpha" type="matrix" values="0 0 0 0 0 0 0 0 0 0 0 0 0 0 0 0 0 0 127 0" result="hardAlpha"/>
<feOffset dy="51"/>
<feGaussianBlur stdDeviation="40"/>
<feColorMatrix type="matrix" values="0 0 0 0 0.866667 0 0 0 0 0.988235 0 0 0 0 0.0196078 0 0 0 0.49 0"/>
<feBlend mode="normal" in2="effect5_dropShadow_2887_5592" result="effect6_dropShadow_2887_5592"/>
<feBlend mode="normal" in="SourceGraphic" in2="effect6_dropShadow_2887_5592" result="shape"/>
</filter>
<linearGradient id="paint0_linear_2887_5592" x1="114.26" y1="27.3708" x2="45.5792" y2="27.3708" gradientUnits="userSpaceOnUse">
<stop stop-color="#38FDB6"/>
<stop offset="1" stop-color="#FDE938"/>
</linearGradient>
<clipPath id="clip0_2887_5592">
<rect width="156" height="46" fill="white"/>
</clipPath>
</defs>
</svg>
