<svg width="22" height="30" viewBox="0 0 22 30" fill="none" xmlns="http://www.w3.org/2000/svg">
<path fill-rule="evenodd" clip-rule="evenodd" d="M7.45923 0C9.65384 9.49432e-05 11.6375 1.30774 12.5029 3.32453L21.7296 24.8271C22.6621 27.0003 21.0679 29.4189 18.703 29.4189H15.4589C12.9799 29.4189 10.7528 27.9035 9.84286 25.5975L0.0388333 0.750763C-0.103289 0.390585 0.162265 0 0.54947 0H7.45923ZM17.3191 22.1936C17.2056 21.9126 16.8856 21.7773 16.6046 21.8907L12.5333 23.5353C12.2713 23.6412 12.1381 23.9252 12.2128 24.191L12.4607 24.8065C12.5742 25.0875 12.8942 25.2227 13.1752 25.1094L17.2466 23.4648C17.5101 23.3582 17.6429 23.0714 17.5651 22.8042L17.3191 22.1936ZM15.1805 16.901C15.0669 16.62 14.747 16.4846 14.466 16.5981L10.3947 18.2428C10.1329 18.3486 9.99957 18.6327 10.0742 18.8984L10.9425 21.0468C11.0737 21.2895 11.3669 21.4015 11.6286 21.2958L15.7 19.6512C15.9806 19.5376 16.1159 19.2175 16.0028 18.9367L15.1805 16.901ZM13.0419 11.6084C12.9283 11.3276 12.6084 11.1921 12.3274 11.3055L8.25704 12.9502C7.99519 13.056 7.86105 13.3401 7.93557 13.6059L8.80394 15.7543C8.93505 15.9969 9.22831 16.1089 9.49002 16.0032L13.5614 14.3586C13.8422 14.2451 13.9774 13.925 13.8642 13.6441L13.0419 11.6084ZM10.9043 6.31582C10.7908 6.03495 10.4708 5.89965 10.1898 6.01296L6.11844 7.65759C5.85656 7.7634 5.72337 8.04751 5.79795 8.31328L6.66535 10.4617C6.79641 10.7043 7.08977 10.8162 7.35142 10.7106L11.4228 9.066C11.7036 8.95252 11.8397 8.63241 11.7266 8.3515L10.9043 6.31582ZM4.19155 2.41401C3.8221 2.43743 3.577 2.81833 3.71816 3.16771L4.52773 5.16909C4.65885 5.41179 4.95209 5.52476 5.21381 5.41902L9.28517 3.77342C9.56569 3.65977 9.70108 3.33966 9.58803 3.05892C9.43249 2.67043 9.05578 2.41514 8.63732 2.41499L4.19155 2.41401Z" fill="white"/>
<path fill-rule="evenodd" clip-rule="evenodd" d="M7.45923 0C9.65384 9.49432e-05 11.6375 1.30774 12.5029 3.32453L21.7296 24.8271C22.6621 27.0003 21.0679 29.4189 18.703 29.4189H15.4589C12.9799 29.4189 10.7528 27.9035 9.84286 25.5975L0.0388333 0.750763C-0.103289 0.390585 0.162265 0 0.54947 0H7.45923ZM17.3191 22.1936C17.2056 21.9126 16.8856 21.7773 16.6046 21.8907L12.5333 23.5353C12.2713 23.6412 12.1381 23.9252 12.2128 24.191L12.4607 24.8065C12.5742 25.0875 12.8942 25.2227 13.1752 25.1094L17.2466 23.4648C17.5101 23.3582 17.6429 23.0714 17.5651 22.8042L17.3191 22.1936ZM15.1805 16.901C15.0669 16.62 14.747 16.4846 14.466 16.5981L10.3947 18.2428C10.1329 18.3486 9.99957 18.6327 10.0742 18.8984L10.9425 21.0468C11.0737 21.2895 11.3669 21.4015 11.6286 21.2958L15.7 19.6512C15.9806 19.5376 16.1159 19.2175 16.0028 18.9367L15.1805 16.901ZM13.0419 11.6084C12.9283 11.3276 12.6084 11.1921 12.3274 11.3055L8.25704 12.9502C7.99519 13.056 7.86105 13.3401 7.93557 13.6059L8.80394 15.7543C8.93505 15.9969 9.22831 16.1089 9.49002 16.0032L13.5614 14.3586C13.8422 14.2451 13.9774 13.925 13.8642 13.6441L13.0419 11.6084ZM10.9043 6.31582C10.7908 6.03495 10.4708 5.89965 10.1898 6.01296L6.11844 7.65759C5.85656 7.7634 5.72337 8.04751 5.79795 8.31328L6.66535 10.4617C6.79641 10.7043 7.08977 10.8162 7.35142 10.7106L11.4228 9.066C11.7036 8.95252 11.8397 8.63241 11.7266 8.3515L10.9043 6.31582ZM4.19155 2.41401C3.8221 2.43743 3.577 2.81833 3.71816 3.16771L4.52773 5.16909C4.65885 5.41179 4.95209 5.52476 5.21381 5.41902L9.28517 3.77342C9.56569 3.65977 9.70108 3.33966 9.58803 3.05892C9.43249 2.67043 9.05578 2.41514 8.63732 2.41499L4.19155 2.41401Z" fill="url(#paint0_linear_0_5)"/>
<defs>
<linearGradient id="paint0_linear_0_5" x1="6.08181" y1="4.45537" x2="16.5012" y2="19.0242" gradientUnits="userSpaceOnUse">
<stop stop-color="#CECECE"/>
<stop offset="1" stop-color="#4051FF"/>
</linearGradient>
</defs>
</svg>
