<svg width="56" height="56" viewBox="0 0 56 56" fill="none" xmlns="http://www.w3.org/2000/svg">
<g clip-path="url(#clip0_5814_93034)">
<rect width="56" height="56" rx="12.3594" fill="#050713"/>
<g filter="url(#filter0_f_5814_93034)">
<ellipse cx="19.4313" cy="10.4606" rx="19.4313" ry="10.4606" transform="matrix(-0.914471 0.404652 0.404652 0.914471 41.8906 11.1016)" fill="url(#paint0_linear_5814_93034)"/>
</g>
<path fill-rule="evenodd" clip-rule="evenodd" d="M17.0575 14.2188C19.2442 14.2188 21.2206 15.5218 22.0829 17.5312L31.2762 38.9561C32.2054 41.1214 30.6169 43.5312 28.2606 43.5312H25.0282C22.5582 43.5312 20.3391 42.0213 19.4325 39.7236L9.66394 14.9668C9.52233 14.6079 9.78692 14.2188 10.1727 14.2188H17.0575ZM26.8817 36.332C26.7686 36.052 26.4498 35.9172 26.1698 36.0303L22.1132 37.6689C21.8522 37.7744 21.7194 38.0574 21.7938 38.3223L22.0409 38.9355C22.154 39.2155 22.4728 39.3502 22.7528 39.2373L26.8094 37.5986C27.072 37.4925 27.2043 37.2066 27.1268 36.9404L26.8817 36.332ZM24.7509 31.0586C24.6377 30.7787 24.3189 30.6437 24.0389 30.7568L19.9823 32.3955C19.7215 32.501 19.5886 32.7841 19.663 33.0488L20.5282 35.1895C20.6588 35.4312 20.951 35.5428 21.2118 35.4375L25.2684 33.7988C25.5481 33.6857 25.6829 33.3667 25.5702 33.0869L24.7509 31.0586ZM22.62 25.7852C22.5067 25.5053 22.188 25.3703 21.9081 25.4834L17.8524 27.1221C17.5915 27.2275 17.4579 27.5106 17.5321 27.7754L18.3973 29.916C18.528 30.1578 18.8202 30.2694 19.0809 30.1641L23.1376 28.5254C23.4174 28.4123 23.552 28.0933 23.4393 27.8135L22.62 25.7852ZM20.4901 20.5117C20.377 20.2319 20.0581 20.0971 19.7782 20.21L15.7216 21.8486C15.4606 21.9541 15.3279 22.2372 15.4022 22.502L16.2665 24.6426C16.3971 24.8843 16.6894 24.9958 16.9501 24.8906L21.0067 23.252C21.2865 23.1389 21.4222 22.8199 21.3094 22.54L20.4901 20.5117ZM13.8016 16.624C13.4335 16.6474 13.1893 17.0269 13.33 17.375L14.1366 19.3691C14.2672 19.611 14.5594 19.7235 14.8202 19.6182L18.8768 17.9785C19.1563 17.8653 19.2912 17.5463 19.1786 17.2666C19.0236 16.8795 18.6483 16.6252 18.2313 16.625L13.8016 16.624Z" fill="white"/>
<path fill-rule="evenodd" clip-rule="evenodd" d="M17.0575 14.2188C19.2442 14.2188 21.2206 15.5218 22.0829 17.5312L31.2762 38.9561C32.2054 41.1214 30.6169 43.5312 28.2606 43.5312H25.0282C22.5582 43.5312 20.3391 42.0213 19.4325 39.7236L9.66394 14.9668C9.52233 14.6079 9.78692 14.2188 10.1727 14.2188H17.0575ZM26.8817 36.332C26.7686 36.052 26.4498 35.9172 26.1698 36.0303L22.1132 37.6689C21.8522 37.7744 21.7194 38.0574 21.7938 38.3223L22.0409 38.9355C22.154 39.2155 22.4728 39.3502 22.7528 39.2373L26.8094 37.5986C27.072 37.4925 27.2043 37.2066 27.1268 36.9404L26.8817 36.332ZM24.7509 31.0586C24.6377 30.7787 24.3189 30.6437 24.0389 30.7568L19.9823 32.3955C19.7215 32.501 19.5886 32.7841 19.663 33.0488L20.5282 35.1895C20.6588 35.4312 20.951 35.5428 21.2118 35.4375L25.2684 33.7988C25.5481 33.6857 25.6829 33.3667 25.5702 33.0869L24.7509 31.0586ZM22.62 25.7852C22.5067 25.5053 22.188 25.3703 21.9081 25.4834L17.8524 27.1221C17.5915 27.2275 17.4579 27.5106 17.5321 27.7754L18.3973 29.916C18.528 30.1578 18.8202 30.2694 19.0809 30.1641L23.1376 28.5254C23.4174 28.4123 23.552 28.0933 23.4393 27.8135L22.62 25.7852ZM20.4901 20.5117C20.377 20.2319 20.0581 20.0971 19.7782 20.21L15.7216 21.8486C15.4606 21.9541 15.3279 22.2372 15.4022 22.502L16.2665 24.6426C16.3971 24.8843 16.6894 24.9958 16.9501 24.8906L21.0067 23.252C21.2865 23.1389 21.4222 22.8199 21.3094 22.54L20.4901 20.5117ZM13.8016 16.624C13.4335 16.6474 13.1893 17.0269 13.33 17.375L14.1366 19.3691C14.2672 19.611 14.5594 19.7235 14.8202 19.6182L18.8768 17.9785C19.1563 17.8653 19.2912 17.5463 19.1786 17.2666C19.0236 16.8795 18.6483 16.6252 18.2313 16.625L13.8016 16.624Z" fill="url(#paint1_linear_5814_93034)"/>
<path fill-rule="evenodd" clip-rule="evenodd" d="M41.3233 14.9342C43.0116 14.9908 44.5141 16.0391 45.1426 17.6168L49.6231 28.8639C49.7661 29.2229 49.5017 29.6127 49.1153 29.6129H41.9834C39.6892 29.6129 37.6386 28.1809 36.8487 26.027L35.4746 22.2809C34.7857 20.4018 35.1922 18.4636 36.2862 17.0494L36.6836 18.0328C36.7969 18.3126 37.1156 18.4487 37.3955 18.3356L41.4522 16.6969C41.7129 16.5914 41.8456 16.3073 41.7715 16.0426L41.3233 14.9342ZM45.1807 24.4811C45.0554 24.2263 44.7547 24.1065 44.4873 24.2145L40.4307 25.8531C40.1508 25.9662 40.0161 26.2852 40.1289 26.5651C40.2839 26.9522 40.6592 27.2075 41.0762 27.2076H41.8799L45.4678 27.1949C45.8547 27.1936 46.1185 26.8017 45.9737 26.443L45.1807 24.4811ZM43.0371 19.1754C42.9067 18.9335 42.6144 18.8222 42.3536 18.9274L38.2969 20.567C38.017 20.6802 37.882 20.9989 37.9952 21.2789L38.8145 23.3063C38.9278 23.5861 39.2465 23.7221 39.5264 23.609L43.5821 21.9703C43.8429 21.8649 43.9765 21.5808 43.9024 21.316L43.0371 19.1754Z" fill="white"/>
<path fill-rule="evenodd" clip-rule="evenodd" d="M41.3233 14.9342C43.0116 14.9908 44.5141 16.0391 45.1426 17.6168L49.6231 28.8639C49.7661 29.2229 49.5017 29.6127 49.1153 29.6129H41.9834C39.6892 29.6129 37.6386 28.1809 36.8487 26.027L35.4746 22.2809C34.7857 20.4018 35.1922 18.4636 36.2862 17.0494L36.6836 18.0328C36.7969 18.3126 37.1156 18.4487 37.3955 18.3356L41.4522 16.6969C41.7129 16.5914 41.8456 16.3073 41.7715 16.0426L41.3233 14.9342ZM45.1807 24.4811C45.0554 24.2263 44.7547 24.1065 44.4873 24.2145L40.4307 25.8531C40.1508 25.9662 40.0161 26.2852 40.1289 26.5651C40.2839 26.9522 40.6592 27.2075 41.0762 27.2076H41.8799L45.4678 27.1949C45.8547 27.1936 46.1185 26.8017 45.9737 26.443L45.1807 24.4811ZM43.0371 19.1754C42.9067 18.9335 42.6144 18.8222 42.3536 18.9274L38.2969 20.567C38.017 20.6802 37.882 20.9989 37.9952 21.2789L38.8145 23.3063C38.9278 23.5861 39.2465 23.7221 39.5264 23.609L43.5821 21.9703C43.8429 21.8649 43.9765 21.5808 43.9024 21.316L43.0371 19.1754Z" fill="url(#paint2_linear_5814_93034)"/>
<path d="M41.0664 20.7266C42.2042 17.7188 43.6343 16.1055 45.0789 17.4658C44.7828 16.7891 43.6891 14.2188 39.1226 14.2188H36.1224C33.847 14.2188 31.8099 15.6259 30.9857 17.7468C29.1233 22.5392 25.6824 31.1977 22.8531 37.2148C21.7344 39.5938 20.4195 40.3594 19.2694 39.2712C19.9546 41.3711 21.7866 43.5312 25.1773 43.5312H28.3849C30.6117 43.5312 32.6148 42.1822 33.4452 40.1161C35.3116 35.4723 38.684 27.0241 41.0664 20.7266Z" fill="white"/>
<path d="M41.0664 20.7266C42.2042 17.7188 43.6343 16.1055 45.0789 17.4658C44.7828 16.7891 43.6891 14.2188 39.1226 14.2188H36.1224C33.847 14.2188 31.8099 15.6259 30.9857 17.7468C29.1233 22.5392 25.6824 31.1977 22.8531 37.2148C21.7344 39.5938 20.4195 40.3594 19.2694 39.2712C19.9546 41.3711 21.7866 43.5312 25.1773 43.5312H28.3849C30.6117 43.5312 32.6148 42.1822 33.4452 40.1161C35.3116 35.4723 38.684 27.0241 41.0664 20.7266Z" fill="url(#paint3_linear_5814_93034)"/>
</g>
<defs>
<filter id="filter0_f_5814_93034" x="-6.32275" y="-0.25894" width="69.354" height="57.5787" filterUnits="userSpaceOnUse" color-interpolation-filters="sRGB">
<feFlood flood-opacity="0" result="BackgroundImageFix"/>
<feBlend mode="normal" in="SourceGraphic" in2="BackgroundImageFix" result="shape"/>
<feGaussianBlur stdDeviation="8.20312" result="effect1_foregroundBlur_5814_93034"/>
</filter>
<linearGradient id="paint0_linear_5814_93034" x1="33.56" y1="2.80388" x2="22.4668" y2="14.4662" gradientUnits="userSpaceOnUse">
<stop stop-color="#5A68FF"/>
<stop offset="1" stop-color="#3F31FF"/>
</linearGradient>
<linearGradient id="paint1_linear_5814_93034" x1="15.6851" y1="18.658" x2="26.0667" y2="33.1741" gradientUnits="userSpaceOnUse">
<stop stop-color="#CECECE"/>
<stop offset="1" stop-color="#4051FF"/>
</linearGradient>
<linearGradient id="paint2_linear_5814_93034" x1="46.4784" y1="28.949" x2="43.1035" y2="17.9632" gradientUnits="userSpaceOnUse">
<stop offset="1" stop-color="#4051FF"/>
</linearGradient>
<linearGradient id="paint3_linear_5814_93034" x1="43.5796" y1="17.7187" x2="33.6262" y2="48.1362" gradientUnits="userSpaceOnUse">
<stop stop-color="#EAEAEA"/>
<stop offset="1" stop-color="#4051FF"/>
</linearGradient>
<clipPath id="clip0_5814_93034">
<rect width="56" height="56" rx="12.3594" fill="white"/>
</clipPath>
</defs>
</svg>
