<svg width="41" height="30" viewBox="0 0 41 30" fill="none" xmlns="http://www.w3.org/2000/svg">
<path fill-rule="evenodd" clip-rule="evenodd" d="M7.60656 0C9.84452 9.68185e-05 11.8673 1.33357 12.7498 3.39019L22.1588 25.3175C23.1098 27.5336 21.484 30 19.0724 30H15.7642C13.2363 30 10.9652 28.4546 10.0373 26.1031L0.0396003 0.765592C-0.10533 0.398299 0.16547 0 0.560323 0H7.60656ZM17.6612 22.6319C17.5454 22.3454 17.2192 22.2074 16.9326 22.3231L12.7808 24.0002C12.5137 24.1081 12.3778 24.3978 12.454 24.6688L12.7068 25.2965C12.8226 25.583 13.1489 25.7209 13.4355 25.6053L17.5872 23.9282C17.8559 23.8196 17.9914 23.5271 17.9121 23.2546L17.6612 22.6319ZM15.4804 17.2348C15.3645 16.9483 15.0383 16.8102 14.7518 16.926L10.6 18.6031C10.333 18.7111 10.1971 19.0008 10.2731 19.2717L11.1587 21.4626C11.2924 21.71 11.5914 21.8242 11.8583 21.7164L16.0101 20.0393C16.2963 19.9235 16.4342 19.5971 16.3189 19.3107L15.4804 17.2348ZM13.2995 11.8377C13.1836 11.5513 12.8574 11.4131 12.5709 11.5289L8.42013 13.206C8.1531 13.3138 8.01632 13.6036 8.09231 13.8746L8.97783 16.0654C9.11153 16.3129 9.41058 16.4271 9.67746 16.3193L13.8292 14.6422C14.1156 14.5264 14.2534 14.2 14.1381 13.9136L13.2995 11.8377ZM11.1197 6.44057C11.0039 6.15415 10.6776 6.01618 10.3911 6.13173L6.23929 7.80884C5.97223 7.91674 5.83641 8.20647 5.91247 8.47748L6.797 10.6683C6.93065 10.9157 7.2298 11.0298 7.49662 10.9222L11.6484 9.24507C11.9348 9.12935 12.0736 8.80291 11.9582 8.51646L11.1197 6.44057ZM4.27434 2.46169C3.89759 2.48557 3.64765 2.87399 3.7916 3.23028L4.61716 5.27119C4.75086 5.51868 5.0499 5.63388 5.31679 5.52605L9.46857 3.84795C9.75463 3.73205 9.89269 3.40563 9.77741 3.11934C9.61879 2.72318 9.23465 2.46285 8.80792 2.46269L4.27434 2.46169Z" fill="white"/>
<path fill-rule="evenodd" clip-rule="evenodd" d="M7.60656 0C9.84452 9.68185e-05 11.8673 1.33357 12.7498 3.39019L22.1588 25.3175C23.1098 27.5336 21.484 30 19.0724 30H15.7642C13.2363 30 10.9652 28.4546 10.0373 26.1031L0.0396003 0.765592C-0.10533 0.398299 0.16547 0 0.560323 0H7.60656ZM17.6612 22.6319C17.5454 22.3454 17.2192 22.2074 16.9326 22.3231L12.7808 24.0002C12.5137 24.1081 12.3778 24.3978 12.454 24.6688L12.7068 25.2965C12.8226 25.583 13.1489 25.7209 13.4355 25.6053L17.5872 23.9282C17.8559 23.8196 17.9914 23.5271 17.9121 23.2546L17.6612 22.6319ZM15.4804 17.2348C15.3645 16.9483 15.0383 16.8102 14.7518 16.926L10.6 18.6031C10.333 18.7111 10.1971 19.0008 10.2731 19.2717L11.1587 21.4626C11.2924 21.71 11.5914 21.8242 11.8583 21.7164L16.0101 20.0393C16.2963 19.9235 16.4342 19.5971 16.3189 19.3107L15.4804 17.2348ZM13.2995 11.8377C13.1836 11.5513 12.8574 11.4131 12.5709 11.5289L8.42013 13.206C8.1531 13.3138 8.01632 13.6036 8.09231 13.8746L8.97783 16.0654C9.11153 16.3129 9.41058 16.4271 9.67746 16.3193L13.8292 14.6422C14.1156 14.5264 14.2534 14.2 14.1381 13.9136L13.2995 11.8377ZM11.1197 6.44057C11.0039 6.15415 10.6776 6.01618 10.3911 6.13173L6.23929 7.80884C5.97223 7.91674 5.83641 8.20647 5.91247 8.47748L6.797 10.6683C6.93065 10.9157 7.2298 11.0298 7.49662 10.9222L11.6484 9.24507C11.9348 9.12935 12.0736 8.80291 11.9582 8.51646L11.1197 6.44057ZM4.27434 2.46169C3.89759 2.48557 3.64765 2.87399 3.7916 3.23028L4.61716 5.27119C4.75086 5.51868 5.0499 5.63388 5.31679 5.52605L9.46857 3.84795C9.75463 3.73205 9.89269 3.40563 9.77741 3.11934C9.61879 2.72318 9.23465 2.46285 8.80792 2.46269L4.27434 2.46169Z" fill="url(#paint0_linear_0_4)"/>
<path fill-rule="evenodd" clip-rule="evenodd" d="M32.4415 0.732234C34.1694 0.790179 35.7071 1.86302 36.3504 3.47777L40.936 14.9886C41.0823 15.3561 40.8117 15.755 40.4162 15.7552H33.1171C30.7691 15.7552 28.6703 14.2896 27.8619 12.0852L26.4557 8.25122C25.7506 6.32804 26.1666 4.34444 27.2862 2.89708L27.693 3.90354C27.8089 4.18991 28.1351 4.32912 28.4216 4.21338L32.5734 2.53627C32.8402 2.42833 32.9761 2.13751 32.9002 1.86663L32.4415 0.732234ZM36.3894 10.503C36.2612 10.2423 35.9534 10.1196 35.6798 10.2302L31.528 11.9073C31.2416 12.023 31.1037 12.3494 31.2191 12.6359C31.3778 13.0321 31.7619 13.2934 32.1886 13.2935H33.0112L36.6832 13.2805C37.0792 13.2792 37.3492 12.8781 37.2009 12.511L36.3894 10.503ZM34.1955 5.07292C34.062 4.82532 33.7629 4.71144 33.4959 4.81905L29.3441 6.49716C29.0576 6.61301 28.9195 6.93922 29.0353 7.22577L29.8739 9.30066C29.9898 9.58703 30.316 9.72625 30.6025 9.6105L34.7533 7.93339C35.0202 7.82549 35.1569 7.53467 35.0811 7.26375L34.1955 5.07292Z" fill="white"/>
<path fill-rule="evenodd" clip-rule="evenodd" d="M32.4415 0.732234C34.1694 0.790179 35.7071 1.86302 36.3504 3.47777L40.936 14.9886C41.0823 15.3561 40.8117 15.755 40.4162 15.7552H33.1171C30.7691 15.7552 28.6703 14.2896 27.8619 12.0852L26.4557 8.25122C25.7506 6.32804 26.1666 4.34444 27.2862 2.89708L27.693 3.90354C27.8089 4.18991 28.1351 4.32912 28.4216 4.21338L32.5734 2.53627C32.8402 2.42833 32.9761 2.13751 32.9002 1.86663L32.4415 0.732234ZM36.3894 10.503C36.2612 10.2423 35.9534 10.1196 35.6798 10.2302L31.528 11.9073C31.2416 12.023 31.1037 12.3494 31.2191 12.6359C31.3778 13.0321 31.7619 13.2934 32.1886 13.2935H33.0112L36.6832 13.2805C37.0792 13.2792 37.3492 12.8781 37.2009 12.511L36.3894 10.503ZM34.1955 5.07292C34.062 4.82532 33.7629 4.71144 33.4959 4.81905L29.3441 6.49716C29.0576 6.61301 28.9195 6.93922 29.0353 7.22577L29.8739 9.30066C29.9898 9.58703 30.316 9.72625 30.6025 9.6105L34.7533 7.93339C35.0202 7.82549 35.1569 7.53467 35.0811 7.26375L34.1955 5.07292Z" fill="url(#paint1_linear_0_4)"/>
<path d="M32.1786 6.66045C33.3431 3.58209 34.8067 1.93097 36.2851 3.32323C35.9822 2.6306 34.8628 0 30.1892 0H27.1186C24.7898 0 22.705 1.44016 21.8614 3.61081C19.9554 8.5156 16.4338 17.3772 13.5381 23.5354C12.3932 25.9701 11.0474 26.7537 9.87033 25.64C10.5716 27.7892 12.4466 30 15.9168 30H19.1996C21.4786 30 23.5287 28.6193 24.3787 26.5047C26.2888 21.7521 29.7403 13.1057 32.1786 6.66045Z" fill="white"/>
<path d="M32.1786 6.66045C33.3431 3.58209 34.8067 1.93097 36.2851 3.32323C35.9822 2.6306 34.8628 0 30.1892 0H27.1186C24.7898 0 22.705 1.44016 21.8614 3.61081C19.9554 8.5156 16.4338 17.3772 13.5381 23.5354C12.3932 25.9701 11.0474 26.7537 9.87033 25.64C10.5716 27.7892 12.4466 30 15.9168 30H19.1996C21.4786 30 23.5287 28.6193 24.3787 26.5047C26.2888 21.7521 29.7403 13.1057 32.1786 6.66045Z" fill="url(#paint2_linear_0_4)"/>
<defs>
<linearGradient id="paint0_linear_0_4" x1="6.20194" y1="4.54337" x2="16.8271" y2="19.3999" gradientUnits="userSpaceOnUse">
<stop stop-color="#CECECE"/>
<stop offset="1" stop-color="#4051FF"/>
</linearGradient>
<linearGradient id="paint1_linear_0_4" x1="37.7175" y1="15.0757" x2="34.2635" y2="3.83222" gradientUnits="userSpaceOnUse">
<stop offset="1" stop-color="#4051FF"/>
</linearGradient>
<linearGradient id="paint2_linear_0_4" x1="34.7508" y1="3.58208" x2="24.5638" y2="34.7129" gradientUnits="userSpaceOnUse">
<stop stop-color="#EAEAEA"/>
<stop offset="1" stop-color="#4051FF"/>
</linearGradient>
</defs>
</svg>
