<svg width="36" height="36" viewBox="0 0 36 36" fill="none" xmlns="http://www.w3.org/2000/svg">
<g clip-path="url(#clip0_35611_66234)">
<g filter="url(#filter0_f_35611_66234)">
<ellipse cx="18" cy="27.0004" rx="12.6" ry="3.6" fill="#91221B"/>
</g>
<path d="M24.75 7.875C24.75 6.01104 23.239 4.5 21.375 4.5C19.511 4.5 18 6.01104 18 7.875V11.25H21.375C23.239 11.25 24.75 9.73896 24.75 7.875Z" stroke="url(#paint0_linear_35611_66234)" stroke-width="2" stroke-linejoin="round"/>
<path d="M11.25 7.875C11.25 6.01104 12.761 4.5 14.625 4.5C16.489 4.5 18 6.01104 18 7.875V11.25H14.625C12.761 11.25 11.25 9.73896 11.25 7.875Z" stroke="url(#paint1_linear_35611_66234)" stroke-width="2" stroke-linejoin="round"/>
<path d="M4.5 22C4.5 23.1046 5.39543 24 6.5 24H29.5C30.6046 24 31.5 23.1046 31.5 22V12.5C31.5 11.3954 30.6046 10.5 29.5 10.5H6.5C5.39543 10.5 4.5 11.3954 4.5 12.5V22Z" fill="url(#paint2_linear_35611_66234)"/>
<path d="M5.24992 25.5H30.7499V29.5C30.7499 30.6046 29.8545 31.5 28.7499 31.5H7.24992C6.14535 31.5 5.24992 30.6046 5.24992 29.5V25.5Z" fill="url(#paint3_linear_35611_66234)"/>
<path d="M15.75 10.5H20.25V24H15.75V10.5Z" fill="url(#paint4_linear_35611_66234)"/>
</g>
<defs>
<filter id="filter0_f_35611_66234" x="-1.8" y="16.2004" width="39.6" height="21.6002" filterUnits="userSpaceOnUse" color-interpolation-filters="sRGB">
<feFlood flood-opacity="0" result="BackgroundImageFix"/>
<feBlend mode="normal" in="SourceGraphic" in2="BackgroundImageFix" result="shape"/>
<feGaussianBlur stdDeviation="3.6" result="effect1_foregroundBlur_35611_66234"/>
</filter>
<linearGradient id="paint0_linear_35611_66234" x1="21.375" y1="4.5" x2="21.375" y2="11.25" gradientUnits="userSpaceOnUse">
<stop offset="0.581731" stop-color="#FFD1B4"/>
<stop offset="1" stop-color="#FF9C45"/>
</linearGradient>
<linearGradient id="paint1_linear_35611_66234" x1="14.625" y1="4.5" x2="14.625" y2="11.25" gradientUnits="userSpaceOnUse">
<stop offset="0.581731" stop-color="#FFD1B4"/>
<stop offset="1" stop-color="#FF9C45"/>
</linearGradient>
<linearGradient id="paint2_linear_35611_66234" x1="4.5" y1="10.5" x2="35.5" y2="27.5" gradientUnits="userSpaceOnUse">
<stop stop-color="#FF5313"/>
<stop offset="0.645209" stop-color="#FF8833"/>
<stop offset="1" stop-color="#81FFF7"/>
</linearGradient>
<linearGradient id="paint3_linear_35611_66234" x1="5.50005" y1="28.5" x2="30.7499" y2="28.5" gradientUnits="userSpaceOnUse">
<stop stop-color="#FF351C"/>
<stop offset="1" stop-color="#FF710B"/>
</linearGradient>
<linearGradient id="paint4_linear_35611_66234" x1="18" y1="19" x2="18" y2="24" gradientUnits="userSpaceOnUse">
<stop stop-color="#FFBF97"/>
<stop offset="1" stop-color="#FFE9B7" stop-opacity="0"/>
</linearGradient>
<clipPath id="clip0_35611_66234">
<rect width="36" height="36" fill="white"/>
</clipPath>
</defs>
</svg>
