<svg width="32" height="32" viewBox="0 0 32 32" fill="none" xmlns="http://www.w3.org/2000/svg">
<circle cx="16" cy="16" r="16" fill="#F6610F"/>
<path d="M21.3627 14.6877C22.4381 15.3891 22.4381 16.9644 21.3627 17.6658L14.1285 22.3839C12.9459 23.1551 11.3795 22.3066 11.3795 20.8948L11.3795 11.4587C11.3795 10.0469 12.9459 9.19836 14.1285 9.9696L21.3627 14.6877Z" fill="white"/>
<circle cx="16" cy="16" r="16" fill="#F6610F"/>
<path d="M21.3627 14.6877C22.4381 15.3891 22.4381 16.9644 21.3627 17.6658L14.1285 22.3839C12.9459 23.1551 11.3795 22.3066 11.3795 20.8948L11.3795 11.4587C11.3795 10.0469 12.9459 9.19836 14.1285 9.9696L21.3627 14.6877Z" fill="white"/>
</svg>
