<svg width="12" height="12" viewBox="0 0 12 12" fill="none" xmlns="http://www.w3.org/2000/svg">
<path fill-rule="evenodd" clip-rule="evenodd" d="M2.47507 1.88135C3.08692 1.88139 3.63991 2.24592 3.88132 2.80811L6.45456 8.80518C6.71439 9.41111 6.27013 10.0854 5.61081 10.0854H4.70554C4.0145 10.0853 3.39391 9.66276 3.14011 9.02002L0.405736 2.09033C0.366341 1.98997 0.440433 1.88135 0.548314 1.88135H2.47507ZM5.02488 7.98584L3.89011 8.44482C3.81371 8.47591 3.77625 8.56125 3.80417 8.63818L3.8696 8.79932C3.90123 8.87752 3.99056 8.91564 4.06882 8.88428L5.20456 8.42529C5.28004 8.39469 5.31631 8.31106 5.2905 8.23486L5.2241 8.06982C5.19222 7.99187 5.10304 7.95427 5.02488 7.98584ZM4.42917 6.51025L3.29343 6.96924C3.21692 7.00038 3.18029 7.08557 3.20847 7.1626L3.44089 7.73877C3.47406 7.81396 3.56042 7.85062 3.63718 7.81982L4.77292 7.36182C4.85124 7.33012 4.88953 7.23997 4.85788 7.16162L4.62839 6.59424C4.59668 6.51616 4.50738 6.47887 4.42917 6.51025ZM3.83249 5.03467L2.69675 5.49268C2.62038 5.52386 2.58369 5.61006 2.61179 5.68701L2.84519 6.26318C2.87829 6.33822 2.96385 6.37471 3.0405 6.34424L4.17624 5.88525C4.25457 5.85359 4.29279 5.76438 4.2612 5.68604L4.03171 5.11865C3.99992 5.04053 3.91074 5.00307 3.83249 5.03467ZM3.23581 3.55811L2.10105 4.01709C2.0246 4.04824 1.98797 4.13346 2.01609 4.21045L2.24851 4.7876C2.28168 4.86274 2.36806 4.8994 2.4448 4.86865L3.58054 4.40967C3.65857 4.37789 3.69596 4.28864 3.66453 4.21045L3.43503 3.64209C3.40315 3.56415 3.31397 3.52654 3.23581 3.55811ZM1.57273 2.55518L1.53367 2.56006C1.44809 2.58299 1.39591 2.6776 1.43113 2.76514L1.65281 3.31201C1.68612 3.38684 1.77154 3.42278 1.84812 3.39209L2.98386 2.93408C3.06222 2.90241 3.10048 2.81225 3.06882 2.73389C3.02537 2.62569 2.91982 2.55519 2.8032 2.55518H1.57273Z" fill="white"/>
<path fill-rule="evenodd" clip-rule="evenodd" d="M2.47507 1.88135C3.08692 1.88139 3.63991 2.24592 3.88132 2.80811L6.45456 8.80518C6.71439 9.41111 6.27013 10.0854 5.61081 10.0854H4.70554C4.0145 10.0853 3.39391 9.66276 3.14011 9.02002L0.405736 2.09033C0.366341 1.98997 0.440433 1.88135 0.548314 1.88135H2.47507ZM5.02488 7.98584L3.89011 8.44482C3.81371 8.47591 3.77625 8.56125 3.80417 8.63818L3.8696 8.79932C3.90123 8.87752 3.99056 8.91564 4.06882 8.88428L5.20456 8.42529C5.28004 8.39469 5.31631 8.31106 5.2905 8.23486L5.2241 8.06982C5.19222 7.99187 5.10304 7.95427 5.02488 7.98584ZM4.42917 6.51025L3.29343 6.96924C3.21692 7.00038 3.18029 7.08557 3.20847 7.1626L3.44089 7.73877C3.47406 7.81396 3.56042 7.85062 3.63718 7.81982L4.77292 7.36182C4.85124 7.33012 4.88953 7.23997 4.85788 7.16162L4.62839 6.59424C4.59668 6.51616 4.50738 6.47887 4.42917 6.51025ZM3.83249 5.03467L2.69675 5.49268C2.62038 5.52386 2.58369 5.61006 2.61179 5.68701L2.84519 6.26318C2.87829 6.33822 2.96385 6.37471 3.0405 6.34424L4.17624 5.88525C4.25457 5.85359 4.29279 5.76438 4.2612 5.68604L4.03171 5.11865C3.99992 5.04053 3.91074 5.00307 3.83249 5.03467ZM3.23581 3.55811L2.10105 4.01709C2.0246 4.04824 1.98797 4.13346 2.01609 4.21045L2.24851 4.7876C2.28168 4.86274 2.36806 4.8994 2.4448 4.86865L3.58054 4.40967C3.65857 4.37789 3.69596 4.28864 3.66453 4.21045L3.43503 3.64209C3.40315 3.56415 3.31397 3.52654 3.23581 3.55811ZM1.57273 2.55518L1.53367 2.56006C1.44809 2.58299 1.39591 2.6776 1.43113 2.76514L1.65281 3.31201C1.68612 3.38684 1.77154 3.42278 1.84812 3.39209L2.98386 2.93408C3.06222 2.90241 3.10048 2.81225 3.06882 2.73389C3.02537 2.62569 2.91982 2.55519 2.8032 2.55518H1.57273Z" fill="url(#paint0_linear_0_548)"/>
<path fill-rule="evenodd" clip-rule="evenodd" d="M9.26684 2.08301C9.73942 2.09881 10.1602 2.3914 10.3362 2.83301L11.5901 5.98047C11.63 6.08095 11.5557 6.19043 11.4475 6.19043H9.45141C8.80944 6.19033 8.23595 5.78924 8.01488 5.18652L7.63012 4.1377C7.43759 3.6123 7.55213 3.07144 7.85766 2.67578L7.96899 2.94922C8.00079 3.02726 8.09 3.06472 8.16821 3.0332L9.30297 2.5752C9.37804 2.54477 9.41481 2.4616 9.38988 2.38574L9.26684 2.08301ZM10.1526 4.67871L9.01781 5.1377C8.93954 5.16939 8.90125 5.25957 8.93285 5.33789C8.97636 5.44568 9.08124 5.51639 9.1975 5.5166L9.45727 5.51758L10.427 5.51367C10.5349 5.51306 10.6085 5.40382 10.5686 5.30371L10.3469 4.75586C10.3122 4.68374 10.2278 4.6484 10.1526 4.67871ZM9.55492 3.19922L8.41918 3.6582C8.34163 3.69007 8.30419 3.77854 8.3352 3.85645L8.56469 4.4248C8.59641 4.50277 8.68578 4.54101 8.76391 4.50977L9.89867 4.05078C9.97385 4.02041 10.0106 3.93727 9.98559 3.86133L9.74926 3.27539C9.71443 3.20356 9.63005 3.16887 9.55492 3.19922Z" fill="url(#paint1_linear_0_548)"/>
<path d="M9.19487 3.70274C9.51333 2.86092 9.91358 2.4094 10.3179 2.79013C10.235 2.60072 9.9289 1.88135 8.65084 1.88135H7.81116C7.17432 1.88135 6.60418 2.27518 6.3735 2.86877C5.85227 4.21006 4.88923 6.63339 4.09735 8.31745C3.78428 8.98325 3.41624 9.19754 3.09436 8.89297C3.28615 9.48069 3.79889 10.0853 4.74785 10.0853H5.64559C6.26882 10.0853 6.82945 9.70771 7.06187 9.12944C7.58424 7.82976 8.52809 5.4653 9.19487 3.70274Z" fill="white"/>
<path d="M9.19487 3.70274C9.51333 2.86092 9.91358 2.4094 10.3179 2.79013C10.235 2.60072 9.9289 1.88135 8.65084 1.88135H7.81116C7.17432 1.88135 6.60418 2.27518 6.3735 2.86877C5.85227 4.21006 4.88923 6.63339 4.09735 8.31745C3.78428 8.98325 3.41624 9.19754 3.09436 8.89297C3.28615 9.48069 3.79889 10.0853 4.74785 10.0853H5.64559C6.26882 10.0853 6.82945 9.70771 7.06187 9.12944C7.58424 7.82976 8.52809 5.4653 9.19487 3.70274Z" fill="url(#paint2_linear_0_548)"/>
<defs>
<linearGradient id="paint0_linear_0_548" x1="2.09098" y1="3.12382" x2="4.99668" y2="7.18651" gradientUnits="userSpaceOnUse">
<stop stop-color="#CECECE"/>
<stop offset="1" stop-color="#4051FF"/>
</linearGradient>
<linearGradient id="paint1_linear_0_548" x1="10.71" y1="6.00465" x2="9.7657" y2="2.93051" gradientUnits="userSpaceOnUse">
<stop offset="1" stop-color="#4051FF"/>
</linearGradient>
<linearGradient id="paint2_linear_0_548" x1="9.89827" y1="2.86092" x2="7.11251" y2="11.3741" gradientUnits="userSpaceOnUse">
<stop stop-color="#EAEAEA"/>
<stop offset="1" stop-color="#4051FF"/>
</linearGradient>
</defs>
</svg>
