<svg width="40" height="40" viewBox="0 0 40 40" fill="none" xmlns="http://www.w3.org/2000/svg">
<path fill-rule="evenodd" clip-rule="evenodd" d="M8.25089 6.27148C10.2909 6.27148 12.1348 7.48673 12.9394 9.36133L21.5165 29.3496C22.3834 31.3697 20.9013 33.6182 18.703 33.6182H15.6874C13.3831 33.6181 11.3125 32.2089 10.4667 30.0654L1.35343 6.96875C1.22146 6.63399 1.46817 6.27148 1.82804 6.27148H8.25089ZM17.4159 26.9014C17.3102 26.6407 17.0128 26.515 16.7519 26.6201L12.9677 28.1494C12.7263 28.2471 12.6012 28.5076 12.6669 28.7529L12.9003 29.3311C13.0059 29.5921 13.3032 29.7185 13.5644 29.6133L17.3495 28.084C17.5943 27.9848 17.7177 27.718 17.6454 27.4697L17.4159 26.9014ZM15.4286 21.9814C15.323 21.7205 15.0247 21.5949 14.7636 21.7002L10.9804 23.2295C10.7388 23.3271 10.6139 23.5876 10.6796 23.833L11.4901 25.8398C11.6132 26.0625 11.8851 26.1651 12.1269 26.0674L15.911 24.5391C16.1718 24.4334 16.2984 24.135 16.1933 23.874L15.4286 21.9814ZM13.4403 17.0625C13.3347 16.8015 13.0374 16.6759 12.7763 16.7812L8.9921 18.3096C8.74725 18.4086 8.6239 18.6756 8.6962 18.9238L9.49893 20.9111C9.61937 21.1403 9.89446 21.2475 10.1396 21.1484L13.9228 19.6191C14.1837 19.5136 14.3101 19.2161 14.205 18.9551L13.4403 17.0625ZM11.453 12.1426C11.3474 11.8816 11.0491 11.755 10.788 11.8604L7.00479 13.3896C6.76317 13.4873 6.63813 13.7486 6.70401 13.9941L7.51456 16.001C7.63763 16.2235 7.90962 16.326 8.15128 16.2285L11.9355 14.6992C12.1963 14.5936 12.3229 14.2952 12.2177 14.0342L11.453 12.1426ZM5.20792 8.51562C4.86749 8.54054 4.64315 8.89277 4.77335 9.21582L5.52725 11.0811C5.65035 11.3037 5.92223 11.4063 6.16397 11.3086L9.94815 9.78027C10.2089 9.67463 10.3354 9.37617 10.2304 9.11523C10.0858 8.75405 9.73463 8.51676 9.34561 8.5166L5.20792 8.51562Z" fill="white"/>
<path fill-rule="evenodd" clip-rule="evenodd" d="M8.25089 6.27148C10.2909 6.27148 12.1348 7.48673 12.9394 9.36133L21.5165 29.3496C22.3834 31.3697 20.9013 33.6182 18.703 33.6182H15.6874C13.3831 33.6181 11.3125 32.2089 10.4667 30.0654L1.35343 6.96875C1.22146 6.63399 1.46817 6.27148 1.82804 6.27148H8.25089ZM17.4159 26.9014C17.3102 26.6407 17.0128 26.515 16.7519 26.6201L12.9677 28.1494C12.7263 28.2471 12.6012 28.5076 12.6669 28.7529L12.9003 29.3311C13.0059 29.5921 13.3032 29.7185 13.5644 29.6133L17.3495 28.084C17.5943 27.9848 17.7177 27.718 17.6454 27.4697L17.4159 26.9014ZM15.4286 21.9814C15.323 21.7205 15.0247 21.5949 14.7636 21.7002L10.9804 23.2295C10.7388 23.3271 10.6139 23.5876 10.6796 23.833L11.4901 25.8398C11.6132 26.0625 11.8851 26.1651 12.1269 26.0674L15.911 24.5391C16.1718 24.4334 16.2984 24.135 16.1933 23.874L15.4286 21.9814ZM13.4403 17.0625C13.3347 16.8015 13.0374 16.6759 12.7763 16.7812L8.9921 18.3096C8.74725 18.4086 8.6239 18.6756 8.6962 18.9238L9.49893 20.9111C9.61937 21.1403 9.89446 21.2475 10.1396 21.1484L13.9228 19.6191C14.1837 19.5136 14.3101 19.2161 14.205 18.9551L13.4403 17.0625ZM11.453 12.1426C11.3474 11.8816 11.0491 11.755 10.788 11.8604L7.00479 13.3896C6.76317 13.4873 6.63813 13.7486 6.70401 13.9941L7.51456 16.001C7.63763 16.2235 7.90962 16.326 8.15128 16.2285L11.9355 14.6992C12.1963 14.5936 12.3229 14.2952 12.2177 14.0342L11.453 12.1426ZM5.20792 8.51562C4.86749 8.54054 4.64315 8.89277 4.77335 9.21582L5.52725 11.0811C5.65035 11.3037 5.92223 11.4063 6.16397 11.3086L9.94815 9.78027C10.2089 9.67463 10.3354 9.37617 10.2304 9.11523C10.0858 8.75405 9.73463 8.51676 9.34561 8.5166L5.20792 8.51562Z" fill="url(#paint0_linear_0_750)"/>
<path fill-rule="evenodd" clip-rule="evenodd" d="M30.891 6.93945C32.4656 6.99263 33.8662 7.97006 34.4525 9.44141L38.6332 19.9346C38.7666 20.2695 38.52 20.6335 38.1596 20.6338H31.5053C29.3651 20.6337 27.4521 19.2974 26.7152 17.2881L25.434 13.7939C24.7911 12.0408 25.1703 10.2325 26.1908 8.91309L26.5619 9.83105C26.6676 10.0919 26.965 10.2185 27.226 10.1133L31.0102 8.58398C31.2567 8.48437 31.3804 8.21456 31.3051 7.96484L30.891 6.93945ZM34.4926 15.8555C34.3783 15.6121 34.0945 15.4959 33.8422 15.5977L30.058 17.126C29.7968 17.2315 29.6704 17.5298 29.7758 17.791C29.9204 18.1521 30.2706 18.3895 30.6596 18.3896H31.6625L34.7572 18.3779C35.1179 18.3764 35.364 18.0113 35.2289 17.6768L34.4926 15.8555ZM32.4926 10.9062C32.3733 10.6744 32.0974 10.5656 31.851 10.665L28.0658 12.1943C27.8052 12.3001 27.6793 12.5975 27.7846 12.8584L28.5492 14.75C28.6547 15.0112 28.9521 15.1376 29.2133 15.0322L32.9975 13.5039C33.2439 13.4042 33.3677 13.1335 33.2924 12.8838L32.4926 10.9062Z" fill="url(#paint1_linear_0_750)"/>
<path d="M30.65 12.3428C31.7115 9.53673 33.0457 8.03166 34.3933 9.30077C34.1171 8.6694 33.0967 6.27148 28.8365 6.27148H26.0376C23.9148 6.27148 22.0143 7.58425 21.2454 9.5629C19.508 14.0339 16.2978 22.1116 13.6583 27.7252C12.6147 29.9445 11.3879 30.6588 10.3149 29.6436C10.9542 31.6026 12.6634 33.6179 15.8266 33.6179H18.819C20.8965 33.6179 22.7652 32.3594 23.54 30.4318C25.2812 26.0995 28.4274 18.218 30.65 12.3428Z" fill="white"/>
<path d="M30.65 12.3428C31.7115 9.53673 33.0457 8.03166 34.3933 9.30077C34.1171 8.6694 33.0967 6.27148 28.8365 6.27148H26.0376C23.9148 6.27148 22.0143 7.58425 21.2454 9.5629C19.508 14.0339 16.2978 22.1116 13.6583 27.7252C12.6147 29.9445 11.3879 30.6588 10.3149 29.6436C10.9542 31.6026 12.6634 33.6179 15.8266 33.6179H18.819C20.8965 33.6179 22.7652 32.3594 23.54 30.4318C25.2812 26.0995 28.4274 18.218 30.65 12.3428Z" fill="url(#paint2_linear_0_750)"/>
<defs>
<linearGradient id="paint0_linear_0_750" x1="6.97083" y1="10.413" x2="16.6562" y2="23.9557" gradientUnits="userSpaceOnUse">
<stop stop-color="#CECECE"/>
<stop offset="1" stop-color="#4051FF"/>
</linearGradient>
<linearGradient id="paint1_linear_0_750" x1="35.6995" y1="20.0144" x2="32.5508" y2="9.76531" gradientUnits="userSpaceOnUse">
<stop offset="1" stop-color="#4051FF"/>
</linearGradient>
<linearGradient id="paint2_linear_0_750" x1="32.9947" y1="9.53672" x2="23.7088" y2="37.914" gradientUnits="userSpaceOnUse">
<stop stop-color="#EAEAEA"/>
<stop offset="1" stop-color="#4051FF"/>
</linearGradient>
</defs>
</svg>
