<svg width="98" height="24" viewBox="0 0 98 24" fill="none" xmlns="http://www.w3.org/2000/svg">
<path d="M0 8C0 3.58172 3.58172 0 8 0H90C94.4183 0 98 3.58172 98 8V16C98 20.4183 94.4183 24 90 24H8C3.58172 24 0 20.4183 0 16V8Z" fill="url(#paint0_linear_52_16693)"/>
<path d="M11.6667 10.6667C11.6667 8.27343 13.6068 6.33333 16.0001 6.33333C18.3933 6.33333 20.3334 8.27343 20.3334 10.6667V16H11.6667V10.6667Z" fill="#141621"/>
<path d="M15.3335 5.33333H16.6668V7.33333H15.3335V5.33333Z" fill="#141621"/>
<path d="M17.3337 17.3333C17.3337 18.0697 16.7361 18.6663 15.9998 18.6663C15.2635 18.6662 14.6667 18.0696 14.6667 17.3333H17.3337Z" fill="#141621"/>
<rect x="10.6667" y="14.6667" width="10.6667" height="1.33333" fill="#141621"/>
<path d="M25.128 17V8.6H28.776C29.28 8.6 29.74 8.72 30.156 8.96C30.572 9.192 30.9 9.512 31.14 9.92C31.388 10.32 31.512 10.772 31.512 11.276C31.512 11.756 31.388 12.2 31.14 12.608C30.9 13.008 30.572 13.328 30.156 13.568C29.748 13.8 29.288 13.916 28.776 13.916H26.652V17H25.128ZM30 17L27.864 13.208L29.472 12.908L31.848 17.012L30 17ZM26.652 12.56H28.788C29.02 12.56 29.22 12.508 29.388 12.404C29.564 12.292 29.7 12.14 29.796 11.948C29.892 11.756 29.94 11.544 29.94 11.312C29.94 11.048 29.88 10.82 29.76 10.628C29.64 10.436 29.472 10.284 29.256 10.172C29.04 10.06 28.792 10.004 28.512 10.004H26.652V12.56ZM35.9608 17.12C35.2968 17.12 34.7088 16.98 34.1968 16.7C33.6928 16.42 33.2968 16.04 33.0088 15.56C32.7288 15.072 32.5888 14.516 32.5888 13.892C32.5888 13.396 32.6688 12.944 32.8288 12.536C32.9888 12.128 33.2088 11.776 33.4888 11.48C33.7768 11.176 34.1168 10.944 34.5088 10.784C34.9088 10.616 35.3448 10.532 35.8168 10.532C36.2328 10.532 36.6208 10.612 36.9808 10.772C37.3408 10.932 37.6528 11.152 37.9168 11.432C38.1808 11.704 38.3808 12.032 38.5168 12.416C38.6608 12.792 38.7288 13.204 38.7208 13.652L38.7088 14.168H33.5848L33.3088 13.16H37.4728L37.2808 13.364V13.1C37.2568 12.852 37.1768 12.636 37.0408 12.452C36.9048 12.26 36.7288 12.112 36.5128 12.008C36.3048 11.896 36.0728 11.84 35.8168 11.84C35.4248 11.84 35.0928 11.916 34.8208 12.068C34.5568 12.22 34.3568 12.44 34.2208 12.728C34.0848 13.008 34.0168 13.36 34.0168 13.784C34.0168 14.192 34.1008 14.548 34.2688 14.852C34.4448 15.156 34.6888 15.392 35.0008 15.56C35.3208 15.72 35.6928 15.8 36.1168 15.8C36.4128 15.8 36.6848 15.752 36.9328 15.656C37.1808 15.56 37.4488 15.388 37.7368 15.14L38.4688 16.16C38.2528 16.36 38.0048 16.532 37.7248 16.676C37.4528 16.812 37.1648 16.92 36.8608 17C36.5568 17.08 36.2568 17.12 35.9608 17.12ZM40.0041 17V10.676H41.4561L41.4801 11.948L41.2401 12.044C41.3121 11.836 41.4201 11.644 41.5641 11.468C41.7081 11.284 41.8801 11.128 42.0801 11C42.2801 10.864 42.4921 10.76 42.7161 10.688C42.9401 10.608 43.1681 10.568 43.4001 10.568C43.7441 10.568 44.0481 10.624 44.3121 10.736C44.5841 10.84 44.8081 11.008 44.9841 11.24C45.1681 11.472 45.3041 11.768 45.3921 12.128L45.1641 12.08L45.2601 11.888C45.3481 11.696 45.4721 11.524 45.6321 11.372C45.7921 11.212 45.9721 11.072 46.1721 10.952C46.3721 10.824 46.5801 10.728 46.7961 10.664C47.0201 10.6 47.2401 10.568 47.4561 10.568C47.9361 10.568 48.3361 10.664 48.6561 10.856C48.9761 11.048 49.2161 11.34 49.3761 11.732C49.5361 12.124 49.6161 12.608 49.6161 13.184V17H48.1281V13.28C48.1281 12.96 48.0841 12.696 47.9961 12.488C47.9161 12.28 47.7881 12.128 47.6121 12.032C47.4441 11.928 47.2321 11.876 46.9761 11.876C46.7761 11.876 46.5841 11.912 46.4001 11.984C46.2241 12.048 46.0721 12.144 45.9441 12.272C45.8161 12.392 45.7161 12.532 45.6441 12.692C45.5721 12.852 45.5361 13.028 45.5361 13.22V17H44.0481V13.268C44.0481 12.964 44.0041 12.712 43.9161 12.512C43.8281 12.304 43.7001 12.148 43.5321 12.044C43.3641 11.932 43.1601 11.876 42.9201 11.876C42.7201 11.876 42.5321 11.912 42.3561 11.984C42.1801 12.048 42.0281 12.14 41.9001 12.26C41.7721 12.38 41.6721 12.52 41.6001 12.68C41.5281 12.84 41.4921 13.016 41.4921 13.208V17H40.0041ZM51.4226 17V10.676H52.8986V17H51.4226ZM52.1426 9.332C51.8466 9.332 51.6146 9.26 51.4466 9.116C51.2866 8.964 51.2066 8.752 51.2066 8.48C51.2066 8.224 51.2906 8.016 51.4586 7.856C51.6266 7.696 51.8546 7.616 52.1426 7.616C52.4466 7.616 52.6786 7.692 52.8386 7.844C53.0066 7.988 53.0906 8.2 53.0906 8.48C53.0906 8.728 53.0066 8.932 52.8386 9.092C52.6706 9.252 52.4386 9.332 52.1426 9.332ZM54.7703 17V10.676H56.2103L56.2343 11.972L55.9583 12.116C56.0383 11.828 56.1943 11.568 56.4263 11.336C56.6583 11.096 56.9343 10.904 57.2543 10.76C57.5743 10.616 57.9023 10.544 58.2383 10.544C58.7183 10.544 59.1183 10.64 59.4383 10.832C59.7663 11.024 60.0103 11.312 60.1703 11.696C60.3383 12.08 60.4223 12.56 60.4223 13.136V17H58.9463V13.244C58.9463 12.924 58.9023 12.66 58.8143 12.452C58.7263 12.236 58.5903 12.08 58.4063 11.984C58.2223 11.88 57.9983 11.832 57.7343 11.84C57.5183 11.84 57.3183 11.876 57.1343 11.948C56.9583 12.012 56.8023 12.108 56.6663 12.236C56.5383 12.356 56.4343 12.496 56.3543 12.656C56.2823 12.816 56.2463 12.992 56.2463 13.184V17H55.5143C55.3703 17 55.2343 17 55.1063 17C54.9863 17 54.8743 17 54.7703 17ZM64.6268 17.12C64.0668 17.12 63.5628 16.98 63.1148 16.7C62.6748 16.412 62.3228 16.024 62.0588 15.536C61.8028 15.04 61.6748 14.472 61.6748 13.832C61.6748 13.2 61.8028 12.636 62.0588 12.14C62.3148 11.644 62.6628 11.256 63.1028 10.976C63.5508 10.688 64.0548 10.544 64.6148 10.544C64.9188 10.544 65.2108 10.592 65.4908 10.688C65.7788 10.784 66.0348 10.916 66.2588 11.084C66.4828 11.244 66.6588 11.424 66.7868 11.624C66.9228 11.824 66.9988 12.032 67.0148 12.248L66.6188 12.296V8.12H68.0948V17H66.6668L66.6308 15.512L66.9188 15.536C66.9108 15.736 66.8388 15.928 66.7028 16.112C66.5748 16.296 66.4068 16.464 66.1988 16.616C65.9908 16.768 65.7468 16.892 65.4668 16.988C65.1948 17.076 64.9148 17.12 64.6268 17.12ZM64.9148 15.872C65.2588 15.872 65.5628 15.784 65.8268 15.608C66.0908 15.432 66.2948 15.192 66.4388 14.888C66.5908 14.584 66.6668 14.232 66.6668 13.832C66.6668 13.44 66.5908 13.092 66.4388 12.788C66.2948 12.476 66.0908 12.236 65.8268 12.068C65.5628 11.892 65.2588 11.804 64.9148 11.804C64.5708 11.804 64.2668 11.892 64.0028 12.068C63.7388 12.236 63.5308 12.476 63.3788 12.788C63.2348 13.092 63.1628 13.44 63.1628 13.832C63.1628 14.232 63.2348 14.584 63.3788 14.888C63.5308 15.192 63.7388 15.432 64.0028 15.608C64.2668 15.784 64.5708 15.872 64.9148 15.872ZM73.5616 17V8.6H75.0376L78.0976 13.58L77.2336 13.568L80.3296 8.6H81.7336V17H80.1856V13.844C80.1856 13.124 80.2016 12.476 80.2336 11.9C80.2736 11.324 80.3376 10.752 80.4256 10.184L80.6176 10.7L78.0136 14.72H77.2216L74.7016 10.736L74.8696 10.184C74.9576 10.72 75.0176 11.272 75.0496 11.84C75.0896 12.4 75.1096 13.068 75.1096 13.844V17H73.5616ZM86.6913 17.12C86.0273 17.12 85.4393 16.98 84.9273 16.7C84.4233 16.42 84.0273 16.04 83.7393 15.56C83.4593 15.072 83.3193 14.516 83.3193 13.892C83.3193 13.396 83.3993 12.944 83.5593 12.536C83.7193 12.128 83.9393 11.776 84.2193 11.48C84.5073 11.176 84.8473 10.944 85.2393 10.784C85.6393 10.616 86.0753 10.532 86.5473 10.532C86.9633 10.532 87.3513 10.612 87.7113 10.772C88.0713 10.932 88.3833 11.152 88.6473 11.432C88.9113 11.704 89.1113 12.032 89.2473 12.416C89.3913 12.792 89.4593 13.204 89.4513 13.652L89.4393 14.168H84.3153L84.0393 13.16H88.2033L88.0113 13.364V13.1C87.9873 12.852 87.9073 12.636 87.7713 12.452C87.6353 12.26 87.4593 12.112 87.2433 12.008C87.0353 11.896 86.8033 11.84 86.5473 11.84C86.1553 11.84 85.8233 11.916 85.5513 12.068C85.2873 12.22 85.0873 12.44 84.9513 12.728C84.8153 13.008 84.7473 13.36 84.7473 13.784C84.7473 14.192 84.8313 14.548 84.9993 14.852C85.1753 15.156 85.4193 15.392 85.7313 15.56C86.0513 15.72 86.4233 15.8 86.8473 15.8C87.1433 15.8 87.4153 15.752 87.6633 15.656C87.9113 15.56 88.1793 15.388 88.4673 15.14L89.1993 16.16C88.9833 16.36 88.7353 16.532 88.4553 16.676C88.1833 16.812 87.8953 16.92 87.5913 17C87.2873 17.08 86.9873 17.12 86.6913 17.12Z" fill="#050713"/>
<defs>
<linearGradient id="paint0_linear_52_16693" x1="98" y1="10.7412" x2="0" y2="10.7412" gradientUnits="userSpaceOnUse">
<stop stop-color="#CECECE"/>
<stop offset="1" stop-color="#6A74FF"/>
</linearGradient>
</defs>
</svg>
