<svg width="104" height="24" viewBox="0 0 104 24" fill="none" xmlns="http://www.w3.org/2000/svg">
<path d="M0 8C0 3.58172 3.58172 0 8 0H96C100.418 0 104 3.58172 104 8V16C104 20.4183 100.418 24 96 24H8C3.58172 24 0 20.4183 0 16V8Z" fill="#141621"/>
<path d="M29.3337 17.6668H19.3337C17.861 17.6668 16.6668 16.4725 16.6667 14.9998V10.9998H29.3337V17.6668ZM22.6902 14.4373L21.2761 13.0232L20.3328 13.9666L22.6902 16.324L25.99 13.0242L25.0466 12.0808L22.6902 14.4373ZM19.9998 6.66677H25.9998V5.99978H27.3337V6.66677H29.3337V9.66677H16.6667V6.66677H18.6667V5.99978H19.9998V6.66677Z" fill="#5A68FF"/>
<path d="M34.128 17V8.6H37.776C38.28 8.6 38.74 8.72 39.156 8.96C39.572 9.192 39.9 9.512 40.14 9.92C40.388 10.32 40.512 10.772 40.512 11.276C40.512 11.756 40.388 12.2 40.14 12.608C39.9 13.008 39.572 13.328 39.156 13.568C38.748 13.8 38.288 13.916 37.776 13.916H35.652V17H34.128ZM39 17L36.864 13.208L38.472 12.908L40.848 17.012L39 17ZM35.652 12.56H37.788C38.02 12.56 38.22 12.508 38.388 12.404C38.564 12.292 38.7 12.14 38.796 11.948C38.892 11.756 38.94 11.544 38.94 11.312C38.94 11.048 38.88 10.82 38.76 10.628C38.64 10.436 38.472 10.284 38.256 10.172C38.04 10.06 37.792 10.004 37.512 10.004H35.652V12.56ZM44.9608 17.12C44.2968 17.12 43.7088 16.98 43.1968 16.7C42.6928 16.42 42.2968 16.04 42.0088 15.56C41.7288 15.072 41.5888 14.516 41.5888 13.892C41.5888 13.396 41.6688 12.944 41.8288 12.536C41.9888 12.128 42.2088 11.776 42.4888 11.48C42.7768 11.176 43.1168 10.944 43.5088 10.784C43.9088 10.616 44.3448 10.532 44.8168 10.532C45.2328 10.532 45.6208 10.612 45.9808 10.772C46.3408 10.932 46.6528 11.152 46.9168 11.432C47.1808 11.704 47.3808 12.032 47.5168 12.416C47.6608 12.792 47.7288 13.204 47.7208 13.652L47.7088 14.168H42.5848L42.3088 13.16H46.4728L46.2808 13.364V13.1C46.2568 12.852 46.1768 12.636 46.0408 12.452C45.9048 12.26 45.7288 12.112 45.5128 12.008C45.3048 11.896 45.0728 11.84 44.8168 11.84C44.4248 11.84 44.0928 11.916 43.8208 12.068C43.5568 12.22 43.3568 12.44 43.2208 12.728C43.0848 13.008 43.0168 13.36 43.0168 13.784C43.0168 14.192 43.1008 14.548 43.2688 14.852C43.4448 15.156 43.6888 15.392 44.0008 15.56C44.3208 15.72 44.6928 15.8 45.1168 15.8C45.4128 15.8 45.6848 15.752 45.9328 15.656C46.1808 15.56 46.4488 15.388 46.7368 15.14L47.4688 16.16C47.2528 16.36 47.0048 16.532 46.7248 16.676C46.4528 16.812 46.1648 16.92 45.8608 17C45.5568 17.08 45.2568 17.12 44.9608 17.12ZM51.1401 17.12C50.5801 17.12 50.0761 17.028 49.6281 16.844C49.1881 16.652 48.8281 16.38 48.5481 16.028L49.5081 15.2C49.7481 15.472 50.0161 15.668 50.3121 15.788C50.6081 15.908 50.9201 15.968 51.2481 15.968C51.3841 15.968 51.5041 15.952 51.6081 15.92C51.7201 15.888 51.8161 15.84 51.8961 15.776C51.9761 15.712 52.0361 15.64 52.0761 15.56C52.1241 15.472 52.1481 15.376 52.1481 15.272C52.1481 15.08 52.0761 14.928 51.9321 14.816C51.8521 14.76 51.7241 14.7 51.5481 14.636C51.3801 14.572 51.1601 14.508 50.8881 14.444C50.4561 14.332 50.0961 14.204 49.8081 14.06C49.5201 13.908 49.2961 13.74 49.1361 13.556C49.0001 13.404 48.8961 13.232 48.8241 13.04C48.7601 12.848 48.7281 12.64 48.7281 12.416C48.7281 12.136 48.7881 11.884 48.9081 11.66C49.0361 11.428 49.2081 11.228 49.4241 11.06C49.6401 10.892 49.8921 10.764 50.1801 10.676C50.4681 10.588 50.7681 10.544 51.0801 10.544C51.4001 10.544 51.7081 10.584 52.0041 10.664C52.3081 10.744 52.5881 10.86 52.8441 11.012C53.1081 11.156 53.3321 11.332 53.5161 11.54L52.7001 12.44C52.5481 12.296 52.3801 12.168 52.1961 12.056C52.0201 11.944 51.8401 11.856 51.6561 11.792C51.4721 11.72 51.3001 11.684 51.1401 11.684C50.9881 11.684 50.8521 11.7 50.7321 11.732C50.6121 11.756 50.5121 11.796 50.4321 11.852C50.3521 11.908 50.2881 11.98 50.2401 12.068C50.2001 12.148 50.1801 12.244 50.1801 12.356C50.1881 12.452 50.2121 12.544 50.2521 12.632C50.3001 12.712 50.3641 12.78 50.4441 12.836C50.5321 12.892 50.6641 12.956 50.8401 13.028C51.0161 13.1 51.2441 13.168 51.5241 13.232C51.9161 13.336 52.2441 13.452 52.5081 13.58C52.7721 13.708 52.9801 13.856 53.1321 14.024C53.2841 14.168 53.3921 14.336 53.4561 14.528C53.5201 14.72 53.5521 14.932 53.5521 15.164C53.5521 15.54 53.4441 15.876 53.2281 16.172C53.0201 16.468 52.7321 16.7 52.3641 16.868C52.0041 17.036 51.5961 17.12 51.1401 17.12ZM57.8163 17.12C57.1523 17.12 56.5643 16.98 56.0523 16.7C55.5483 16.42 55.1523 16.04 54.8643 15.56C54.5843 15.072 54.4443 14.516 54.4443 13.892C54.4443 13.396 54.5243 12.944 54.6843 12.536C54.8443 12.128 55.0643 11.776 55.3443 11.48C55.6323 11.176 55.9723 10.944 56.3643 10.784C56.7643 10.616 57.2003 10.532 57.6723 10.532C58.0883 10.532 58.4763 10.612 58.8363 10.772C59.1963 10.932 59.5083 11.152 59.7723 11.432C60.0363 11.704 60.2363 12.032 60.3723 12.416C60.5163 12.792 60.5843 13.204 60.5763 13.652L60.5643 14.168H55.4403L55.1643 13.16H59.3283L59.1363 13.364V13.1C59.1123 12.852 59.0323 12.636 58.8963 12.452C58.7603 12.26 58.5843 12.112 58.3683 12.008C58.1603 11.896 57.9283 11.84 57.6723 11.84C57.2803 11.84 56.9483 11.916 56.6763 12.068C56.4123 12.22 56.2123 12.44 56.0763 12.728C55.9403 13.008 55.8723 13.36 55.8723 13.784C55.8723 14.192 55.9563 14.548 56.1243 14.852C56.3003 15.156 56.5443 15.392 56.8563 15.56C57.1763 15.72 57.5483 15.8 57.9723 15.8C58.2683 15.8 58.5403 15.752 58.7883 15.656C59.0363 15.56 59.3043 15.388 59.5923 15.14L60.3243 16.16C60.1083 16.36 59.8603 16.532 59.5803 16.676C59.3083 16.812 59.0203 16.92 58.7163 17C58.4123 17.08 58.1123 17.12 57.8163 17.12ZM61.8835 17V10.676H63.3355L63.3595 12.692L63.1555 12.236C63.2435 11.916 63.3955 11.628 63.6115 11.372C63.8275 11.116 64.0755 10.916 64.3555 10.772C64.6435 10.62 64.9435 10.544 65.2555 10.544C65.3915 10.544 65.5195 10.556 65.6395 10.58C65.7675 10.604 65.8715 10.632 65.9515 10.664L65.5555 12.284C65.4675 12.236 65.3595 12.196 65.2315 12.164C65.1035 12.132 64.9755 12.116 64.8475 12.116C64.6475 12.116 64.4555 12.156 64.2715 12.236C64.0955 12.308 63.9395 12.412 63.8035 12.548C63.6675 12.684 63.5595 12.844 63.4795 13.028C63.4075 13.204 63.3715 13.404 63.3715 13.628V17H61.8835ZM69.56 17L66.896 10.676H68.504L70.304 15.404L69.992 15.488L71.888 10.676H73.46L70.664 17H69.56ZM77.328 17.12C76.664 17.12 76.076 16.98 75.564 16.7C75.06 16.42 74.664 16.04 74.376 15.56C74.096 15.072 73.956 14.516 73.956 13.892C73.956 13.396 74.036 12.944 74.196 12.536C74.356 12.128 74.576 11.776 74.856 11.48C75.144 11.176 75.484 10.944 75.876 10.784C76.276 10.616 76.712 10.532 77.184 10.532C77.6 10.532 77.988 10.612 78.348 10.772C78.708 10.932 79.02 11.152 79.284 11.432C79.548 11.704 79.748 12.032 79.884 12.416C80.028 12.792 80.096 13.204 80.088 13.652L80.076 14.168H74.952L74.676 13.16H78.84L78.648 13.364V13.1C78.624 12.852 78.544 12.636 78.408 12.452C78.272 12.26 78.096 12.112 77.88 12.008C77.672 11.896 77.44 11.84 77.184 11.84C76.792 11.84 76.46 11.916 76.188 12.068C75.924 12.22 75.724 12.44 75.588 12.728C75.452 13.008 75.384 13.36 75.384 13.784C75.384 14.192 75.468 14.548 75.636 14.852C75.812 15.156 76.056 15.392 76.368 15.56C76.688 15.72 77.06 15.8 77.484 15.8C77.78 15.8 78.052 15.752 78.3 15.656C78.548 15.56 78.816 15.388 79.104 15.14L79.836 16.16C79.62 16.36 79.372 16.532 79.092 16.676C78.82 16.812 78.532 16.92 78.228 17C77.924 17.08 77.624 17.12 77.328 17.12ZM83.9393 17.12C83.3793 17.12 82.8753 16.98 82.4273 16.7C81.9873 16.412 81.6353 16.024 81.3713 15.536C81.1153 15.04 80.9873 14.472 80.9873 13.832C80.9873 13.2 81.1153 12.636 81.3713 12.14C81.6273 11.644 81.9753 11.256 82.4153 10.976C82.8633 10.688 83.3673 10.544 83.9273 10.544C84.2313 10.544 84.5233 10.592 84.8033 10.688C85.0913 10.784 85.3473 10.916 85.5713 11.084C85.7953 11.244 85.9713 11.424 86.0993 11.624C86.2353 11.824 86.3113 12.032 86.3273 12.248L85.9313 12.296V8.12H87.4073V17H85.9793L85.9433 15.512L86.2313 15.536C86.2233 15.736 86.1513 15.928 86.0153 16.112C85.8873 16.296 85.7193 16.464 85.5113 16.616C85.3033 16.768 85.0593 16.892 84.7793 16.988C84.5073 17.076 84.2273 17.12 83.9393 17.12ZM84.2273 15.872C84.5713 15.872 84.8753 15.784 85.1393 15.608C85.4033 15.432 85.6073 15.192 85.7513 14.888C85.9033 14.584 85.9793 14.232 85.9793 13.832C85.9793 13.44 85.9033 13.092 85.7513 12.788C85.6073 12.476 85.4033 12.236 85.1393 12.068C84.8753 11.892 84.5713 11.804 84.2273 11.804C83.8833 11.804 83.5793 11.892 83.3153 12.068C83.0513 12.236 82.8433 12.476 82.6913 12.788C82.5473 13.092 82.4753 13.44 82.4753 13.832C82.4753 14.232 82.5473 14.584 82.6913 14.888C82.8433 15.192 83.0513 15.432 83.3153 15.608C83.5793 15.784 83.8833 15.872 84.2273 15.872Z" fill="#5A68FF"/>
</svg>
