<svg width="24" height="24" viewBox="0 0 24 24" fill="none" xmlns="http://www.w3.org/2000/svg">
<path fill-rule="evenodd" clip-rule="evenodd" d="M11.4315 2.67759C11.7975 2.42424 12.2929 2.4418 12.6405 2.7313L21.6405 10.2313C21.9638 10.5008 22.0836 10.9448 21.9403 11.3407C21.7969 11.7364 21.4208 11.9999 20.9998 11.9999H19.9998V19.9999C19.9998 20.5521 19.5521 20.9999 18.9998 20.9999H4.99985C4.44775 20.9996 3.99985 20.552 3.99985 19.9999V11.9999H2.99985C2.57905 11.9997 2.20279 11.7363 2.05942 11.3407C1.91623 10.9449 2.036 10.5008 2.35922 10.2313L11.3592 2.7313L11.4315 2.67759ZM11.537 11.4784C10.8713 11.0548 10.0001 11.5323 9.99985 12.3211V15.6786C10.0001 16.4673 10.8714 16.9455 11.537 16.5223L14.1747 14.8436C14.792 14.4506 14.792 13.5491 14.1747 13.1561L11.537 11.4784Z" fill="url(#paint0_radial_74_18853)"/>
<defs>
<radialGradient id="paint0_radial_74_18853" cx="0" cy="0" r="1" gradientTransform="matrix(5.50821 12.0576 -12.1972 5.57128 7.71403 6.42839)" gradientUnits="userSpaceOnUse">
<stop stop-color="#99A0FF"/>
<stop offset="0.845713" stop-color="white"/>
</radialGradient>
</defs>
</svg>
