<svg width="10" height="10" viewBox="0 0 10 10" fill="none" xmlns="http://www.w3.org/2000/svg">
<path fill-rule="evenodd" clip-rule="evenodd" d="M7.91238 8.68616C7.93358 8.82395 7.88349 8.96423 7.78055 9.05823C7.67765 9.15178 7.53466 9.18743 7.39969 9.15393L5.00027 8.55334L2.60086 9.15393C2.46587 9.18754 2.32297 9.15175 2.22 9.05823C2.11689 8.96423 2.06695 8.82406 2.08816 8.68616L2.3616 6.90881C3.06187 7.53543 3.98663 7.91663 5.00027 7.91663C6.01371 7.91654 6.9378 7.53528 7.63797 6.90881L7.91238 8.68616Z" fill="#191E2E"/>
<path d="M5.00008 0.833374C6.72575 0.83355 8.12496 2.23269 8.12508 3.95837C8.1249 5.68401 6.72571 7.0832 5.00008 7.08337C3.27441 7.08324 1.87525 5.68403 1.87508 3.95837C1.87519 2.23266 3.27437 0.833509 5.00008 0.833374ZM5.1866 2.67029C5.11017 2.51554 4.89002 2.51558 4.81355 2.67029L4.55867 3.18591C4.52832 3.2474 4.4693 3.29031 4.40144 3.30017L3.83308 3.3822C3.66235 3.40701 3.59367 3.61709 3.71687 3.73767L4.12898 4.13904C4.17805 4.18686 4.20008 4.25608 4.18855 4.32361L4.09187 4.89099C4.06295 5.06087 4.24098 5.19053 4.39363 5.11072L4.9034 4.84314C4.96407 4.81127 5.03609 4.81125 5.09676 4.84314L5.60555 5.11072C5.75829 5.19102 5.93721 5.06103 5.90828 4.89099L5.81062 4.32361C5.79915 4.25612 5.82214 4.18683 5.87117 4.13904L6.28328 3.73767C6.40638 3.61708 6.33776 3.40701 6.16707 3.3822L5.59773 3.30017C5.53006 3.29019 5.47176 3.24727 5.44148 3.18591L5.1866 2.67029Z" fill="#191E2E"/>
<circle cx="5" cy="3.95833" r="2.70833" stroke="#191E2E" stroke-width="0.833333" stroke-linejoin="round"/>
</svg>
