<svg width="86" height="16" viewBox="0 0 86 16" fill="none" xmlns="http://www.w3.org/2000/svg">
<path d="M0 6C0 2.68629 2.68629 0 6 0H86V16H6C2.68629 16 0 13.3137 0 10V6Z" fill="url(#paint0_linear_52_9133)"/>
<g clip-path="url(#clip0_52_9133)">
<path fill-rule="evenodd" clip-rule="evenodd" d="M13.4073 10.5087C13.639 11.0493 13.2425 11.651 12.6544 11.6513H11.8468C11.2552 11.6513 10.7221 11.3039 10.4796 10.7695C10.4549 10.7142 10.4323 10.659 10.4141 10.6034C10.6277 10.8054 10.862 10.7492 11.0841 10.4638L11.0997 10.5019C11.1279 10.5718 11.2084 10.6053 11.2784 10.5771L12.2911 10.1679C12.3563 10.1414 12.388 10.071 12.3692 10.0048L12.3077 9.85246C12.2792 9.78322 12.2005 9.74855 12.1309 9.77629L11.2969 10.1132L11.3096 10.0888C11.423 9.84765 11.5383 9.58863 11.6573 9.32024L11.9063 9.22063C11.9762 9.19235 12.0097 9.11278 11.9815 9.04289L11.8848 8.80266C12.0165 8.49737 12.1462 8.18391 12.2755 7.87297L13.4073 10.5087ZM9.85554 4.33C10.4016 4.33 10.895 4.65535 11.1104 5.15715L11.9698 7.16008C11.7782 7.62691 11.5804 8.10559 11.4005 8.54094L10.586 8.87004C10.5197 8.89708 10.4877 8.97084 10.5089 9.03801L10.7208 9.5634C10.752 9.62689 10.826 9.65633 10.8926 9.62981L10.9561 9.60344C10.5679 10.4248 10.1718 9.92659 9.9532 9.41008C9.85302 9.17338 9.72829 8.86652 9.66218 8.705L8.00886 4.51653C7.97367 4.42702 8.03966 4.33018 8.13581 4.33H9.85554ZM11.0675 7.1425L10.0548 7.55168C9.98677 7.57929 9.95321 7.65601 9.97761 7.72453L10.1866 8.24016C10.2163 8.30708 10.293 8.33896 10.3614 8.31145L11.3741 7.90227C11.4437 7.87387 11.4774 7.79431 11.4493 7.72453L11.2442 7.21867C11.2159 7.14918 11.1371 7.11461 11.0675 7.1425ZM10.5352 5.8261L9.52156 6.23528C9.45514 6.26238 9.42294 6.33691 9.44441 6.40422L9.65632 6.92766C9.68733 6.99153 9.76134 7.02165 9.8282 6.99504L10.8419 6.58586C10.9117 6.55757 10.9452 6.478 10.9171 6.40813L10.713 5.90227C10.6846 5.83277 10.6049 5.7982 10.5352 5.8261ZM9.0157 4.93352C8.93904 4.95376 8.8924 5.03883 8.9239 5.11711L9.12312 5.6093C9.15417 5.67325 9.22905 5.70347 9.29597 5.67668L10.3087 5.2675C10.3785 5.23927 10.4129 5.15966 10.3848 5.08977C10.346 4.99353 10.2523 4.92976 10.1485 4.92961H9.05085L9.0157 4.93352Z" fill="url(#paint1_linear_52_9133)"/>
<path fill-rule="evenodd" clip-rule="evenodd" d="M16.4523 5.79398C16.5879 5.46707 16.969 5.61843 17.0822 5.85648C17.2052 6.11582 17.3532 6.43663 17.4836 6.71684L17.9904 7.98832C18.0257 8.07781 17.9597 8.1747 17.8635 8.17484H16.0822C15.9135 8.17484 15.7504 8.14245 15.5988 8.085C15.6589 7.92389 15.7171 7.76473 15.7746 7.61039C15.862 7.6848 15.9741 7.7289 16.0939 7.72855L17.0305 7.72562C17.1269 7.72519 17.1924 7.6276 17.1564 7.53812L16.8742 6.83891C16.846 6.76904 16.7664 6.73463 16.6965 6.76273L15.9836 7.04984C16.1051 6.72288 16.2122 6.43641 16.2932 6.21879L16.4514 6.15531C16.5209 6.127 16.5544 6.04726 16.5266 5.97758L16.4523 5.79398ZM15.9338 4.51176C16.3415 4.53182 16.7021 4.78157 16.8615 5.15922L16.7512 5.07816C16.6347 5.01588 16.5192 5.02692 16.4074 5.09867C16.3138 5.15887 16.2223 5.26149 16.1349 5.39848L15.131 5.80473C15.0611 5.83298 15.0266 5.91252 15.0549 5.98246L15.2599 6.4893C15.2884 6.55883 15.368 6.5926 15.4377 6.56449L15.6672 6.47074L15.3762 7.23051C15.302 7.42123 15.2241 7.61298 15.1486 7.8057C14.9961 7.66294 14.8752 7.48429 14.8 7.27934L14.4562 6.34379C14.2825 5.86967 14.3896 5.38145 14.6691 5.02738L14.7072 5.12113C14.7355 5.19085 14.8151 5.22534 14.8849 5.1973L15.8986 4.78715C15.9681 4.75872 16.0019 4.67912 15.9738 4.60941L15.9338 4.51176Z" fill="url(#paint2_linear_52_9133)"/>
<path d="M15.8581 5.9729C16.1423 5.22167 16.4995 4.81873 16.8603 5.1585C16.7863 4.98947 16.5131 4.3475 15.3726 4.3475H14.6233C14.055 4.3475 13.5462 4.69895 13.3403 5.22867C12.8752 6.42563 12.0158 8.58819 11.3091 10.091C11.0297 10.6852 10.7013 10.8764 10.4141 10.6046C10.5852 11.1291 11.0428 11.6686 11.8896 11.6686H12.6908C13.2469 11.6686 13.7472 11.3317 13.9546 10.8156C14.4208 9.65582 15.2631 7.54579 15.8581 5.9729Z" fill="url(#paint3_linear_52_9133)"/>
</g>
<path d="M20.846 11V4.7H21.953L24.248 8.435L23.6 8.426L25.922 4.7H26.975V11H25.814V8.633C25.814 8.093 25.826 7.607 25.85 7.175C25.88 6.743 25.928 6.314 25.994 5.888L26.138 6.275L24.185 9.29H23.591L21.701 6.302L21.827 5.888C21.893 6.29 21.938 6.704 21.962 7.13C21.992 7.55 22.007 8.051 22.007 8.633V11H20.846ZM30.6933 11.09C30.1953 11.09 29.7543 10.985 29.3703 10.775C28.9923 10.565 28.6953 10.28 28.4793 9.92C28.2693 9.554 28.1643 9.137 28.1643 8.669C28.1643 8.297 28.2243 7.958 28.3443 7.652C28.4643 7.346 28.6293 7.082 28.8393 6.86C29.0553 6.632 29.3103 6.458 29.6043 6.338C29.9043 6.212 30.2313 6.149 30.5853 6.149C30.8973 6.149 31.1883 6.209 31.4583 6.329C31.7283 6.449 31.9623 6.614 32.1603 6.824C32.3583 7.028 32.5083 7.274 32.6103 7.562C32.7183 7.844 32.7693 8.153 32.7633 8.489L32.7543 8.876H28.9113L28.7043 8.12H31.8273L31.6833 8.273V8.075C31.6653 7.889 31.6053 7.727 31.5033 7.589C31.4013 7.445 31.2693 7.334 31.1073 7.256C30.9513 7.172 30.7773 7.13 30.5853 7.13C30.2913 7.13 30.0423 7.187 29.8383 7.301C29.6403 7.415 29.4903 7.58 29.3883 7.796C29.2863 8.006 29.2353 8.27 29.2353 8.588C29.2353 8.894 29.2983 9.161 29.4243 9.389C29.5563 9.617 29.7393 9.794 29.9733 9.92C30.2133 10.04 30.4923 10.1 30.8103 10.1C31.0323 10.1 31.2363 10.064 31.4223 9.992C31.6083 9.92 31.8093 9.791 32.0253 9.605L32.5743 10.37C32.4123 10.52 32.2263 10.649 32.0163 10.757C31.8123 10.859 31.5963 10.94 31.3683 11C31.1403 11.06 30.9153 11.09 30.6933 11.09ZM33.7257 11V6.257H34.8147L34.8327 7.211L34.6527 7.283C34.7067 7.127 34.7877 6.983 34.8957 6.851C35.0037 6.713 35.1327 6.596 35.2827 6.5C35.4327 6.398 35.5917 6.32 35.7597 6.266C35.9277 6.206 36.0987 6.176 36.2727 6.176C36.5307 6.176 36.7587 6.218 36.9567 6.302C37.1607 6.38 37.3287 6.506 37.4607 6.68C37.5987 6.854 37.7007 7.076 37.7667 7.346L37.5957 7.31L37.6677 7.166C37.7337 7.022 37.8267 6.893 37.9467 6.779C38.0667 6.659 38.2017 6.554 38.3517 6.464C38.5017 6.368 38.6577 6.296 38.8197 6.248C38.9877 6.2 39.1527 6.176 39.3147 6.176C39.6747 6.176 39.9747 6.248 40.2147 6.392C40.4547 6.536 40.6347 6.755 40.7547 7.049C40.8747 7.343 40.9347 7.706 40.9347 8.138V11H39.8187V8.21C39.8187 7.97 39.7857 7.772 39.7197 7.616C39.6597 7.46 39.5637 7.346 39.4317 7.274C39.3057 7.196 39.1467 7.157 38.9547 7.157C38.8047 7.157 38.6607 7.184 38.5227 7.238C38.3907 7.286 38.2767 7.358 38.1807 7.454C38.0847 7.544 38.0097 7.649 37.9557 7.769C37.9017 7.889 37.8747 8.021 37.8747 8.165V11H36.7587V8.201C36.7587 7.973 36.7257 7.784 36.6597 7.634C36.5937 7.478 36.4977 7.361 36.3717 7.283C36.2457 7.199 36.0927 7.157 35.9127 7.157C35.7627 7.157 35.6217 7.184 35.4897 7.238C35.3577 7.286 35.2437 7.355 35.1477 7.445C35.0517 7.535 34.9767 7.64 34.9227 7.76C34.8687 7.88 34.8417 8.012 34.8417 8.156V11H33.7257ZM44.7826 11.09C44.5726 11.09 44.3656 11.06 44.1616 11C43.9636 10.934 43.7836 10.847 43.6216 10.739C43.4596 10.631 43.3246 10.511 43.2166 10.379C43.1086 10.241 43.0366 10.103 43.0006 9.965L43.2616 9.848L43.2346 10.982H42.1636V4.34H43.2706V7.355L43.0726 7.265C43.1026 7.121 43.1686 6.986 43.2706 6.86C43.3786 6.728 43.5106 6.611 43.6666 6.509C43.8226 6.401 43.9936 6.317 44.1796 6.257C44.3656 6.191 44.5546 6.158 44.7466 6.158C45.1726 6.158 45.5476 6.263 45.8716 6.473C46.2016 6.683 46.4596 6.974 46.6456 7.346C46.8376 7.718 46.9336 8.141 46.9336 8.615C46.9336 9.095 46.8406 9.521 46.6546 9.893C46.4686 10.265 46.2106 10.559 45.8806 10.775C45.5566 10.985 45.1906 11.09 44.7826 11.09ZM44.5486 10.118C44.8006 10.118 45.0256 10.055 45.2236 9.929C45.4216 9.797 45.5776 9.62 45.6916 9.398C45.8056 9.17 45.8626 8.909 45.8626 8.615C45.8626 8.327 45.8056 8.072 45.6916 7.85C45.5836 7.628 45.4306 7.454 45.2326 7.328C45.0346 7.202 44.8066 7.139 44.5486 7.139C44.2906 7.139 44.0626 7.202 43.8646 7.328C43.6666 7.454 43.5106 7.628 43.3966 7.85C43.2826 8.072 43.2256 8.327 43.2256 8.615C43.2256 8.909 43.2826 9.17 43.3966 9.398C43.5106 9.62 43.6666 9.797 43.8646 9.929C44.0626 10.055 44.2906 10.118 44.5486 10.118ZM50.1435 11.09C49.6455 11.09 49.2045 10.985 48.8205 10.775C48.4425 10.565 48.1455 10.28 47.9295 9.92C47.7195 9.554 47.6145 9.137 47.6145 8.669C47.6145 8.297 47.6745 7.958 47.7945 7.652C47.9145 7.346 48.0795 7.082 48.2895 6.86C48.5055 6.632 48.7605 6.458 49.0545 6.338C49.3545 6.212 49.6815 6.149 50.0355 6.149C50.3475 6.149 50.6385 6.209 50.9085 6.329C51.1785 6.449 51.4125 6.614 51.6105 6.824C51.8085 7.028 51.9585 7.274 52.0605 7.562C52.1685 7.844 52.2195 8.153 52.2135 8.489L52.2045 8.876H48.3615L48.1545 8.12H51.2775L51.1335 8.273V8.075C51.1155 7.889 51.0555 7.727 50.9535 7.589C50.8515 7.445 50.7195 7.334 50.5575 7.256C50.4015 7.172 50.2275 7.13 50.0355 7.13C49.7415 7.13 49.4925 7.187 49.2885 7.301C49.0905 7.415 48.9405 7.58 48.8385 7.796C48.7365 8.006 48.6855 8.27 48.6855 8.588C48.6855 8.894 48.7485 9.161 48.8745 9.389C49.0065 9.617 49.1895 9.794 49.4235 9.92C49.6635 10.04 49.9425 10.1 50.2605 10.1C50.4825 10.1 50.6865 10.064 50.8725 9.992C51.0585 9.92 51.2595 9.791 51.4755 9.605L52.0245 10.37C51.8625 10.52 51.6765 10.649 51.4665 10.757C51.2625 10.859 51.0465 10.94 50.8185 11C50.5905 11.06 50.3655 11.09 50.1435 11.09ZM53.1939 11V6.257H54.2829L54.3009 7.769L54.1479 7.427C54.2139 7.187 54.3279 6.971 54.4899 6.779C54.6519 6.587 54.8379 6.437 55.0479 6.329C55.2639 6.215 55.4889 6.158 55.7229 6.158C55.8249 6.158 55.9209 6.167 56.0109 6.185C56.1069 6.203 56.1849 6.224 56.2449 6.248L55.9479 7.463C55.8819 7.427 55.8009 7.397 55.7049 7.373C55.6089 7.349 55.5129 7.337 55.4169 7.337C55.2669 7.337 55.1229 7.367 54.9849 7.427C54.8529 7.481 54.7359 7.559 54.6339 7.661C54.5319 7.763 54.4509 7.883 54.3909 8.021C54.3369 8.153 54.3099 8.303 54.3099 8.471V11H53.1939ZM58.566 11.09C58.146 11.09 57.768 11.021 57.432 10.883C57.102 10.739 56.832 10.535 56.622 10.271L57.342 9.65C57.522 9.854 57.723 10.001 57.945 10.091C58.167 10.181 58.401 10.226 58.647 10.226C58.749 10.226 58.839 10.214 58.917 10.19C59.001 10.166 59.073 10.13 59.133 10.082C59.193 10.034 59.238 9.98 59.268 9.92C59.304 9.854 59.322 9.782 59.322 9.704C59.322 9.56 59.268 9.446 59.16 9.362C59.1 9.32 59.004 9.275 58.872 9.227C58.746 9.179 58.581 9.131 58.377 9.083C58.053 8.999 57.783 8.903 57.567 8.795C57.351 8.681 57.183 8.555 57.063 8.417C56.961 8.303 56.883 8.174 56.829 8.03C56.781 7.886 56.757 7.73 56.757 7.562C56.757 7.352 56.802 7.163 56.892 6.995C56.988 6.821 57.117 6.671 57.279 6.545C57.441 6.419 57.63 6.323 57.846 6.257C58.062 6.191 58.287 6.158 58.521 6.158C58.761 6.158 58.992 6.188 59.214 6.248C59.442 6.308 59.652 6.395 59.844 6.509C60.042 6.617 60.21 6.749 60.348 6.905L59.736 7.58C59.622 7.472 59.496 7.376 59.358 7.292C59.226 7.208 59.091 7.142 58.953 7.094C58.815 7.04 58.686 7.013 58.566 7.013C58.452 7.013 58.35 7.025 58.26 7.049C58.17 7.067 58.095 7.097 58.035 7.139C57.975 7.181 57.927 7.235 57.891 7.301C57.861 7.361 57.846 7.433 57.846 7.517C57.852 7.589 57.87 7.658 57.9 7.724C57.936 7.784 57.984 7.835 58.044 7.877C58.11 7.919 58.209 7.967 58.341 8.021C58.473 8.075 58.644 8.126 58.854 8.174C59.148 8.252 59.394 8.339 59.592 8.435C59.79 8.531 59.946 8.642 60.06 8.768C60.174 8.876 60.255 9.002 60.303 9.146C60.351 9.29 60.375 9.449 60.375 9.623C60.375 9.905 60.294 10.157 60.132 10.379C59.976 10.601 59.76 10.775 59.484 10.901C59.214 11.027 58.908 11.09 58.566 11.09ZM66.9117 11.09C66.4617 11.09 66.0447 11.009 65.6607 10.847C65.2767 10.685 64.9407 10.46 64.6527 10.172C64.3707 9.878 64.1517 9.533 63.9957 9.137C63.8397 8.741 63.7617 8.309 63.7617 7.841C63.7617 7.373 63.8397 6.941 63.9957 6.545C64.1517 6.149 64.3707 5.807 64.6527 5.519C64.9407 5.225 65.2767 4.997 65.6607 4.835C66.0447 4.673 66.4617 4.592 66.9117 4.592C67.3677 4.592 67.7877 4.673 68.1717 4.835C68.5557 4.997 68.8887 5.225 69.1707 5.519C69.4527 5.813 69.6717 6.158 69.8277 6.554C69.9837 6.944 70.0617 7.373 70.0617 7.841C70.0617 8.303 69.9837 8.732 69.8277 9.128C69.6717 9.524 69.4527 9.869 69.1707 10.163C68.8887 10.457 68.5557 10.685 68.1717 10.847C67.7877 11.009 67.3677 11.09 66.9117 11.09ZM66.9117 9.974C67.1997 9.974 67.4607 9.923 67.6947 9.821C67.9347 9.713 68.1417 9.563 68.3157 9.371C68.4897 9.173 68.6247 8.945 68.7207 8.687C68.8227 8.429 68.8737 8.147 68.8737 7.841C68.8737 7.535 68.8227 7.253 68.7207 6.995C68.6247 6.737 68.4897 6.512 68.3157 6.32C68.1417 6.122 67.9347 5.972 67.6947 5.87C67.4607 5.762 67.1997 5.708 66.9117 5.708C66.6297 5.708 66.3687 5.762 66.1287 5.87C65.8887 5.972 65.6817 6.119 65.5077 6.311C65.3337 6.503 65.1987 6.728 65.1027 6.986C65.0067 7.244 64.9587 7.529 64.9587 7.841C64.9587 8.147 65.0067 8.432 65.1027 8.696C65.1987 8.954 65.3337 9.179 65.5077 9.371C65.6817 9.563 65.8887 9.713 66.1287 9.821C66.3687 9.923 66.6297 9.974 66.9117 9.974ZM71.1324 11V6.257H72.2124L72.2304 7.229L72.0234 7.337C72.0834 7.121 72.2004 6.926 72.3744 6.752C72.5484 6.572 72.7554 6.428 72.9954 6.32C73.2354 6.212 73.4814 6.158 73.7334 6.158C74.0934 6.158 74.3934 6.23 74.6334 6.374C74.8794 6.518 75.0624 6.734 75.1824 7.022C75.3084 7.31 75.3714 7.67 75.3714 8.102V11H74.2644V8.183C74.2644 7.943 74.2314 7.745 74.1654 7.589C74.0994 7.427 73.9974 7.31 73.8594 7.238C73.7214 7.16 73.5534 7.124 73.3554 7.13C73.1934 7.13 73.0434 7.157 72.9054 7.211C72.7734 7.259 72.6564 7.331 72.5544 7.427C72.4584 7.517 72.3804 7.622 72.3204 7.742C72.2664 7.862 72.2394 7.994 72.2394 8.138V11H71.6904C71.5824 11 71.4804 11 71.3844 11C71.2944 11 71.2104 11 71.1324 11ZM76.6258 11V4.34H77.7418V11H76.6258ZM79.6307 13.07L80.6387 10.739L80.6477 11.477L78.3077 6.257H79.5857L80.8907 9.353C80.9327 9.431 80.9747 9.536 81.0167 9.668C81.0587 9.794 81.0947 9.92 81.1247 10.046L80.8997 10.118C80.9417 10.004 80.9867 9.884 81.0347 9.758C81.0827 9.626 81.1277 9.491 81.1697 9.353L82.2857 6.257H83.5727L81.5927 11L80.7827 13.07H79.6307Z" fill="#FFE0B5"/>
<defs>
<linearGradient id="paint0_linear_52_9133" x1="86" y1="8" x2="2.38431e-07" y2="8" gradientUnits="userSpaceOnUse">
<stop stop-color="#2634C7"/>
<stop offset="1" stop-color="#121732"/>
</linearGradient>
<linearGradient id="paint1_linear_52_9133" x1="10.1577" y1="5.06124" x2="11.5942" y2="8.40349" gradientUnits="userSpaceOnUse">
<stop stop-color="#F7D5B9"/>
<stop offset="1" stop-color="#979EFF"/>
</linearGradient>
<linearGradient id="paint2_linear_52_9133" x1="15.8363" y1="6.84814" x2="18.2136" y2="8.17635" gradientUnits="userSpaceOnUse">
<stop stop-color="#6A74FF"/>
<stop offset="1" stop-color="#787480"/>
</linearGradient>
<linearGradient id="paint3_linear_52_9133" x1="15.8473" y1="3.92784" x2="9.49768" y2="13.0782" gradientUnits="userSpaceOnUse">
<stop stop-color="white"/>
<stop offset="0.427885" stop-color="#FFE0B5"/>
<stop offset="1" stop-color="#9EA5FF"/>
</linearGradient>
<clipPath id="clip0_52_9133">
<rect width="10" height="10" fill="white" transform="translate(8 3)"/>
</clipPath>
</defs>
</svg>
