<svg width="65" height="26" viewBox="0 0 65 26" fill="none" xmlns="http://www.w3.org/2000/svg">
<path d="M0 6C0 2.68629 2.68629 0 6 0H61V16H6C2.68629 16 0 13.3137 0 10V6Z" fill="url(#paint0_linear_52_9281)"/>
<path fill-rule="evenodd" clip-rule="evenodd" d="M14.9123 11.6861C14.9335 11.8239 14.8834 11.9642 14.7804 12.0582C14.6775 12.1517 14.5345 12.1874 14.3996 12.1539L12.0002 11.5533L9.60075 12.1539C9.46576 12.1875 9.32286 12.1517 9.21989 12.0582C9.11679 11.9642 9.06684 11.824 9.08806 11.6861L9.36149 9.90878C10.0618 10.5354 10.9865 10.9166 12.0002 10.9166C13.0136 10.9165 13.9377 10.5352 14.6379 9.90878L14.9123 11.6861Z" fill="#191E2E"/>
<path d="M12 3.83334C13.7257 3.83351 15.1249 5.23265 15.125 6.95834C15.1248 8.68397 13.7256 10.0832 12 10.0833C10.2743 10.0832 8.87518 8.68399 8.875 6.95834C8.87511 5.23262 10.2743 3.83347 12 3.83334ZM12.1865 5.67025C12.1101 5.5155 11.8899 5.51554 11.8135 5.67025L11.5586 6.18587C11.5282 6.24736 11.4692 6.29027 11.4014 6.30013L10.833 6.38216C10.6623 6.40697 10.5936 6.61705 10.7168 6.73763L11.1289 7.139C11.178 7.18682 11.2 7.25604 11.1885 7.32357L11.0918 7.89095C11.0629 8.06084 11.2409 8.19049 11.3936 8.11068L11.9033 7.8431C11.964 7.81123 12.036 7.81121 12.0967 7.8431L12.6055 8.11068C12.7582 8.19098 12.9371 8.06099 12.9082 7.89095L12.8105 7.32357C12.7991 7.25608 12.8221 7.18679 12.8711 7.139L13.2832 6.73763C13.4063 6.61704 13.3377 6.40697 13.167 6.38216L12.5977 6.30013C12.53 6.29015 12.4717 6.24723 12.4414 6.18587L12.1865 5.67025Z" fill="#191E2E"/>
<circle cx="12.0001" cy="6.95833" r="2.70833" stroke="#191E2E" stroke-width="0.833333" stroke-linejoin="round"/>
<path d="M18.846 11V4.7H22.968V5.762H19.998V9.938H23.004V11H18.846ZM19.386 8.3V7.256H22.509V8.3H19.386ZM27.342 11L25.992 9.173L25.74 8.831L23.787 6.257H25.155L26.469 8.039L26.748 8.417L28.683 11H27.342ZM23.778 11L25.659 8.48L26.289 9.236L25.083 11H23.778ZM26.748 8.786L26.145 8.039L27.234 6.257H28.539L26.748 8.786ZM31.2377 11.09C30.7937 11.09 30.3947 10.982 30.0407 10.766C29.6867 10.55 29.4077 10.256 29.2037 9.884C28.9997 9.512 28.8977 9.092 28.8977 8.624C28.8977 8.156 28.9997 7.736 29.2037 7.364C29.4077 6.992 29.6867 6.698 30.0407 6.482C30.3947 6.266 30.7937 6.158 31.2377 6.158C31.6637 6.158 32.0507 6.239 32.3987 6.401C32.7467 6.563 33.0167 6.788 33.2087 7.076L32.5967 7.814C32.5067 7.688 32.3927 7.574 32.2547 7.472C32.1167 7.37 31.9697 7.289 31.8137 7.229C31.6577 7.169 31.5017 7.139 31.3457 7.139C31.0817 7.139 30.8447 7.205 30.6347 7.337C30.4307 7.463 30.2687 7.64 30.1487 7.868C30.0287 8.09 29.9687 8.342 29.9687 8.624C29.9687 8.906 30.0287 9.158 30.1487 9.38C30.2747 9.602 30.4427 9.779 30.6527 9.911C30.8627 10.043 31.0967 10.109 31.3547 10.109C31.5107 10.109 31.6607 10.085 31.8047 10.037C31.9547 9.983 32.0957 9.908 32.2277 9.812C32.3597 9.716 32.4827 9.596 32.5967 9.452L33.2087 10.199C33.0047 10.463 32.7227 10.679 32.3627 10.847C32.0087 11.009 31.6337 11.09 31.2377 11.09ZM34.0642 11V4.34H35.1802V11H34.0642ZM38.0841 11.09C37.7421 11.09 37.4451 11.015 37.1931 10.865C36.9411 10.709 36.7491 10.49 36.6171 10.208C36.4851 9.92 36.4191 9.578 36.4191 9.182V6.257H37.5261V8.948C37.5261 9.2 37.5651 9.416 37.6431 9.596C37.7211 9.77 37.8351 9.905 37.9851 10.001C38.1351 10.097 38.3151 10.145 38.5251 10.145C38.6811 10.145 38.8221 10.121 38.9481 10.073C39.0801 10.019 39.1941 9.947 39.2901 9.857C39.3861 9.761 39.4611 9.65 39.5151 9.524C39.5691 9.392 39.5961 9.251 39.5961 9.101V6.257H40.7031V11H39.6231L39.6051 10.01L39.8031 9.902C39.7311 10.13 39.6081 10.334 39.4341 10.514C39.2661 10.688 39.0651 10.829 38.8311 10.937C38.5971 11.039 38.3481 11.09 38.0841 11.09ZM43.5845 11.09C43.1645 11.09 42.7865 11.021 42.4505 10.883C42.1205 10.739 41.8505 10.535 41.6405 10.271L42.3605 9.65C42.5405 9.854 42.7415 10.001 42.9635 10.091C43.1855 10.181 43.4195 10.226 43.6655 10.226C43.7675 10.226 43.8575 10.214 43.9355 10.19C44.0195 10.166 44.0915 10.13 44.1515 10.082C44.2115 10.034 44.2565 9.98 44.2865 9.92C44.3225 9.854 44.3405 9.782 44.3405 9.704C44.3405 9.56 44.2865 9.446 44.1785 9.362C44.1185 9.32 44.0225 9.275 43.8905 9.227C43.7645 9.179 43.5995 9.131 43.3955 9.083C43.0715 8.999 42.8015 8.903 42.5855 8.795C42.3695 8.681 42.2015 8.555 42.0815 8.417C41.9795 8.303 41.9015 8.174 41.8475 8.03C41.7995 7.886 41.7755 7.73 41.7755 7.562C41.7755 7.352 41.8205 7.163 41.9105 6.995C42.0065 6.821 42.1355 6.671 42.2975 6.545C42.4595 6.419 42.6485 6.323 42.8645 6.257C43.0805 6.191 43.3055 6.158 43.5395 6.158C43.7795 6.158 44.0105 6.188 44.2325 6.248C44.4605 6.308 44.6705 6.395 44.8625 6.509C45.0605 6.617 45.2285 6.749 45.3665 6.905L44.7545 7.58C44.6405 7.472 44.5145 7.376 44.3765 7.292C44.2445 7.208 44.1095 7.142 43.9715 7.094C43.8335 7.04 43.7045 7.013 43.5845 7.013C43.4705 7.013 43.3685 7.025 43.2785 7.049C43.1885 7.067 43.1135 7.097 43.0535 7.139C42.9935 7.181 42.9455 7.235 42.9095 7.301C42.8795 7.361 42.8645 7.433 42.8645 7.517C42.8705 7.589 42.8885 7.658 42.9185 7.724C42.9545 7.784 43.0025 7.835 43.0625 7.877C43.1285 7.919 43.2275 7.967 43.3595 8.021C43.4915 8.075 43.6625 8.126 43.8725 8.174C44.1665 8.252 44.4125 8.339 44.6105 8.435C44.8085 8.531 44.9645 8.642 45.0785 8.768C45.1925 8.876 45.2735 9.002 45.3215 9.146C45.3695 9.29 45.3935 9.449 45.3935 9.623C45.3935 9.905 45.3125 10.157 45.1505 10.379C44.9945 10.601 44.7785 10.775 44.5025 10.901C44.2325 11.027 43.9265 11.09 43.5845 11.09ZM46.4947 11V6.257H47.6017V11H46.4947ZM47.0347 5.249C46.8127 5.249 46.6387 5.195 46.5127 5.087C46.3927 4.973 46.3327 4.814 46.3327 4.61C46.3327 4.418 46.3957 4.262 46.5217 4.142C46.6477 4.022 46.8187 3.962 47.0347 3.962C47.2627 3.962 47.4367 4.019 47.5567 4.133C47.6827 4.241 47.7457 4.4 47.7457 4.61C47.7457 4.796 47.6827 4.949 47.5567 5.069C47.4307 5.189 47.2567 5.249 47.0347 5.249ZM50.5264 11L48.5284 6.257H49.7344L51.0844 9.803L50.8504 9.866L52.2724 6.257H53.4514L51.3544 11H50.5264ZM56.3524 11.09C55.8544 11.09 55.4134 10.985 55.0294 10.775C54.6514 10.565 54.3544 10.28 54.1384 9.92C53.9284 9.554 53.8234 9.137 53.8234 8.669C53.8234 8.297 53.8834 7.958 54.0034 7.652C54.1234 7.346 54.2884 7.082 54.4984 6.86C54.7144 6.632 54.9694 6.458 55.2634 6.338C55.5634 6.212 55.8904 6.149 56.2444 6.149C56.5564 6.149 56.8474 6.209 57.1174 6.329C57.3874 6.449 57.6214 6.614 57.8194 6.824C58.0174 7.028 58.1674 7.274 58.2694 7.562C58.3774 7.844 58.4284 8.153 58.4224 8.489L58.4134 8.876H54.5704L54.3634 8.12H57.4864L57.3424 8.273V8.075C57.3244 7.889 57.2644 7.727 57.1624 7.589C57.0604 7.445 56.9284 7.334 56.7664 7.256C56.6104 7.172 56.4364 7.13 56.2444 7.13C55.9504 7.13 55.7014 7.187 55.4974 7.301C55.2994 7.415 55.1494 7.58 55.0474 7.796C54.9454 8.006 54.8944 8.27 54.8944 8.588C54.8944 8.894 54.9574 9.161 55.0834 9.389C55.2154 9.617 55.3984 9.794 55.6324 9.92C55.8724 10.04 56.1514 10.1 56.4694 10.1C56.6914 10.1 56.8954 10.064 57.0814 9.992C57.2674 9.92 57.4684 9.791 57.6844 9.605L58.2334 10.37C58.0714 10.52 57.8854 10.649 57.6754 10.757C57.4714 10.859 57.2554 10.94 57.0274 11C56.7994 11.06 56.5744 11.09 56.3524 11.09Z" fill="#141621"/>
<path d="M61 0C63.2091 0 65 1.79086 65 4V18H61V0Z" fill="#CECECE"/>
<path d="M61 16H63C64.1046 16 65 16.8954 65 18C65 19.1046 64.1046 20 63 20H61V16Z" fill="#545472"/>
<defs>
<linearGradient id="paint0_linear_52_9281" x1="61" y1="7.16081" x2="0" y2="7.16081" gradientUnits="userSpaceOnUse">
<stop stop-color="#CECECE"/>
<stop offset="1" stop-color="#6A74FF"/>
</linearGradient>
</defs>
</svg>
