<svg width="33" height="20" viewBox="0 0 33 20" fill="none" xmlns="http://www.w3.org/2000/svg">
<path d="M0 6C0 2.68629 2.68629 0 6 0H29V16H6C2.68629 16 0 13.3137 0 10V6Z" fill="url(#paint0_linear_52_9178)"/>
<path d="M12.887 11V4.7H14.057V11H12.887ZM8.846 11V4.7H10.016V11H8.846ZM9.332 8.408V7.31H13.454V8.408H9.332ZM17.7252 11.09C17.2512 11.09 16.8282 10.985 16.4562 10.775C16.0842 10.559 15.7902 10.265 15.5742 9.893C15.3582 9.521 15.2502 9.098 15.2502 8.624C15.2502 8.15 15.3582 7.727 15.5742 7.355C15.7902 6.983 16.0842 6.692 16.4562 6.482C16.8282 6.266 17.2512 6.158 17.7252 6.158C18.1932 6.158 18.6132 6.266 18.9852 6.482C19.3572 6.692 19.6482 6.983 19.8582 7.355C20.0742 7.727 20.1822 8.15 20.1822 8.624C20.1822 9.098 20.0742 9.521 19.8582 9.893C19.6482 10.265 19.3572 10.559 18.9852 10.775C18.6132 10.985 18.1932 11.09 17.7252 11.09ZM17.7252 10.109C17.9832 10.109 18.2112 10.043 18.4092 9.911C18.6132 9.779 18.7722 9.602 18.8862 9.38C19.0062 9.158 19.0632 8.906 19.0572 8.624C19.0632 8.336 19.0062 8.081 18.8862 7.859C18.7722 7.637 18.6132 7.463 18.4092 7.337C18.2112 7.205 17.9832 7.139 17.7252 7.139C17.4672 7.139 17.2332 7.205 17.0232 7.337C16.8192 7.463 16.6602 7.64 16.5462 7.868C16.4322 8.09 16.3752 8.342 16.3752 8.624C16.3752 8.906 16.4322 9.158 16.5462 9.38C16.6602 9.602 16.8192 9.779 17.0232 9.911C17.2332 10.043 17.4672 10.109 17.7252 10.109ZM21.6854 11V5.051H22.7924V11H21.6854ZM20.7494 7.283V6.257H23.8274V7.283H20.7494Z" fill="#141621"/>
<path d="M29 0C31.2091 0 33 1.79086 33 4V18H29V0Z" fill="#CECECE"/>
<path d="M29 16H31C32.1046 16 33 16.8954 33 18C33 19.1046 32.1046 20 31 20H29V16Z" fill="#545472"/>
<defs>
<linearGradient id="paint0_linear_52_9178" x1="29" y1="7.16081" x2="0" y2="7.16081" gradientUnits="userSpaceOnUse">
<stop stop-color="#CECECE"/>
<stop offset="1" stop-color="#FA5E7B"/>
</linearGradient>
</defs>
</svg>
