<svg width="135" height="16" viewBox="0 0 135 16" fill="none" xmlns="http://www.w3.org/2000/svg">
<rect x="0.5" y="0.5" width="134" height="15" rx="7.5" stroke="#FA5E7B" stroke-opacity="0.4"/>
<path d="M12 13C14.0587 13 15.75 11.3686 15.75 9.27453C15.75 8.76045 15.7238 8.20937 15.4389 7.3529C15.1539 6.49645 15.0965 6.3859 14.7952 5.85698C14.6665 6.93635 13.9777 7.3862 13.8028 7.52065C13.8028 7.38077 13.3861 5.83397 12.7544 4.90847C12.1342 4 11.2909 3.40398 10.7963 3C10.7963 3.76744 10.5805 4.90848 10.2713 5.48985C9.96222 6.07123 9.90417 6.0924 9.51805 6.52505C9.13195 6.9577 8.95473 7.09132 8.63185 7.61627C8.30899 8.14125 8.25 8.84045 8.25 9.35453C8.25 11.4486 9.94132 13 12 13Z" fill="#FA5E7B"/>
<path d="M20.38 10.28V9.58L23.96 5H25.04L21.49 9.58L20.98 9.42H26.57V10.28H20.38ZM24.27 12V10.28L24.3 9.42V7.9H25.24V12H24.27ZM29.4195 12.06C28.8861 12.06 28.4728 11.9167 28.1795 11.63C27.8861 11.3433 27.7395 10.9333 27.7395 10.4V5.54H28.6995V10.36C28.6995 10.6467 28.7695 10.8667 28.9095 11.02C29.0561 11.1733 29.2628 11.25 29.5295 11.25C29.8295 11.25 30.0795 11.1667 30.2795 11L30.5795 11.69C30.4328 11.8167 30.2561 11.91 30.0495 11.97C29.8495 12.03 29.6395 12.06 29.4195 12.06ZM26.8395 7.49V6.7H30.2195V7.49H26.8395ZM31.7401 12V4.58H32.7001V8.13L32.5101 7.75C32.6834 7.40333 32.9501 7.13333 33.3101 6.94C33.6701 6.74667 34.0901 6.65 34.5701 6.65C35.0034 6.65 35.3834 6.73333 35.7101 6.9C36.0434 7.06667 36.3034 7.32 36.4901 7.66C36.6767 8 36.7701 8.43 36.7701 8.95V12H35.8101V9.06C35.8101 8.54667 35.6834 8.16 35.4301 7.9C35.1834 7.64 34.8334 7.51 34.3801 7.51C34.0401 7.51 33.7434 7.57667 33.4901 7.71C33.2367 7.84333 33.0401 8.04 32.9001 8.3C32.7667 8.56 32.7001 8.88333 32.7001 9.27V12H31.7401ZM41.2323 12V6.7H42.1923V12H41.2323ZM41.7123 5.68C41.5256 5.68 41.3689 5.62 41.2423 5.5C41.1223 5.38 41.0623 5.23333 41.0623 5.06C41.0623 4.88 41.1223 4.73 41.2423 4.61C41.3689 4.49 41.5256 4.43 41.7123 4.43C41.8989 4.43 42.0523 4.49 42.1723 4.61C42.2989 4.72333 42.3623 4.86667 42.3623 5.04C42.3623 5.22 42.3023 5.37333 42.1823 5.5C42.0623 5.62 41.9056 5.68 41.7123 5.68ZM44.0252 12V6.7H44.9452V8.13L44.7952 7.75C44.9686 7.40333 45.2352 7.13333 45.5952 6.94C45.9552 6.74667 46.3752 6.65 46.8552 6.65C47.2886 6.65 47.6686 6.73333 47.9952 6.9C48.3286 7.06667 48.5886 7.32 48.7752 7.66C48.9619 8 49.0552 8.43 49.0552 8.95V12H48.0952V9.06C48.0952 8.54667 47.9686 8.16 47.7152 7.9C47.4686 7.64 47.1186 7.51 46.6652 7.51C46.3252 7.51 46.0286 7.57667 45.7752 7.71C45.5219 7.84333 45.3252 8.04 45.1852 8.3C45.0519 8.56 44.9852 8.88333 44.9852 9.27V12H44.0252ZM53.6574 12V5H54.4774L57.6174 10.29H57.1774L60.2774 5H61.0974L61.1074 12H60.1474L60.1374 6.51H60.3674L57.6074 11.15H57.1474L54.3674 6.51H54.6174V12H53.6574ZM65.3382 12.06C64.8049 12.06 64.3315 11.9433 63.9182 11.71C63.5049 11.4767 63.1782 11.1567 62.9382 10.75C62.6982 10.3367 62.5782 9.87 62.5782 9.35C62.5782 8.82333 62.6982 8.35667 62.9382 7.95C63.1782 7.54333 63.5049 7.22667 63.9182 7C64.3315 6.76667 64.8049 6.65 65.3382 6.65C65.8649 6.65 66.3349 6.76667 66.7482 7C67.1682 7.22667 67.4949 7.54333 67.7282 7.95C67.9682 8.35 68.0882 8.81667 68.0882 9.35C68.0882 9.87667 67.9682 10.3433 67.7282 10.75C67.4949 11.1567 67.1682 11.4767 66.7482 11.71C66.3349 11.9433 65.8649 12.06 65.3382 12.06ZM65.3382 11.22C65.6782 11.22 65.9815 11.1433 66.2482 10.99C66.5215 10.8367 66.7349 10.62 66.8882 10.34C67.0415 10.0533 67.1182 9.72333 67.1182 9.35C67.1182 8.97 67.0415 8.64333 66.8882 8.37C66.7349 8.09 66.5215 7.87333 66.2482 7.72C65.9815 7.56667 65.6782 7.49 65.3382 7.49C64.9982 7.49 64.6949 7.56667 64.4282 7.72C64.1615 7.87333 63.9482 8.09 63.7882 8.37C63.6282 8.64333 63.5482 8.97 63.5482 9.35C63.5482 9.72333 63.6282 10.0533 63.7882 10.34C63.9482 10.62 64.1615 10.8367 64.4282 10.99C64.6949 11.1433 64.9982 11.22 65.3382 11.22ZM70.9359 12.06C70.4959 12.06 70.0759 12 69.6759 11.88C69.2825 11.76 68.9725 11.6133 68.7459 11.44L69.1459 10.68C69.3725 10.8333 69.6525 10.9633 69.9859 11.07C70.3192 11.1767 70.6592 11.23 71.0059 11.23C71.4525 11.23 71.7725 11.1667 71.9659 11.04C72.1659 10.9133 72.2659 10.7367 72.2659 10.51C72.2659 10.3433 72.2059 10.2133 72.0859 10.12C71.9659 10.0267 71.8059 9.95667 71.6059 9.91C71.4125 9.86333 71.1959 9.82333 70.9559 9.79C70.7159 9.75 70.4759 9.70333 70.2359 9.65C69.9959 9.59 69.7759 9.51 69.5759 9.41C69.3759 9.30333 69.2159 9.16 69.0959 8.98C68.9759 8.79333 68.9159 8.54667 68.9159 8.24C68.9159 7.92 69.0059 7.64 69.1859 7.4C69.3659 7.16 69.6192 6.97667 69.9459 6.85C70.2792 6.71667 70.6725 6.65 71.1259 6.65C71.4725 6.65 71.8225 6.69333 72.1759 6.78C72.5359 6.86 72.8292 6.97667 73.0559 7.13L72.6459 7.89C72.4059 7.73 72.1559 7.62 71.8959 7.56C71.6359 7.5 71.3759 7.47 71.1159 7.47C70.6959 7.47 70.3825 7.54 70.1759 7.68C69.9692 7.81333 69.8659 7.98667 69.8659 8.2C69.8659 8.38 69.9259 8.52 70.0459 8.62C70.1725 8.71333 70.3325 8.78667 70.5259 8.84C70.7259 8.89333 70.9459 8.94 71.1859 8.98C71.4259 9.01333 71.6659 9.06 71.9059 9.12C72.1459 9.17333 72.3625 9.25 72.5559 9.35C72.7559 9.45 72.9159 9.59 73.0359 9.77C73.1625 9.95 73.2259 10.19 73.2259 10.49C73.2259 10.81 73.1325 11.0867 72.9459 11.32C72.7592 11.5533 72.4959 11.7367 72.1559 11.87C71.8159 11.9967 71.4092 12.06 70.9359 12.06ZM76.2456 12.06C75.7123 12.06 75.299 11.9167 75.0056 11.63C74.7123 11.3433 74.5656 10.9333 74.5656 10.4V5.54H75.5256V10.36C75.5256 10.6467 75.5956 10.8667 75.7356 11.02C75.8823 11.1733 76.089 11.25 76.3556 11.25C76.6556 11.25 76.9056 11.1667 77.1056 11L77.4056 11.69C77.259 11.8167 77.0823 11.91 76.8756 11.97C76.6756 12.03 76.4656 12.06 76.2456 12.06ZM73.6656 7.49V6.7H77.0456V7.49H73.6656ZM81.3918 12V5H84.1218C84.7351 5 85.2585 5.09667 85.6918 5.29C86.1251 5.48333 86.4585 5.76333 86.6918 6.13C86.9251 6.49667 87.0418 6.93333 87.0418 7.44C87.0418 7.94667 86.9251 8.38333 86.6918 8.75C86.4585 9.11 86.1251 9.39 85.6918 9.59C85.2585 9.78333 84.7351 9.88 84.1218 9.88H81.9418L82.3918 9.41V12H81.3918ZM82.3918 9.51L81.9418 9.01H84.0918C84.7318 9.01 85.2151 8.87333 85.5418 8.6C85.8751 8.32667 86.0418 7.94 86.0418 7.44C86.0418 6.94 85.8751 6.55333 85.5418 6.28C85.2151 6.00667 84.7318 5.87 84.0918 5.87H81.9418L82.3918 5.37V9.51ZM90.6214 12.06C90.0881 12.06 89.6147 11.9433 89.2014 11.71C88.7881 11.4767 88.4614 11.1567 88.2214 10.75C87.9814 10.3367 87.8614 9.87 87.8614 9.35C87.8614 8.82333 87.9814 8.35667 88.2214 7.95C88.4614 7.54333 88.7881 7.22667 89.2014 7C89.6147 6.76667 90.0881 6.65 90.6214 6.65C91.1481 6.65 91.6181 6.76667 92.0314 7C92.4514 7.22667 92.7781 7.54333 93.0114 7.95C93.2514 8.35 93.3714 8.81667 93.3714 9.35C93.3714 9.87667 93.2514 10.3433 93.0114 10.75C92.7781 11.1567 92.4514 11.4767 92.0314 11.71C91.6181 11.9433 91.1481 12.06 90.6214 12.06ZM90.6214 11.22C90.9614 11.22 91.2647 11.1433 91.5314 10.99C91.8047 10.8367 92.0181 10.62 92.1714 10.34C92.3247 10.0533 92.4014 9.72333 92.4014 9.35C92.4014 8.97 92.3247 8.64333 92.1714 8.37C92.0181 8.09 91.8047 7.87333 91.5314 7.72C91.2647 7.56667 90.9614 7.49 90.6214 7.49C90.2814 7.49 89.9781 7.56667 89.7114 7.72C89.4447 7.87333 89.2314 8.09 89.0714 8.37C88.9114 8.64333 88.8314 8.97 88.8314 9.35C88.8314 9.72333 88.9114 10.0533 89.0714 10.34C89.2314 10.62 89.4447 10.8367 89.7114 10.99C89.9781 11.1433 90.2814 11.22 90.6214 11.22ZM97.5091 12.06C97.0691 12.06 96.6657 11.96 96.2991 11.76C95.9391 11.5533 95.6491 11.25 95.4291 10.85C95.2157 10.45 95.1091 9.95 95.1091 9.35C95.1091 8.75 95.2124 8.25 95.4191 7.85C95.6324 7.45 95.9191 7.15 96.2791 6.95C96.6457 6.75 97.0557 6.65 97.5091 6.65C98.0291 6.65 98.4891 6.76333 98.8891 6.99C99.2891 7.21667 99.6057 7.53333 99.8391 7.94C100.072 8.34 100.189 8.81 100.189 9.35C100.189 9.89 100.072 10.3633 99.8391 10.77C99.6057 11.1767 99.2891 11.4933 98.8891 11.72C98.4891 11.9467 98.0291 12.06 97.5091 12.06ZM94.6991 13.94V6.7H95.6191V8.13L95.5591 9.36L95.6591 10.59V13.94H94.6991ZM97.4291 11.22C97.7691 11.22 98.0724 11.1433 98.3391 10.99C98.6124 10.8367 98.8257 10.62 98.9791 10.34C99.1391 10.0533 99.2191 9.72333 99.2191 9.35C99.2191 8.97 99.1391 8.64333 98.9791 8.37C98.8257 8.09 98.6124 7.87333 98.3391 7.72C98.0724 7.56667 97.7691 7.49 97.4291 7.49C97.0957 7.49 96.7924 7.56667 96.5191 7.72C96.2524 7.87333 96.0391 8.09 95.8791 8.37C95.7257 8.64333 95.6491 8.97 95.6491 9.35C95.6491 9.72333 95.7257 10.0533 95.8791 10.34C96.0391 10.62 96.2524 10.8367 96.5191 10.99C96.7924 11.1433 97.0957 11.22 97.4291 11.22ZM103.745 12.06C103.292 12.06 102.892 11.9767 102.545 11.81C102.205 11.6433 101.939 11.39 101.745 11.05C101.559 10.7033 101.465 10.27 101.465 9.75V6.7H102.425V9.64C102.425 10.16 102.549 10.55 102.795 10.81C103.049 11.07 103.402 11.2 103.855 11.2C104.189 11.2 104.479 11.1333 104.725 11C104.972 10.86 105.162 10.66 105.295 10.4C105.429 10.1333 105.495 9.81333 105.495 9.44V6.7H106.455V12H105.545V10.57L105.695 10.95C105.522 11.3033 105.262 11.5767 104.915 11.77C104.569 11.9633 104.179 12.06 103.745 12.06ZM108.283 12V4.58H109.243V12H108.283ZM114.366 12V10.88L114.316 10.67V8.76C114.316 8.35333 114.196 8.04 113.956 7.82C113.723 7.59333 113.369 7.48 112.896 7.48C112.583 7.48 112.276 7.53333 111.976 7.64C111.676 7.74 111.423 7.87667 111.216 8.05L110.816 7.33C111.089 7.11 111.416 6.94333 111.796 6.83C112.183 6.71 112.586 6.65 113.006 6.65C113.733 6.65 114.293 6.82667 114.686 7.18C115.079 7.53333 115.276 8.07333 115.276 8.8V12H114.366ZM112.626 12.06C112.233 12.06 111.886 11.9933 111.586 11.86C111.293 11.7267 111.066 11.5433 110.906 11.31C110.746 11.07 110.666 10.8 110.666 10.5C110.666 10.2133 110.733 9.95333 110.866 9.72C111.006 9.48667 111.229 9.3 111.536 9.16C111.849 9.02 112.269 8.95 112.796 8.95H114.476V9.64H112.836C112.356 9.64 112.033 9.72 111.866 9.88C111.699 10.04 111.616 10.2333 111.616 10.46C111.616 10.72 111.719 10.93 111.926 11.09C112.133 11.2433 112.419 11.32 112.786 11.32C113.146 11.32 113.459 11.24 113.726 11.08C113.999 10.92 114.196 10.6867 114.316 10.38L114.506 11.04C114.379 11.3533 114.156 11.6033 113.836 11.79C113.516 11.97 113.113 12.06 112.626 12.06ZM117.053 12V6.7H117.973V8.14L117.883 7.78C118.029 7.41333 118.276 7.13333 118.623 6.94C118.969 6.74667 119.396 6.65 119.903 6.65V7.58C119.863 7.57333 119.823 7.57 119.783 7.57C119.749 7.57 119.716 7.57 119.683 7.57C119.169 7.57 118.763 7.72333 118.463 8.03C118.163 8.33667 118.013 8.78 118.013 9.36V12H117.053Z" fill="#FA5E7B"/>
<path fill-rule="evenodd" clip-rule="evenodd" d="M124.146 4.14645C124.342 3.95118 124.658 3.95118 124.854 4.14645L127.646 6.93934C128.232 7.52513 128.232 8.47487 127.646 9.06066L124.854 11.8536C124.658 12.0488 124.342 12.0488 124.146 11.8536C123.951 11.6583 123.951 11.3417 124.146 11.1464L126.939 8.35355C127.135 8.15829 127.135 7.84171 126.939 7.64645L124.146 4.85355C123.951 4.65829 123.951 4.34171 124.146 4.14645Z" fill="#FA5E7B"/>
</svg>
