<svg width="34" height="26" viewBox="0 0 34 26" fill="none" xmlns="http://www.w3.org/2000/svg">
<path d="M0 6C0 2.68629 2.68629 0 6 0H30V16H6C2.68629 16 0 13.3137 0 10V6Z" fill="url(#paint0_linear_52_9179)"/>
<path d="M8.846 11V4.7H9.899L13.553 9.623L13.355 9.659C13.331 9.491 13.31 9.32 13.292 9.146C13.274 8.966 13.256 8.78 13.238 8.588C13.226 8.396 13.214 8.195 13.202 7.985C13.196 7.775 13.19 7.556 13.184 7.328C13.178 7.094 13.175 6.848 13.175 6.59V4.7H14.336V11H13.265L9.593 6.149L9.827 6.086C9.857 6.422 9.881 6.71 9.899 6.95C9.923 7.184 9.941 7.388 9.953 7.562C9.965 7.73 9.974 7.871 9.98 7.985C9.992 8.099 9.998 8.204 9.998 8.3C10.004 8.39 10.007 8.477 10.007 8.561V11H8.846ZM18.0517 11.09C17.5537 11.09 17.1127 10.985 16.7287 10.775C16.3507 10.565 16.0537 10.28 15.8377 9.92C15.6277 9.554 15.5227 9.137 15.5227 8.669C15.5227 8.297 15.5827 7.958 15.7027 7.652C15.8227 7.346 15.9877 7.082 16.1977 6.86C16.4137 6.632 16.6687 6.458 16.9627 6.338C17.2627 6.212 17.5897 6.149 17.9437 6.149C18.2557 6.149 18.5467 6.209 18.8167 6.329C19.0867 6.449 19.3207 6.614 19.5187 6.824C19.7167 7.028 19.8667 7.274 19.9687 7.562C20.0767 7.844 20.1277 8.153 20.1217 8.489L20.1127 8.876H16.2697L16.0627 8.12H19.1857L19.0417 8.273V8.075C19.0237 7.889 18.9637 7.727 18.8617 7.589C18.7597 7.445 18.6277 7.334 18.4657 7.256C18.3097 7.172 18.1357 7.13 17.9437 7.13C17.6497 7.13 17.4007 7.187 17.1967 7.301C16.9987 7.415 16.8487 7.58 16.7467 7.796C16.6447 8.006 16.5937 8.27 16.5937 8.588C16.5937 8.894 16.6567 9.161 16.7827 9.389C16.9147 9.617 17.0977 9.794 17.3317 9.92C17.5717 10.04 17.8507 10.1 18.1687 10.1C18.3907 10.1 18.5947 10.064 18.7807 9.992C18.9667 9.92 19.1677 9.791 19.3837 9.605L19.9327 10.37C19.7707 10.52 19.5847 10.649 19.3747 10.757C19.1707 10.859 18.9547 10.94 18.7267 11C18.4987 11.06 18.2737 11.09 18.0517 11.09ZM22.1302 11L20.5372 6.257L21.6712 6.248L22.7332 9.632L22.5352 9.614L23.6872 6.968H24.3532L25.5322 9.614L25.2982 9.641L26.3692 6.257H27.5032L25.9012 11H25.1092L23.8942 8.156L24.0652 8.174L22.9132 11H22.1302Z" fill="#141621"/>
<path d="M30 0C32.2091 0 34 1.79086 34 4V18H30V0Z" fill="#CECECE"/>
<path d="M30 16H32C33.1046 16 34 16.8954 34 18C34 19.1046 33.1046 20 32 20H30V16Z" fill="#545472"/>
<defs>
<linearGradient id="paint0_linear_52_9179" x1="30" y1="7.16081" x2="0" y2="7.16081" gradientUnits="userSpaceOnUse">
<stop stop-color="#CECECE"/>
<stop offset="1" stop-color="#6A74FF"/>
</linearGradient>
</defs>
</svg>
