<svg width="34" height="26" viewBox="0 0 34 26" fill="none" xmlns="http://www.w3.org/2000/svg">
<path d="M0 6C0 2.68629 2.68629 0 6 0H30V16H6C2.68629 16 0 13.3137 0 10V6Z" fill="url(#paint0_linear_52_9224)"/>
<path d="M8.846 11V4.7H10.016V11H8.846ZM9.386 8.417V7.355H12.635V8.417H9.386ZM9.386 5.78V4.7H13.022V5.78H9.386ZM14.0445 11V6.257H15.1335L15.1515 7.769L14.9985 7.427C15.0645 7.187 15.1785 6.971 15.3405 6.779C15.5025 6.587 15.6885 6.437 15.8985 6.329C16.1145 6.215 16.3395 6.158 16.5735 6.158C16.6755 6.158 16.7715 6.167 16.8615 6.185C16.9575 6.203 17.0355 6.224 17.0955 6.248L16.7985 7.463C16.7325 7.427 16.6515 7.397 16.5555 7.373C16.4595 7.349 16.3635 7.337 16.2675 7.337C16.1175 7.337 15.9735 7.367 15.8355 7.427C15.7035 7.481 15.5865 7.559 15.4845 7.661C15.3825 7.763 15.3015 7.883 15.2415 8.021C15.1875 8.153 15.1605 8.303 15.1605 8.471V11H14.0445ZM19.8534 11.09C19.3554 11.09 18.9144 10.985 18.5304 10.775C18.1524 10.565 17.8554 10.28 17.6394 9.92C17.4294 9.554 17.3244 9.137 17.3244 8.669C17.3244 8.297 17.3844 7.958 17.5044 7.652C17.6244 7.346 17.7894 7.082 17.9994 6.86C18.2154 6.632 18.4704 6.458 18.7644 6.338C19.0644 6.212 19.3914 6.149 19.7454 6.149C20.0574 6.149 20.3484 6.209 20.6184 6.329C20.8884 6.449 21.1224 6.614 21.3204 6.824C21.5184 7.028 21.6684 7.274 21.7704 7.562C21.8784 7.844 21.9294 8.153 21.9234 8.489L21.9144 8.876H18.0714L17.8644 8.12H20.9874L20.8434 8.273V8.075C20.8254 7.889 20.7654 7.727 20.6634 7.589C20.5614 7.445 20.4294 7.334 20.2674 7.256C20.1114 7.172 19.9374 7.13 19.7454 7.13C19.4514 7.13 19.2024 7.187 18.9984 7.301C18.8004 7.415 18.6504 7.58 18.5484 7.796C18.4464 8.006 18.3954 8.27 18.3954 8.588C18.3954 8.894 18.4584 9.161 18.5844 9.389C18.7164 9.617 18.8994 9.794 19.1334 9.92C19.3734 10.04 19.6524 10.1 19.9704 10.1C20.1924 10.1 20.3964 10.064 20.5824 9.992C20.7684 9.92 20.9694 9.791 21.1854 9.605L21.7344 10.37C21.5724 10.52 21.3864 10.649 21.1764 10.757C20.9724 10.859 20.7564 10.94 20.5284 11C20.3004 11.06 20.0754 11.09 19.8534 11.09ZM25.1269 11.09C24.6289 11.09 24.1879 10.985 23.8039 10.775C23.4259 10.565 23.1289 10.28 22.9129 9.92C22.7029 9.554 22.5979 9.137 22.5979 8.669C22.5979 8.297 22.6579 7.958 22.7779 7.652C22.8979 7.346 23.0629 7.082 23.2729 6.86C23.4889 6.632 23.7439 6.458 24.0379 6.338C24.3379 6.212 24.6649 6.149 25.0189 6.149C25.3309 6.149 25.6219 6.209 25.8919 6.329C26.1619 6.449 26.3959 6.614 26.5939 6.824C26.7919 7.028 26.9419 7.274 27.0439 7.562C27.1519 7.844 27.2029 8.153 27.1969 8.489L27.1879 8.876H23.3449L23.1379 8.12H26.2609L26.1169 8.273V8.075C26.0989 7.889 26.0389 7.727 25.9369 7.589C25.8349 7.445 25.7029 7.334 25.5409 7.256C25.3849 7.172 25.2109 7.13 25.0189 7.13C24.7249 7.13 24.4759 7.187 24.2719 7.301C24.0739 7.415 23.9239 7.58 23.8219 7.796C23.7199 8.006 23.6689 8.27 23.6689 8.588C23.6689 8.894 23.7319 9.161 23.8579 9.389C23.9899 9.617 24.1729 9.794 24.4069 9.92C24.6469 10.04 24.9259 10.1 25.2439 10.1C25.4659 10.1 25.6699 10.064 25.8559 9.992C26.0419 9.92 26.2429 9.791 26.4589 9.605L27.0079 10.37C26.8459 10.52 26.6599 10.649 26.4499 10.757C26.2459 10.859 26.0299 10.94 25.8019 11C25.5739 11.06 25.3489 11.09 25.1269 11.09Z" fill="#141621"/>
<path d="M30 0C32.2091 0 34 1.79086 34 4V18H30V0Z" fill="#CECECE"/>
<path d="M30 16H32C33.1046 16 34 16.8954 34 18C34 19.1046 33.1046 20 32 20H30V16Z" fill="#545472"/>
<defs>
<linearGradient id="paint0_linear_52_9224" x1="30" y1="7.16081" x2="0" y2="7.16081" gradientUnits="userSpaceOnUse">
<stop stop-color="#CECECE"/>
<stop offset="1" stop-color="#6A74FF"/>
</linearGradient>
</defs>
</svg>
